<?xml version="1.0" encoding="iso-8859-1"?>
<!-- Generator: Adobe Illustrator 19.0.0, SVG Export Plug-In . SVG Version: 6.00 Build 0)  -->
<svg xmlns="http://www.w3.org/2000/svg" xmlns:xlink="http://www.w3.org/1999/xlink" version="1.1" id="Layer_1" x="0px" y="0px" viewBox="0 0 480.001 480.001" style="enable-background:new 0 0 480.001 480.001;" xml:space="preserve" width="512" height="512">
<g id="_x31_7._DNA_2_">
	<g>
		<path style="fill:#5E2A41;" d="M179.397,480c-2.559,0-5.119-0.976-7.071-2.929c-3.905-3.906-3.905-10.237,0-14.143    c73.495-73.494,65.913-144.856,57.886-220.409l-0.311-2.929c-8.169-76.897-16.617-156.413,63.632-236.662    c3.906-3.905,10.236-3.905,14.143,0c3.905,3.906,3.905,10.237,0,14.143c-73.494,73.493-65.913,144.855-57.887,220.407l0.311,2.929    c8.17,76.899,16.618,156.415-63.632,236.665C184.515,479.024,181.956,480,179.397,480z"/>
	</g>
	<g>
		<path style="fill:#F2D59F;" d="M432.072,181.792c-2.56,0-5.118-0.976-7.071-2.929L301.137,55c-3.905-3.905-3.905-10.237,0-14.143    c3.906-3.905,10.236-3.905,14.143,0l123.863,123.863c3.905,3.905,3.905,10.237,0,14.143    C437.19,180.816,434.631,181.792,432.072,181.792z"/>
	</g>
	<g>
		<path style="fill:#FF7124;" d="M396.687,205.375c-2.56,0-5.118-0.976-7.071-2.929L277.977,90.807    c-3.905-3.905-3.905-10.237,0-14.143c3.905-3.905,10.237-3.904,14.143,0l111.639,111.639c3.905,3.905,3.905,10.237,0,14.143    C401.806,204.398,399.245,205.375,396.687,205.375z"/>
	</g>
	<g>
		<path style="fill:#8ECAC1;" d="M352.661,220.304c-2.56,0-5.118-0.976-7.071-2.929l-82.964-82.964    c-3.905-3.905-3.905-10.237,0-14.143c3.906-3.905,10.236-3.905,14.143,0l82.964,82.964c3.905,3.905,3.905,10.237,0,14.143    C357.78,219.328,355.221,220.304,352.661,220.304z"/>
	</g>
	<g>
		<path style="fill:#F2D59F;" d="M296.922,223.532c-2.56,0-5.118-0.976-7.071-2.929l-31.336-31.336    c-3.905-3.905-3.905-10.237,0-14.142c3.908-3.905,10.238-3.905,14.143,0.001l31.336,31.336c3.905,3.905,3.905,10.237,0,14.142    C302.04,222.556,299.481,223.532,296.922,223.532z"/>
	</g>
	<g>
		<path style="fill:#FF7124;" d="M171.793,442.073c-2.56,0-5.118-0.976-7.071-2.929L40.857,315.278    c-3.905-3.905-3.905-10.237,0-14.142c3.906-3.904,10.237-3.904,14.143,0l123.865,123.866c3.905,3.905,3.905,10.237-0.001,14.142    C176.911,441.096,174.352,442.073,171.793,442.073z"/>
	</g>
	<g>
		<path style="fill:#F2D59F;" d="M195.372,406.685c-2.559,0-5.119-0.977-7.071-2.929L76.244,291.7    c-3.905-3.905-3.905-10.237,0-14.143c3.905-3.904,10.237-3.904,14.143,0l112.057,112.057c3.905,3.905,3.905,10.237,0,14.143    C200.491,405.708,197.931,406.685,195.372,406.685z"/>
	</g>
	<g>
		<path style="fill:#8ECAC1;" d="M210.302,362.66c-2.559,0-5.119-0.977-7.071-2.929l-82.963-82.963    c-3.905-3.905-3.905-10.237,0-14.143c3.905-3.904,10.237-3.904,14.143,0l82.963,82.963c3.905,3.905,3.905,10.237,0,14.143    C215.421,361.684,212.861,362.66,210.302,362.66z"/>
	</g>
	<g>
		<path style="fill:#FF7124;" d="M213.533,306.924c-2.559,0-5.119-0.976-7.071-2.929l-31.337-31.337    c-3.905-3.905-3.905-10.237,0-14.143c3.905-3.905,10.237-3.905,14.143,0l31.337,31.337c3.905,3.905,3.905,10.237,0,14.143    C218.652,305.948,216.092,306.924,213.533,306.924z"/>
	</g>
	<g>
		<path style="fill:#5E2A41;" d="M10,310.604c-2.559,0-5.119-0.976-7.071-2.929c-3.905-3.905-3.905-10.237,0-14.142    c80.249-80.249,159.763-71.801,236.662-63.632l2.932,0.311c75.553,8.026,146.914,15.608,220.406-57.886    c3.906-3.905,10.236-3.906,14.143-0.001c3.905,3.905,3.905,10.237,0,14.142c-55.675,55.676-111.012,68.659-165.353,68.661    c-23.983,0.001-47.763-2.527-71.31-5.028l-2.931-0.311c-75.553-8.028-146.914-15.608-220.407,57.886    C15.119,309.628,12.559,310.604,10,310.604z"/>
	</g>
</g>















</svg>
