<svg version="1.0" xmlns="http://www.w3.org/2000/svg" viewBox="0 0 512 512">
  <path d="M0 256v256h512V0H0v256zM274.1 37.4c-1 1.1-.8 1.7.6 2.5 1.5 1 1.4 1-.8.5-2.3-.5-3 .1-5.9 4.5-1.7 2.8-3.4 5.1-3.7 5.1-1 0 6.5-11.1 8.6-12.7 2.1-1.7 2.6-1.6 1.2.1zm7.4 5.6c.3.6-.1.7-.9.4-1.8-.7-2.1-1.4-.7-1.4.6 0 1.3.4 1.6 1zm4.5 8.5c-.7.8-1.7 1.5-2.3 1.5-.6 0-.2-.7.9-1.5 2.5-1.9 3-1.9 1.4 0zm-25.6 6.6c-.8 1.5-1.1 3.6-.8 4.6.4 1.2.3 1.4-.3.6-.5-.7-1.3-.9-1.8-.5-1 .7-1.2 1.2-2.5 6.7l-.6 3-.5-3.2c-.3-1.8-.1-2.9.4-2.6.5.3.6-.3.3-1.5-.5-1.5-.2-2.2 1.4-2.7 2-.6 2.4-1.6 2.1-4.4-.2-.7.2-1 .8-.6.6.3 1.1.2 1.1-.4 0-.5-.6-1.1-1.2-1.4-.7-.3-.3-.4.9-.4 2 .1 2.1.3.7 2.8zm-17.8 5.2c1.3 1.1 2 2.6 1.7 3.3-.3.8 0 1.4.6 1.4s1.1.7 1.1 1.5c0 1.5 2 1.7 3.1.2.3-.5.9 0 1.1 1.1.4 1.5 0 1.9-1.6 1.8-1.1-.1-2.7-.8-3.3-1.6-1.1-1.3-1.2-1.1-1 1 .2 2.2-.2 2.5-2.8 2.5-1.6 0-3-.5-3-1.2 0-2-1.6-2.8-2.5-1.3-.6.9-1 1-1 .3 0-1.8 2-2.7 3.3-1.4 1.8 1.8 2.7 1.3 2.8-1.7l.1-2.7.8 2.5c.8 2.5 1.2 1.8 1.2-2 0-3.2-.1-3.3-1.7-2-1.2 1-1.5 1-1.5 0 0-.7-.6-1-1.4-.7-.8.3-2-.1-2.8-1-1.1-1.4-1-1.5 1.1-.8 2 .6 2.3.4 1.8-.9-.8-1.9.3-1.4 3.9 1.7zm81.1-1.1c-.3.8-.6.5-.6-.6-.1-1.1.2-1.7.5-1.3.3.3.4 1.2.1 1.9zm-58.7-.3c0 .6-.4 1.2-.8 1.5-.5.3-.9-.1-.9-.9s.4-1.5.9-1.5c.4 0 .8.4.8.9zm-75.6 1.6c.3.8.1 1.5-.4 1.5-.6 0-1-.7-1-1.5s.2-1.5.4-1.5.6.7 1 1.5zm126.3 3.7c-.3.7-.5.2-.5-1.2s.2-1.9.5-1.3c.2.7.2 1.9 0 2.5zm-50.8 2.2c0 2-.1 2-1-.2-.7-1.9-1.1-2.1-2.3-1-1.2 1.1-1.2 1.4.2 1.9 1.3.4 1.2.7-.6 1.1-1.6.5-2.1 1.3-2 3.3.2 2.6 2.8 6 2.8 3.6 0-.6-.5-1.1-1.1-1.1-.5 0-.7-.5-.4-1 1-1.6 2.5-1.2 2.5.7.1 1.4.4 1.2 1.6-.7.9-1.5 1.3-1.8.9-.6-.5 1.6-.3 1.7 1 .6 1.2-1 1.6-.9 2.1.4.3.9 1.1 1.6 1.6 1.6.6 0 .6-.6-.1-1.4-.8-1-.9-1.6-.1-2.1.5-.3 1-.2 1 .4 0 1.7 4.1 5 5.6 4.4 1-.4 1.2 0 .8 1.1-.4.9-.3 1.6.2 1.5 2.2-.4 4.4.2 4.4 1.2 0 .5-.6.7-1.2.3-.7-.4-1-.4-.6 0 .3.4 1 .8 1.5.8.4-.1 1.6.7 2.6 1.5 1.6 1.5 1.9 1.4 3.9-.3 2-1.8 2.1-1.8 1.5-.1-.4 1.1-.3 1.6.3 1.2.5-.3 1.8-.1 2.9.5 1.4.7 2.2.7 2.7-.1.5-.8 1.1-.6 2.1.7 1.3 1.7 1.3 1.7.9-.6-.2-1.4-.5-2.9-.5-3.3-.1-.5-.5-.5-1.1-.2-.5.3-1 .1-1-.4 0-.6.9-1.1 2-1.1 1.3 0 1.8.5 1.4 1.5-.4.8-.1 1.5.5 1.5s.8.6.5 1.4c-.3.8-.1 1.7.5 2.1.7.4 1.1-.6 1.1-2.6 0-4.1 1.1-3.2 1.2 1.1.1 3.8 1.8 1.8 1.8-2.2 0-1.8.7-2.9 2-3.3 1.1-.3 2-1.1 2-1.6s.7-.9 1.6-.9c1.3 0 1.5.6.9 2.7-.4 1.6-.7 3.8-.8 5-.1 1.3-.5 2.3-.9 2.3-.5 0-.8.7-.8 1.6 0 1.3.3 1.4 1.3.5.8-.6 1.8-.7 2.2-.3.5.4.4 0 0-.8-.7-1.2-.4-1.2 1.1.1 1 .9 3.4 2 5.2 2.4 1.8.4 3 1.1 2.6 1.6-.3.5.2.9 1.1.9 1.1 0 1.5-.5 1.1-1.5-.3-.9 0-1.5.9-1.5s1.2.6.8 1.6c-.5 1.3.1 1.5 3.2 1.2 4.3-.3 5.8 1.4 2.6 3.2-1.2.6-2.1.7-2.1.1 0-1.7-3.3-2.1-5-.6-.9.8-2 1.2-2.3.8-.4-.3-.7.1-.7 1s1 2.2 2.3 2.8c1.9 1.1 2 1 .9-.3-1-1.3-.9-1.5 1.3-1 2 .3 2.3.7 1.4 1.8-1.7 2-.5 3.9 2.5 4.2 1.9.1 2.5-.2 2-1.1-.5-.9-.4-.9.6 0 1.2 1.1 1.1 1.6-.6 2.8-1.9 1.5-1.9 1.6.1 1.3 1.2-.2 1.9.2 1.7.9-.3 1.7 2.3 1.6 3.7-.1.8-1 .9-1.6.1-2.1-.5-.3-1-1.5-1-2.6s.5-1.7 1-1.4c.6.3 1 .1 1-.6s.3-1 .6-.6c.4.3 1.3 0 2.1-.8 1.7-1.7 3.9-1.9 4.8-.5.4.6.3.9-.2.8-1.3-.4-7.2 2.6-7.8 3.9-.5 1.5 1.1 1.7 2 .3.9-1.5 2.2-1.2 2.2.5 0 .8-.7 1.5-1.6 1.6-1 0-1.2.2-.3.6.6.2 1.2 1.2 1.2 2 0 1.3.3 1.3 1.5.3.8-.7 1.5-.9 1.5-.4s.5.2 1-.6c.8-1.2 1-1.1 1 .7 0 2.4.7 2.7 3.5 1.7 1.3-.5 1.4-.8.3-1.5-1-.7-1-.9 0-.9.6 0 2.1.9 3.1 1.9 1.1 1.1 2.1 1.7 2.3 1.5.3-.2.5.3.5 1.1 0 1.9-1.6 1.9-2.3 0-.9-2.1-3.4-1.9-5.5.7-1.1 1.1-1.9 1.6-1.9 1 0-.7-.4-1.2-1-1.2-1.6 0-1.2 2 .6 2.7.9.3 2 0 2.5-.8 1-1.6 1.2-.8.3 1.5-.3.8-1.2 1.2-2.1.9-1.1-.4-1.4-.2-.9.6.5.7 1.6.9 2.8.5 1.5-.4 1.8-.3 1.3.7-.6.9-.3 1.1.9.6 1.3-.5 1.9-.1 2.3 1.3.3 1.1 1 1.7 1.6 1.3.6-.4.8 0 .4 1-.4 1.1-.1 1.7.9 1.7 1.3 0 1.3.2-.1 1.7-1.6 1.5-1.6 1.8-.1 2.8.9.7 1.6 1.8 1.7 2.6 0 .8.4.5.9-.6s.9-1.4.9-.7c.1.7.5 1.1 1 .8.5-.3 1.1.3 1.4 1.4.3 1.1.1 1.8-.4 1.4-.5-.3-.9 0-.9.6 0 2 5.5.5 5.8-1.7.2-1.6.9-1.9 2.8-1.5 2.9.5 6.3-2.4 5.6-4.8-.3-1.2-.2-1.2.8-.3.7.6 1.8 1 2.4.9.6-.2.8-.1.4.1-.9.6 3.3 5.3 4.6 5.3.6 0 .4-.5-.4-1-1.1-.7-1.1-1-.2-1 .7 0 1.2-.8 1.1-1.8-.3-3.1.1-5.5.8-4.9.3.4 1.2.2 2-.4 1-.9 1.3-.8 1.3.1 0 .7.8 1 2 .7 1.1-.3 2.3 0 2.6.5.5.7-.4.9-2.5.6-1.7-.2-3.1-.3-3.1-.2 0 .1-.3 1.1-.6 2.1-.5 1.5-.4 1.5.5.3.8-1.1 1.1-1.1 1.1-.2 0 .7-.7 1.5-1.5 1.8-1 .4-1.3 1.3-1 2.5.4 1.2-.1 2.1-1.7 3-1.3.6-3.6 2.3-5.3 3.8-1.6 1.4-2.4 1.9-1.7 1 1.2-1.6.7-2.9-1-2.9-.5 0-.6.4-.3 1 .3.5.1 1-.5 1s-1-.8-.8-1.8c.2-.9-.2-1.6-.9-1.5-.8.2-1-.4-.6-1.5.6-1.5.5-1.5-1-.4-.9.8-1.5 1.9-1.4 2.5.1.7-.4 1.1-1 1-.7-.2-1.3.1-1.3.5 0 .5 1.9 1.5 4.3 2.2 5.8 1.9 6.7 2 6.7.9 0-.6.5-.7 1.2-.3.6.4.8.3.5-.4-.4-.6 2-2.6 5.8-4.7 3.6-2 6.5-4.1 6.5-4.6 0-.6.5-.7 1-.4.7.4.9-.5.5-2.6l-.6-3.2 2.1 2.4 2.1 2.4-.7-2.5c-.6-2.4-.6-2.4 1-.5 1.7 2.2 2.1 3.9.8 3.1-1.3-.8-6.3 4.8-5.9 6.5.2.8.2 1-.1.6-.4-.8-3.1 2.2-3.2 3.5 0 .4 1.2.3 2.6-.2 3.6-1.4 4.3-1.2 1.4.5-1.4.8-3.2 1.4-4.1 1.5-1.4 0-2.4 1.7-2.9 5-.1.3.9.8 2.2 1.2 1.8.5 1.9.6.4.7-1.5.1-1.6.4-.6 1.6 1.7 2.1 3 1.9 3-.5 0-1.1.4-2 .8-2 1 0 .8 4.7-.2 5.7-.4.5-1.7.8-2.9.8-1.1 0-2.2.5-2.4 1.2-.3.8.6 1.2 2.5 1 1.7-.1 2.8-.5 2.6-.8-.2-.4.6-.9 1.7-1.2 1.7-.4 1.9-.9 1-2.4-.6-1.2-.6-2.5 0-3.4.5-.7.9-.9.9-.3 0 .6 1 1.6 2.3 2.3l2.2 1.2-2.3-.5c-1.8-.3-2.2-.1-1.8 1.1.4.9-.1 2.2-1.1 3-1 .8-1.3 1.2-.7.9.7-.3 2 .2 3.1 1.2 1 .9 1.4 1.4.8 1.1-.5-.4-2.6-.7-4.5-.7-3.3-.1-3.4 0-1.6 1.4 2.4 1.7 4 1.8 3 .3-.4-.7-.2-1 .5-.8 2.2.8 1.7 2.4-.9 2.7-3.4.5-5.4 2.2-4.1 3.5 1.5 1.5 4.3 1.8 3.4.4-.4-.6 0-.8 1-.4.9.3 1.9.2 2.2-.3.4-.6-.4-1-1.7-1.1h-2.3l2.3-.9c3-1.3 3.7-1.2 3.7.2 0 1.5 2.1 2.2 3 .9.4-.7-.1-.9-1.2-.5-1.5.5-1.6.4-.3-.5.8-.6 2.3-.8 3.3-.5 1 .3 2.6 0 3.5-.8 1.5-1.1 1.5-1.1.5.3-.7.9-1 1.9-.6 2.3.4.4 0 .4-.9.1-2.7-1-2.9 1.1-.3 2.3 1.4.7 2.5 1.6 2.5 2.1 0 .6.7.7 1.7.4 1.1-.4 1.4-.3.9.5-.4.7-.3 1.2.2 1.2.6 0 1.3.7 1.6 1.6.5 1.4.4 1.5-.8.5-1.8-1.5-5.6-2.2-5.6-1 0 .5-1 .9-2.2.8-1.7 0-1.9-.2-.8-.7 1.8-.8 2.5-3.8 1-4.7-1.9-1.2-6.2-1.6-5.5-.5 1 1.7-.5 3.1-2.2 2.1-1.1-.6-2.8-.2-5.3 1.1-3.6 2-5.1 5.2-2.1 4.6.9-.2 1.4-.7 1.1-1.2-.7-1.4 4.8-3.4 7.6-2.8 1.3.2 2.1.8 1.9 1.3-.8 1.2 4.5 5.8 8.1 6.9 3.8 1.3 4 3.5.2 3.7-1.8 0-2.8-.4-2.8-1.3 0-.8-.4-1.4-1-1.4-.5 0-.7.7-.4 1.5.4 1 0 1.5-1.3 1.5-1.1 0-2-.7-2-1.5s.4-1.5.9-1.5.6-.5.3-1c-.3-.6 0-1 .7-1.1.7 0 .3-.5-.9-1.1-1.3-.6-2.3-1.5-2.3-2 0-1.4-3.8-.9-4.4.7-.4 1.1.2 1.5 2.2 1.6 1.5 0 2.1.3 1.5.6-.7.2-1.3 1.4-1.3 2.4 0 1.3.4 1.8 1.3 1.3.7-.4.7-.2-.2.7-.9.9-1.5 1-1.8.3-.2-.6-1-1.9-1.7-2.9-1.2-1.6-1.3-1.6-1.9-.1-.4 1-.1 1.6.8 1.6 1.8 0 1.9 1.2.4 2.7-.9.9-.6 1.1 1.2.7 2.1-.4 2.2-.3.4.5-1.1.4-2.4.5-3 .1-.5-.4-2.4-1-4-1.3-2.6-.5-3.1-.2-3.2 1.5-.2 1.5.3 1.9 1.7 1.5 1.1-.3 2.7.2 3.7 1 1.7 1.3 1.6 1.3-.4.4-1.6-.8-2.2-.7-2.7.4-.3.8 0 1.7.6 2.1.7.5.8.2.4-.7-.4-.8 0-.5.8.5.9 1.1 2.3 2.1 3.2 2.2 2.9.4 4.5 1.4 4 2.3-.4.5 0 1.2.6 1.5.7.2.4.4-.7.2-1.1-.1-3.1-.8-4.4-1.5-1.9-1.1-2.2-1.1-1.5 0 .4.7.8 2.4.9 3.7.1 2-.1 2.1-1.1.8-.9-1.4-1.3-1.4-2.3-.3-.6.8-.7 1.8-.3 2.2.4.5.1.5-.6.1-1.1-.7-1-1.1.2-2.5 2-2.2 2-4.1.1-4.1-.8 0-1.5.5-1.5 1.1 0 .6-.7.3-1.6-.5-2.5-2.6-5.4-3.9-5.4-2.5s3.8 4.9 5.4 4.9c.6 0 .5.4-.3.9-.9.6-1.2 1.9-.8 3.7l.5 2.8-1.8-2.4c-1-1.4-1.6-2.8-1.4-3.2.3-.4 0-.8-.6-.8s-.9-.4-.5-.9c.3-.5.1-1.2-.4-1.5-.5-.3-.8.7-.7 2.3.1 1.9-.3 2.8-1.1 2.7-1.6-.3-1.7-.5-.7-2.9.4-1.1.1-2.3-.6-3-1-1-1.2-.8-.7.5.3 1 .2 2-.3 2.3-.6.4-1-.3-1-1.4 0-1.1-.5-2.3-1.2-2.7-.8-.5-.6-1 .7-1.4 1.8-.6 1.8-.7-.2-1.2-1.7-.5-2.1-.2-1.8 1.3.2 1 0 2.1-.6 2.4-.5.4-.9.1-.9-.4 0-.6-.4-1.1-1-1.1s-.6.9-.1 2.2c.4 1.3.6 2.9.4 3.5-.3.7 0 1.3.5 1.3 1.2 0 1.1 3.2-.2 4.1-1.3 1 .4 7 1.7 6.2.7-.3.9-.2.4.2-.4.5.3 2 1.5 3.4 2 2.2 2 2.3.2.8-1.1-.9-2.4-1.4-2.7-1-.4.3-.7.1-.7-.6s-.4-1-.8-.7c-.4.2-1.4.1-2.2-.5-1-.6-1.1-.9-.2-.9.7 0 1.2-1.4 1.2-3.8 0-2.7-.3-3.3-1-2.2-.8 1.3-1 1.3-1-.2 0-.9.5-2 1-2.3.6-.4.7-1.2.3-1.8-.4-.7-.6-2.2-.4-3.5.2-1.7-.3-2.2-2-2.2-1.9 0-2 .2-.8 1.7 1 1.1 1 1.4.2.9-.9-.5-1.3.1-1.3 1.8 0 1.4.5 2.6 1.1 2.6.6 0 .8-.7.5-1.6-.5-1.4-.4-1.5.9-.4.9.7 1.4 1.3 1.3 1.4-.2.1-1.4 1-2.7 2.1-1.4 1.1-2.1 1.5-1.8.9.4-.7 0-1.7-.8-2.4s-1.5-1.8-1.5-2.4c0-.6.5-.4 1 .4.8 1.3 1 1.3 1-.2 0-2.6-2.1-3.3-2.7-.9-.6 2.3-1.8 2.7-2.9.9-.4-.7-.3-.8.4-.4s1.2.4 1.2-.1c0-.4.3-1.9.6-3.3.5-2 .3-2.2-.5-1-.9 1.2-1 .9-.7-1.4.6-3.1 1.6-4.8 1.6-2.5 0 .9.7 2.4 1.5 3.5 1.4 1.7 1.4 1.6.2-1.5-1.1-3.1-4.7-5.3-4.7-3 0 .5-.5.9-1 .9-.6 0-.8-1.3-.5-3 .4-2.3.2-2.8-1-2.4-.8.4-1.5 1.2-1.5 1.9 0 .6-1 2-2.2 3.1l-2.3 1.9 1.9-2.3c1.4-1.6 1.7-2.5.9-3.3-1.7-1.7-.4-4.3 1.3-2.8.9.8 1.8.7 3.1-.1 1.6-1 1.6-1.1.1-.6-1.2.3-1.8 0-1.8-.9 0-.8.7-1.5 1.5-1.5s1.5-.5 1.5-1c0-1.5-1.6-1.2-3.4.6-.9.8-2 1.2-2.6.9-.5-.3-1 .2-1 1.1 0 1-.3 1.5-.6 1.1-.3-.3-.4-.8-.2-1.1.1-.3-.6-1.2-1.7-2.1-1.9-1.4-1.9-1.5-.1-.8 1.5.5 1.8.3 1.4-.9-.4-.8-.1-1.5.8-1.5.7 0 1.1.4.8.8-.2.4.5.7 1.6.6 1.9-.1 2-.3.5-1.4-1.9-1.3-1.2-3.3 1.1-3.3.8 0 1.2-.5.9-1-.5-.8-1.1-.7-2 0-1.8 1.5-5.5.3-5.5-1.6 0-.8.4-1.2 1-.9.6.4.7-.1.3-1.1-.5-1.3-.3-1.6 1-1.1 2 .7 2.4-1.7.5-2.9-.7-.5-.8-.2-.3.7.5.8.4 1.1 0 .6-.5-.4-2.1.4-3.6 1.9-1.9 1.9-2.9 2.2-3.4 1.3-.5-.7-.4-1 .2-.6.6.4 1.6 0 2.3-.8 1-1.2.9-1.6-.4-2.1-1.5-.6-1.4-.8.4-2.1 1.3-.9 2-2.2 1.7-3.3-.3-1.1.1-1.7.9-1.6 2.4.4 2.8 1.6.9 3-1.2.8-1.4 1.5-.7 2 .6.3 1.3.2 1.7-.3.3-.6 1.3-.7 2.2-.4 1.1.4 1.4.2 1.1-.8-.3-.8-.1-2.3.4-3.4.9-2 .9-2-.6-.1-1.4 1.8-2.1 1.5-1.7-.7 0-.4-.4-.7-1-.7-.5 0-.7-.5-.4-1 .8-1.3-.1-1.3-2.7.1-1.6.9-2.3.7-3.7-.8-.9-1-1.8-2.2-1.9-2.8-.1-.5-2.1-1.1-4.3-1.2-6-.4-5.8-1 .6-1.8 3-.3 5.3-1.1 5-1.6-.4-.5-.4-.9 0-.9.3 0 1 1.1 1.5 2.5 1.1 2.8 3 3.4 3 .9 0-.8-.4-1.2-1-.9-.5.3-1-.3-1-1.4 0-1.3-.8-2.1-2.2-2.3-1.4-.2-2.4-1.1-2.6-2.3-.2-1.8-.2-1.8.8-.3 1.6 2.5 6 2.4 6-.2 0-1-.8-2.4-1.7-2.9-1.5-.9-1.3-1 1.4-1.1 3.1 0 3.6-1.1 2-3.7-.5-.7.1-1.3 1.5-1.6l2.3-.4-2.3-.2c-1.2 0-3 .8-3.9 1.9-1.9 2.1-3.9 2.8-2.7.8.4-.7.3-.8-.4-.4-.6.4-2.8-.1-4.9-1-3.5-1.6-5.5-2.2-9-2.6-1.7-.2-1.6-.3.4-1.9 1.3-1.1 1.5-1.1.9-.1s-.2 1.3 1.5 1.1c1.3-.2 3 .1 3.8.5.9.6 1.9.3 2.8-1 .9-1.2 1-2 .3-2.2-.5-.2-1-1-1-1.8 0-.9-.4-1.2-1-.9-.5.3-1 .2-1-.3 0-.6-1.4-.7-3.4-.2-2.8.6-3.3.5-2.9-.7.8-2.1 3.7-3.3 6.4-2.6 1.4.3 2.1.2 1.6-.3-.9-1-1.4-1.1-5.5-1.3-1.6 0-3.7-.8-4.8-1.6-1.6-1.3-1.6-1.4-.1-.9 2.3.8 2.2-.9-.3-3.1-1.1-1-1.7-2.3-1.4-2.9.3-.6-.2-.2-1 .8-.9 1.1-1.6 1.5-1.6.9s-.7-1.4-1.6-1.7c-1-.4-1.3-.2-.8.6s.2.9-1 .5c-1-.4-2.4-.7-3.2-.7-.9 0-1.2-.5-.9-1 .9-1.5-.4-1.2-2.1.4-1.2 1.3-1.1 1.8 1 4.2l2.3 2.8-2.1 1.9c-2 1.8-2 1.8-.1 1.3 1.2-.4.2 1-2.5 3.4-2.5 2.3-4.4 4.5-4.2 5.1.1.6-.3.7-.9.3-.9-.5-1-.2-.6.9s.2 1.4-.8 1.1c-.8-.3-3.7 1.5-6.7 4.2l-5.3 4.8 4.5-4.7c2.5-2.7 6.8-6.7 9.7-9 5.1-4.1 6.5-6.4 2.1-3.5-2.2 1.4-2.3 1.4-2.3-.8 0-1.3.6-2.4 1.3-2.4.6 0 1.2.6 1.2 1.2 0 .7 1.2.1 2.6-1.4 3-2.9 2.5-4.8-1.2-4.8-2.3 0-2.4-.1-.9-2.3.8-1.3 1.2-2.7.8-3.2-.5-.4-.1-.5.7 0 1 .5 1.2.5.5-.3-.5-.6-2.1-1.3-3.5-1.5-1.4-.3-.5-.5 2-.4 2.9.1 4.4-.2 4.3-1-.1-.6.8-1 2.3-.8l2.5.2-2.2-2.3c-1.2-1.3-2.6-2.1-3.2-1.7-.6.3-.7.1-.3-.5.4-.7.2-1.2-.3-1.2-.6 0-1.1.8-1.1 1.7 0 1.5-.2 1.6-1 .3-.5-.8-1-2.2-1-3 0-1.1.2-1.2.8-.3.5.8 1.3.9 2.2.3 1.3-.8 1.2-1.2-.5-2.5-1.1-.8-3.1-1.8-4.5-2.1-1.4-.4-3.1-1.1-3.7-1.6-.7-.6-2-.7-2.9-.4-1.2.4-1.5.2-1-.9.3-.9 0-1.5-.9-1.5-.8 0-1.5-.5-1.5-1.1 0-.8-.4-.8-1.5.1-.8.6-2 1-2.7.7-.8-.4-.7-.6.5-.6.9-.1 1.7-.5 1.7-1 0-.6-.8-1-1.7-.9-1 0-3.1-.3-4.7-.7-2.7-.6-2.6-.3 2.8 5.8 5.4 6.2 6.7 8.7 4.6 8.7-.5 0-1-.7-1-1.6 0-.9-.5-1.2-1.2-.8-.6.4-.8.3-.5-.3 1-1.7-6.1-9.3-8-8.6-1 .4-1.4.2-1-.4 1.1-1.8-.3-4.1-2.8-4.6-1.4-.2-2.2-.1-2 .4.3.4.1 1-.5 1.4-.5.3-1 1.1-1 1.6 0 .6.5.7 1.2.3.7-.5.8-.3.3.6-.5.8-.2 1.8.8 2.5 1.5 1.1 1.4 1.3-.8 2.3-1.4.6-2.5 1.7-2.5 2.4 0 .8-.4.7-1-.4-.6-1-2-1.5-3.6-1.3-2.3.2-2.5 0-1.9-2.3.4-1.6.1-2.8-.7-3.3-1-.7-1-.9 0-.9.6 0 1.2-.9 1.2-2 0-1.3-.7-2-2-2-1.2 0-1.7.5-1.4 1.4.3.8.1 1.7-.5 2.1-.7.3-.8 0-.5-.9.6-1.4-.5-2.1-2.8-1.7-.4 0-.5-.6-.2-1.4.4-.8 1-1.2 1.5-.9.5.3.9.1.9-.4 0-.6-1.1-.9-2.4-.8-1.3 0-2.2.5-1.9.9.2.4-.7.5-2.1.1-1.9-.4-2.8-.2-3.2 1-.3.9-1 1.6-1.6 1.6-.5 0-.6-.5-.3-1 .3-.6-.1-1-.9-1-2 0-2 .5-.1 3.4 1.3 2 1.4 2.4.2 2.9-.9.3-1.4-.1-1.3-1.1 0-.9-.5-1.7-1.1-1.8-.7-.1-1.8-.2-2.4-.3-.5 0-.7-.7-.3-1.4.6-.9.4-.9-.8.1-.8.7-2.3 1-3.2.6-1-.4-1.6-.1-1.6.7 0 .7-.3.9-.6.6-.4-.3-1.5-.2-2.5.3-1.4.8-1.9.6-2.4-1-.7-2.4-2.3-2.5-4.9-.5-1.1.8-2.7 1.3-3.6 1-.9-.3-3.2.2-5.1 1-2.7 1.2-2.9 1.5-1 1.3 1.4-.2 2.6.3 2.9 1.1.3.9 0 1.1-.9.6-.9-.5-.8-.1.2 1 1.4 1.4 1.5 2.4.7 5.3-1.1 4-.4 9.9 1.6 13.1.6 1 .5 1.2-.2.7-.7-.4-1.2-.2-1.2.5 0 .8-.4.8-1.5-.1-1.3-1.1-1.3-1.4.2-2.7 1-.8 1.2-1.1.4-.7-1.1.5-1.3-.5-.9-5.4.2-3.3.1-5.9-.3-5.6-.4.2-1 0-1.4-.6-.3-.5-.1-1 .5-1s.8-.5.5-1c-1.2-2-2.3-.9-2.9 3.2-.5 2.9-.3 4.4.6 5 1 .6.8.8-.4.8-1 0-1.8.5-1.8 1.1 0 .6-.5.7-1.2.2-.7-.4-2.1-.6-3.2-.4-1.2.2-1.6-.1-1.1-.9s0-1.1-1.6-.8c-1.9.2-2.3-.1-2.1-1.7.2-1.1.1-1.7-.3-1.3-.8.8-1.1 2.4-1.5 9.8-.3 3.8-.4 4-.7 1.3-.3-2.4-.8-3.1-2.1-2.7-1.5.5-1.5.4.1-.6.9-.6 1.7-2.3 1.7-3.8-.1-2.5-.2-2.5-2.6 1.5-1.4 2.4-3 4-3.5 3.7-.5-.3-.2-1.2.6-2.1 2.2-2.1 4.5-6.9 3.8-7.7-.4-.3.1-.6 1-.6 2.1 0 2.1-.7.2-2.7-1.8-1.7-1.1-3.3 1.3-3.3 1.5 0 1.5.2.2 1-.9.6-1 1-.3 1 2.3 0 2.2-1.8-.2-3.4-1.5-1-2.5-1.2-2.5-.6s-.6.8-1.2.4c-1-.6-1-.4 0 .8 1.1 1.4 1 1.7-.8 2.3-1.5.5-1.8 1-1.2 1.8.7.8.5 1.6-.4 2.5-1.2 1.1-1.4 1-1.4-.7 0-1.8-4.5-3.9-5.8-2.6-.3.3.2.5 1.1.5 1 0 1.7.8 1.7 1.7 0 2.5-1.6 4.7-2.7 4-1.4-.9-5 1.9-3.9 3 .5.4 1.1.2 1.3-.5.4-1 .8-1 1.9-.1 1.1.9 1.8.7 3.1-.8 1-1 1.5-1.4 1.1-.9-.3.4-.4 1.5-.1 2.4.4.9.2 1.3-.4.9-.6-.4-1.6 0-2.3.9-1 1.1-1.5 1.2-2.1.3-.4-.7-2.1-1.2-3.8-1.1-1.7 0-3.1-.4-3.1-.9s.5-.8 1.1-.7c.6.2 1.8-.7 2.6-2 1.4-2 1.4-2.2-.1-2.2-.9 0-1.6.7-1.6 1.5 0 1.1-.7 1.4-2.4.9-2.8-.7-4.3 1.1-2 2.4 1.2.7 1.3 1.1.4 1.7-.7.4-1.5.3-1.9-.3-.8-1.3-4.6-.9-4.5.4 0 .5 1.3 1.2 3 1.5 2.8.5 2.7.5-1.1 1.1-2.2.2-4.1.1-4.3-.3-.5-1.3-6.2 2.5-5.7 3.9.3.7 0 1-.6.7-.5-.4-1.6-.1-2.4.5-1.9 1.5-2.1 3.7-.2 2.3.6-.6 2.1-1 3.1-1 1.7 0 1.7.2-.4 1.9-1.2 1-2.6 1.5-3.2 1.2-.5-.3-1.8.2-2.9 1.2-1.5 1.3-1.6 1.9-.7 2.5 1 .7 1 1.1-.1 2.1-.8.7-1.1.8-.8.3.8-1.5-4.1-1.1-5.6.5-.9 1-.9 1.1.1.6.6-.4 1.2-.2 1.2.3 0 .6-.4 1.1-.9 1.1-1.1 0-.9 7 .3 8.9.6 1 .6 1.2-.2.7-.8-.4-1.2 0-1.2 1 0 1.4-.3 1.5-1.2.6-1.4-1.4-4.2-1.6-3.4-.3.4.5-.4.7-1.6.3-2.1-.5-2.1-.5.3-1.5 1.3-.6 2.9-.9 3.4-.9.6.1 1.2-1.2 1.3-2.8.2-3.2-.6-3.8-2.7-1.8-1.1 1.1-1.1.9-.1-1.1.9-1.8.9-2.2 0-1.6-.7.4-1.8 2.1-2.6 3.9-.7 1.7-1.3 2.5-1.4 1.8 0-.7-.4-1.1-1-.7-.5.3-.7 1.2-.3 2 .3.8 0 1.5-.6 1.5-.7 0-.8.8-.1 2.4.7 2.1.6 2.4-.9 2.3-1.2-.1-1.7-.8-1.5-2.4.1-1.3-.2-2.1-.7-1.7-.5.3-.7 1-.4 1.5.4.5.1.9-.4.9-.6 0-1 .6-.8 1.2.1.7-.4 1.2-1 1.1-.7-.2-1.3.4-1.3 1.3s.5 1.2 1.3.8c.7-.4.9-.3.4.2s-1.3 1-1.8 1c-.5.1-1.3.2-1.9.3-.5 0-1 .8-1 1.6s-.5 1.5-1.1 1.5c-.6 0-.9.9-.6 1.9.2 1 0 2.5-.5 3.2-.8 1.1-.9 1-.4-.4.3-.9.3-1.7-.1-1.7-.9 0-3.2 3.4-3.3 4.8 0 .7.5 1 1 .7.6-.4.7-1.1.4-1.7-.4-.7-.2-.8.5-.4.6.4.9 1.2.6 1.7-.4.5 0 .9.7.9.9.1.7.5-.4 1.4-1.4 1-1.5 1.5-.5 2.6 1 1.2.9 1.2-.5.1-1-.7-1.5-1.7-1.2-2.2.8-1.4-1-1.1-3.2.5-1.8 1.4-1.8 1.5-.2 2.1 1 .4 1.5 1.2 1.2 1.7-.4.6-1 .5-1.5-.3-.7-1.1-.9-1-.9.3 0 .9-.6 2.1-1.3 2.5-.6.4-1.8 1.9-2.5 3.2-1.2 2.1-1.2 2.3.2 1.8.9-.4 1.6-.2 1.6.4 0 .6.5.7 1 .4.6-.3 1-.2 1 .3 0 1.6-3.1 2.3-4.6 1.1-1.1-.9-1.3-.5-1.1 1.8.1 1.5.7 3.2 1.2 3.6.6.5 0 .7-1.2.4-1.9-.4-2.3-.1-2.3 2 0 1.4-.9 3.3-2 4.3-1.6 1.4-1.8 2.2-1 4.8.5 2 .5 3.2-.1 3.2-.5 0-.9.5-.9 1.1 0 .5.6.7 1.3.4.6-.4.3.1-.8 1-1.9 1.6-1.9 1.6 1 1 2.9-.7 2.9-.7.9.9-1.7 1.2-2 2.3-1.7 5.3.5 5.2 1.1 6.6 2.6 6 1.6-.6 2 3 .5 3.9-.7.5-.9.2-.5-.9.3-.9-.1-1.8-1-2.1-1.1-.5-1.4-.2-.9.9.3 1 .2 1.3-.5 1-.6-.4-.9.1-.7 1.1.2 1.3-.4 2-1.9 2.2-1.3.2-2.3.8-2.3 1.3 0 .6.5.7 1 .4.6-.3 1 0 1 .7 0 .9.3.9 1-.2.8-1.3 1-1.3 1 .2 0 .9.3 2.3.6 3.1.4 1.2 0 1.4-1.5 1-1.1-.3-1.9-.9-1.6-1.3.3-.5-.4-1.1-1.5-1.5-1.1-.4-1.7-1.1-1.4-1.7.4-.7.2-.8-.4-.4-.6.4-1.6 2.5-2.2 4.7-.9 3.2-.8 4.4.2 5.7.8 1 .9 1.3.1.9-.8-.5-1.2.7-1.2 4-.1 2.7-.2 6.7-.4 9.1-.3 3.7-.1 4.2 1.5 3.6 1.8-.5 2.7 1.1.9 1.8-1.6.5-1.9 8.6-.5 11.3 1.1 2.1 1.1 2.5-.1 2.5-1.7 0-1.1 7 .6 8.1.7.4.7.9.2 1.2-1 .7-.5 6.7.6 6.5 1.8-.2 2.1.4 1.1 2.2-.9 1.6-.8 1.8.5 1.4.8-.4 1.6-1.6 1.6-2.8.2-2 .2-2 .6.2.2 1.2.9 2 1.4 1.7.5-.4.9-.2.9.4 0 .5-1 1.1-2.2 1.3-1.7.2-2.3 1-2.5 3-.1 1.5.2 3 .8 3.3.5.4.9.1.9-.5 0-.7.7-.4 1.6.5 1.4 1.4 1.9 1.4 3.8.1 1.9-1.2 2.3-1.2 2.3-.1 0 .8-.4 1.2-.8.9-.4-.2-1.1 0-1.4.6-.4.6-1.6.8-2.7.4-1.5-.4-1.8-.3-1.3.7.6.9.3 1.1-.8.6-1.4-.5-1.5-.3-.4 1.3.6 1.1 1.9 2.1 2.7 2.1 1.1.1 1 .3-.2.6-2.3.6-2.3 1.4.3 5.7 1.1 1.9 1.8 4 1.5 4.5-.4.5-.2 1.2.3 1.5.5.4 1.2.2 1.5-.3.4-.5 1.4-.8 2.4-.6.9.2 2.2.4 2.7.4.6.1.3.6-.5 1.2-1.2.9-1.1 1 .7.6 2.4-.5 6.3 1.7 5 2.9-.4.4-.7.2-.7-.4 0-.6-2-1-4.6-1h-4.6l.6 3.1c.3 1.8 1.3 3.7 2.1 4.3.8.6 1.2 1.4.8 1.7-.3.4-.1 1.3.5 2 .7.8.8 1.8.4 2.2-.4.5-.2.5.5.1.6-.3 1.4-.2 1.8.4.3.5.1 1-.6 1s-.5 1 .7 2.7c1 1.6 2.4 4 3.2 5.5.7 1.6 1.5 2.8 1.6 2.8.7 0 .2-3.7-.7-4.8-.5-.6-.6-1.2-.1-1.2.4 0 0-.6-.9-1.3-1.5-1-1.3-1.2 1.5-1.4 2.1-.1 2.7.1 1.5.5-1.6.7-1.6.9.4 2.5 1.6 1.5 1.8 2.1.9 3.3-.7.8-.9 1.4-.5 1.4s.2.7-.5 1.5c-1 1.2-1 1.8 0 3 .7.8 1.7 1.2 2.4.8.6-.3.8-.3.4.2-1.1 1.2 4.9 11.9 9 15.9 1.9 2 3.1 3.6 2.7 3.6-.5 0 0 .6 1 1.4 1.1.8 2.4 1.2 2.9.9.5-.4.6-.1.2.5-.4.7-.2 1.2.4 1.2.6 0 .8.4.5 1-.3.5 0 1 .8 1s2 .6 2.7 1.4c.6.8 1.9 1.2 2.7.9 1.1-.4 1.4-.3.9.6-1.2 1.8 2.4 4.2 4.6 3 .9-.5 2.1-.9 2.5-.8 2.2.4 2.5-.2.7-1.6-1-.8-2.8-1.5-3.8-1.5-2.3 0-1.3-1.3 1.2-1.5.9-.1 2.7-.5 4-.9 1.3-.5 2.2-.3 2.2.3s-1.2 1.1-2.7 1.1c-2.7.1-2.7.1-.9 1.5 2.2 1.7 4 2 3.1.5-.3-.5.8-.5 2.6.2 2.2.8 2.7 1.3 1.7 1.9-.7.5-1.4.4-1.6-.1-.2-.6-.8-1-1.4-1-.6 0-.4.7.3 1.7 1.3 1.5 1.2 1.6-.8 1.1-1.3-.4-2.5-.2-2.8.3-.3.4-1.2.6-1.9.3s-1.8.2-2.5 1c-1.1 1.3-.8 1.5 1.9 1.1 3-.4 3.1-.3 1.6 1.4-.9 1-1.6 2.4-1.6 3.2 0 .8 1.1.1 2.4-1.6 1.9-2.3 2.2-3.3 1.3-4.5-.6-.8-.1-.6 1 .5 1.2 1.1 2.4 3 2.8 4.2.5 1.9.3 2.2-1.1 1.6-1.2-.4-1.5-.3-1 .5 1 1.6 3.6 1.5 3.6-.1 0-.6-.6-2.4-1.4-3.9-1.9-3.6-.4-5 3.7-3.3 2.1.9 3.8 1 4.9.4 1.2-.6 1.8-.6 1.8.1 0 1-1.4 1.3-6.5 1.1-2.6-.1-2.7.1-1 .8 1.1.5 1.4 1 .8 1-.7.1-1.3 1.3-1.3 2.8 0 2.2.2 2.5 1 1.3.5-.8 1-1 1-.4 0 2.1-2.2 3.3-4.5 2.4-1.3-.5-2.6-.6-2.9-.3-.3.4-.6.1-.6-.6s-.5-.9-1-.6c-.8.5-.7 1.1.1 2.1.6.7 1.6 1.1 2.1.8.5-.3 1.6.2 2.4 1.2.9 1.1 1.2 1.2.8.4-.7-1.3-.5-1.3.8-.2 1.4 1.1 1.7 1 2.3-.7.3-1.2 1.1-2.1 1.6-2.1s.2 1.1-.7 2.5c-2 3.1-1 4.8 2.5 4.1 1.7-.5 2.1-.4 1.2.3-.7.5-1.2 1.4-.9 2.1.3 1 .7.9 1.9-.2 1.5-1.5 5.2-2.1 4.3-.6-.3.5-1 .6-1.5.3-.5-.4-.9.1-.9 1 0 1.1.5 1.5 1.5 1.1.8-.3 1.5-.1 1.5.4s.7.7 1.5.4c.8-.4 1.5-.1 1.5.6 0 .6.5.8 1.2.4s.8-.3.4.5c-.4.6-1.2.8-1.8.5-.6-.4-.8-.1-.6.7.3.8 1 1.3 1.6 1.2.6-.2.9.6.7 1.7-.2 1.2 0 1.8.5 1.5.5-.3 3.3 1.2 6.1 3.5 2.8 2.2 5.7 4 6.4 4 .8 0 1.7.5 2.1 1.2.5.7.3.8-.6.3-.9-.5-1.1-.4-.6.3.4.7 1.4 1.2 2.1 1.2.8 0 2.2 1.1 3.1 2.5.9 1.4 1.9 2.3 2.2 2.1.2-.3 1.1.2 1.9 1 .9.8 2.1 1.3 2.9 1 .7-.3 1.8.1 2.4.9.6.8 1.9 1.1 2.7.8 1-.4 1.4-.2 1 .4-.4.5.5 1.5 1.9 2.2 3.5 1.6 4.2 1.4 1.6-.5-2.3-1.6-2.9-3.4-1.1-3.4.5 0 .8.4.4.9-.3.5.8 1.6 2.4 2.4l2.9 1.4-1.5-3.5c-1.4-3.3-1.4-3.5.1-2.3.9.7 2.5 1.1 3.6.8 2.3-.6 2.4-.3 1 2.3-.8 1.6-.6 1.7 2.7 1.4 2.2-.2 4.4.2 5.3 1 .8.7 2.2 1.6 3 1.9 1 .4.8.6-.7.6-1.2.1-2.6-.6-3.1-1.4-.6-1.3-1.6-1.4-4.8-.6l-3.9.9 3.8.1c2 .1 3.7.5 3.7 1.1 0 .5 2.1 1 4.8 1 3.3 0 4.3-.3 3.2-1-.8-.5-1.1-1.2-.7-1.6.4-.4 1.3-.2 1.9.4.7.7 1.7 1.2 2.2 1.2.6 0 .3-.5-.6-1.1-2.2-1.2-2.3-2.6-.3-2.6.8 0 1.5.4 1.5.9s.4.7.9.3c.5-.3 1.6.2 2.4 1 .9.8 2.4 1.4 3.4 1.4 1.5-.1 1.5-.2.2-.6-2.7-.7-3.3-7.3-.7-7.3.7 0 .7.4 0 1.3-.6.7-.7 1.8-.3 2.5.6 1 1.3.8 3.2-.7 2.3-1.8 2.5-1.8 2.5-.1 0 1-.6 1.6-1.2 1.3-.7-.2-1.5 0-1.9.6-1 1.7 3.6 1.3 5.6-.5 1.3-1.2 1.9-1.2 2.5-.3.4.8.3 1-.4.5-1.3-.8-1.3-.8-1.5 4.9-.2 4 .2 4.3 3.6 3 1.3-.6 1.6-.3 1.1.9-.8 2 .3 2.1 2.1.2.8-.7 1.1-1.7.7-2.2-.4-.5.1-.2 1.1.5.9.7 1.7 2 1.7 2.7 0 .8.5 1.4 1.1 1.4.5 0 .7-.6.3-1.3-.4-.6.2-.4 1.3.5 2.1 2 4.3 2.4 4.3.8 0-.5-.7-.7-1.5-.4-.8.4-1.5.1-1.5-.6 0-.8.9-1 2.6-.6 2.3.6 2.6.4 2.1-1.3-.3-1.2-.1-2.1.4-2.1s.9.6.9 1.4c0 .7.7 1.9 1.5 2.6 1.3 1.1 1.8 1 2.9-.6.8-1 1.2-2.2 1-2.6-1-1.6 7-.7 8.8.9 1.6 1.4 2.3 1.5 3.8.5 1.1-.7 2.7-1.2 3.6-1.2 1.1 0 1.4-.5.9-1.8-.5-1.4-.4-1.5.6-.5.7.7 2 1.3 2.9 1.3 2 0 5.3-3.4 4.3-4.3-.3-.4.7-.7 2.2-.7 2.8 0 2.8-.1.9-1.6-1.2-1-1.4-1.4-.4-1.1 1 .2 1.9-.7 2.7-2.7 1.2-3 1.2-3 .9 1.6-.2 2.7.1 4.5.6 4.2.5-.3.8-1.3.7-2.2-.3-3 .1-3.3 2.1-2.2 1.4.7 2 .7 2 0 0-.5.3-.9.8-.9 2.1.4 3.1-.3 2.6-1.6-.4-.8.1-1.7 1-2.1.9-.3 1.4-.9 1.1-1.4-.2-.4.7-.5 2.1-.2 1.7.3 2.1.7 1.4 1.2-.8.5-.9 1-.2 1.4 1.6.9 2.6-3.3 1.2-4.9-1-1.2-.8-1.3.9-1 1.3.2 2.2-.3 2.6-1.6.5-1.5 1-1.7 1.9-1 .7.6 1.6.7 2.1.3.4-.4.2.4-.5 1.7l-1.2 2.3 2.6-1.8c3.1-2.3 3.3-3.4.7-3.4-1.1 0-2.3-.5-2.7-1.2-.4-.7-.3-.8.4-.4 1.2.7 9.2-3.9 10.5-6.1 1.2-2 2.6-.6 1.9 1.9-.5 1.9-.4 2 1 .8 1.4-1.3 1.4-1.7-.1-3.6-.9-1.2-1.9-2-2.2-1.8-.4.2-1.3-.4-2-1.4-1.1-1.4-1.1-1.5 0-.5 1.9 1.7 7.5-1.2 6.7-3.4-.7-1.8 3.3-6.3 5-5.6.7.2 2.3-.1 3.6-.8 1.3-.7 2.7-1.2 3.1-1.1.5.1.6-.2.2-.8-.4-.6-1.6-.8-2.8-.4-1.6.5-1.1-.4 1.9-3.4 3.9-3.9 5-6.6 1.5-3.9-1.4 1.1-1.4 1-.2-.6.8-1 2.2-1.6 3.2-1.4 1.2.3 1.5 0 1.2-1.4-.3-1.2 0-1.9.8-1.9 1.1 0 1.1-.2-.1-1-.8-.5-1.9-.6-2.5-.2-.6.4-.2-.1.8-1 1.1-1 2.6-1.8 3.4-1.8.8 0 1.1-.5.8-1-.5-.8-1.1-.8-1.9-.1-1.7 1.4-5.8 1-4.5-.5.5-.6.6-2 .2-2.9-.5-1.4-.3-1.7 1-1.2 1.9.7 2.2-1 .6-3.3-.9-1.3-1-1.2-.5.3.3 1.1.2 1.6-.4 1.2-1.3-.8-1.2-1.6 0-3.5.9-1.3 1.2-1.3 2.4.3.8 1 2 1.5 3 1.1 1.9-.7 1.7-2.5-.4-3.2-.8-.3-1 0-.5.8.5.9.4 1.1-.4.6-.6-.4-1-1.4-.9-2.1.2-.8-.1-1.3-.7-1.2-.5.1-.9.6-.7 1 .1.4-.7.3-1.8-.3-2.3-1.2-2.4-1.6-.8-2.6.7-.5.8-.3.3.6-.5.8-.3 1.1.6.8.8-.3 1.9-1.5 2.6-2.8 1.2-2.4 5.3-3.9 5.3-1.9 0 .5-.4.7-1 .4-1.4-.9-1.2.8.3 2.5 1 1.2.9 1.2-.6 0-1.4-1-2.1-1-2.9-.2-.9.9-.7 1.2 1 1.2 1.4 0 2.2.6 2.3 1.7 0 1.4.2 1.3.9-.4.5-1.2 1-3 1.2-4 .2-1 .8-2.2 1.3-2.6.6-.5.3-.7-.7-.3-2 .6-2.1.5-1.2-1.8.3-.9 1.1-1.3 1.8-.9.6.4.5-.1-.3-1-1.4-1.8-2.6-2.3-1.6-.8.3.5-1 1.5-2.9 2.2-1.9.7-3.2 1.7-2.9 2.2.3.5-.4.4-1.6-.3-1.8-.9-2-1.4-1-2.6 1-1.3.8-1.3-1.6-.4-1.6.6-3.5.8-4.2.6-.8-.3-1.1-.1-.8.4.3.6 1.5 1 2.5 1s2.2.5 2.6 1.1c.4.8-.1.9-1.7.3-2.8-.9-7.7-.7-9.4.4-.6.4-.3-.1.8-1 1-.9 2.5-1.4 3.4-1.1 1.1.4 1.4.2.9-.5-.3-.6.3-1.6 1.5-2.2 1.7-.9 2-.9 1.4 0-.5.8-.3 1.1.4.9.7-.3 1.2-.9 1.2-1.4-.1-1-.5-1.1-7.1-1.5-3-.2-2.6-.4 2-1.1 5.7-.8 9-.4 9 1.2 0 .5.5.9 1.1.9.5 0 .8-.4.5-.9-.4-.5-.3-1.1.1-1.4.5-.2.2-.2-.4-.1-.7.2-1.3-.3-1.3-1.1 0-.9.6-1.2 1.8-.9.9.3.6-.2-.8-1-2.7-1.6-2.6-1.6 3-2 2.1-.1 2.6-4.6.6-4.6-.9 0-1.7.8-1.7 1.7-.1 1.6-.2 1.6-.6.1-.2-.9-1.2-1.9-2.1-2.1-.9-.3-.2-.5 1.6-.6 2.2-.1 3.2-.6 3.2-1.7 0-.8-.4-1.3-.9-.9-.5.3-1.3 0-1.7-.6-.5-.8-.3-.9.6-.4 1 .6 1.2.3.8-1.3-.5-1.8-.2-2.2 2-2.2 2.5 0 2.5 0 .6-1.6-1.2-1-1.4-1.4-.4-1.1 1 .2 1.9-.7 2.7-2.7.7-1.8 1.2-2.4 1.2-1.4.1 1.1.9 1.8 2.1 1.8 2.7 0 3.6-.3 3.2-1.3-.1-.4.4-1 1.2-1.3 1.1-.4 1.3-1.2.5-3.1-1.4-3.7-1.3-3.8 4.1-3.9 5.4-.1 6.5 1.1 2.4 2.6-1.4.6-2.2 1.5-1.9 2 .4.6 1.1.7 1.7.4.7-.4.8-.2.4.5s-1.7.9-2.9.6c-1.7-.5-1.9-.4-.7.4.8.6 2.5 1.1 3.7 1.1 2.6 0 3.8 1.5 2.6 3.2-1.3 2-1 8.8.3 8.8.6 0 2.4-.7 4-1.5 3.1-1.6 4.3-1.3 2.6.7-.8 1 .6 1.3 7.1 1.2 4.6-.1 5.8.1 2.7.3-3 .2-6.2.6-7 1-.8.3-1.7.6-2 .5-1.1-.1-.5 4.4.7 5.6.8.8 1.3.9 1.3.3 0-.6 1.9-1.1 4.3-1.1 3.7 0 4.6.4 5.7 2.6 1.2 2.1 2 2.5 4.4 2.1l3-.4-2.3 1.8-2.3 1.9 2.8.1c2.1.1 2.3.3.9.6-1.1.3-2.6 1.2-3.2 2.1-1.1 1.3-.5 2.4 4.2 6.9 5.3 5.2 6.1 7.3 2.8 7.3-1.2 0-1.3-.3-.4-1.4 1-1.1.9-1.4-.1-1.2-.7.1-1.8.5-2.5.9-.7.5-.9.1-.6-1.3.6-2.1-1.6-3.6-3.9-2.7-.8.3-.3.9 1.2 1.5 1.6.7 1.9 1.1.9 1.1-.9.1-1.9.8-2.3 1.6-.3.8-1.3 1.5-2.3 1.5-1.5 0-1.6-.2-.3-1 1-.7 1.1-1 .2-1-.7 0-1.5.6-1.8 1.4-.3.8-1.4 1.2-2.7.9-1.6-.3-1.8-.2-.9.5 1.1.7 1.1 1-.2 1.5-.9.4-1.6.2-1.6-.3 0-.6-.8-1-1.7-1-1.1 0-.6.8 1.7 2.5 4 2.9 4.1 3 3.4 1-.4-.9 0-1.5 1-1.5.9 0 1.7.4 1.7 1 .3 2 .4 2.5 1.3 3.8.7 1.1.4 1.1-1.2.1-2.7-1.7-3.5-.8-2.4 2.2.5 1.3.6 3.3.1 4.4-.6 1.7-.8 1.6-.9-1-.2-1.7-.2-3.4-.1-3.8.1-.5-.8-1.1-2-1.4-1.6-.5-1.8-.8-.7-1.5 1-.8.9-.9-.4-.5-.9.3-2.4-.1-3.5-.8-2.4-1.9-3.9-1.9-2.3 0 .7.8 2 1.5 2.9 1.6.9.1.5.4-.9.8s-2.5 1.3-2.4 2.1c.1 3 1.7 7 2.6 7 .6 0 0 .9-1.3 1.9-2.4 1.9-3.9 1.9-3.9 0 0-.6.5-.7 1-.4.6.3 1 .1 1-.5 0-1-3-.6-7.6 1.1-1.3.5-2.6.3-3.3-.4-.9-.9-1.1-.8-.5.6.4 1.2 1.3 1.7 2.6 1.4 1.2-.4 1.8-.1 1.5.6-.3.7-1 1.1-1.6.9-.7-.1-1 .2-.6.8.3.6 1.2.7 1.8.3.6-.4 2.1-.8 3.4-.9 1.7-.2 2.3.3 2.3 1.6 0 1.1.8 2.4 1.8 2.9 1.1.7 1.2 1 .4 1.1-.8 0-2.3-1-3.4-2.3-1.1-1.2-1.8-1.8-1.5-1.2 2.8 6.7 3 8.5 1.1 8.5-.8 0-1.2.5-.9 1.1.4.6-.1 1.6-1.1 2.4-1.6 1.2-2.2 1.1-3.8-.3-1.1-.9-1.6-1.1-1.2-.5.4.7.2 1.3-.3 1.3-1.5 0-1.4-5.7.2-6.6.6-.4.9-.4.5.1-.5.5.1 1.4 1.2 2.2 1.2.9 1.7 2 1.3 3.1-.6 1.4-.4 1.5.9.4 1-.8 1.4-2.1 1-3.4-.3-1.4-.1-1.9.6-1.4.7.4 1.2.2 1.2-.4 0-.6-.8-.9-1.8-.6-1.2.4-2.6-.2-3.8-1.6-1.1-1.3-1.3-1.8-.4-1.3 2.2 1.4 5 1.6 5 .5 0-.6-.9-1.1-2-1.2-1.1 0-2.6-.1-3.2-.2-.7-.1-1.2.4-1.1 1.1.2.7-.6 1.7-1.7 2.3-1.1.6-1.9 1.4-1.6 1.8.3.4-.6.9-2 1-1.3.1-2.4-.3-2.4-.8 0-.9 1.1-1.3 3-1.2.3 0 1.1-.6 1.8-1.4 1.1-1.2.9-1.4-1.3-1.4-1.5 0-2.4.4-2 1 .3.5-.1 1-1 1-1.3 0-1.5 1.2-1.3 8.2.3 5.8.7 8.2 1.6 8.1.7-.2 1.2.8 1.2 2.3 0 1.4-.4 2.3-1 1.9-.5-.3-1 0-1 .7 0 1-.2 1-.9-.1-.6-.9-1.1-1-1.5-.2-.4.6-.4 1.5-.1 2.1.3.5.4 1 .1 1-.3 0-1-.9-1.6-2-.8-1.6-.8-2 .2-1.8 1 .2 1.3-1.9 1.5-8.5.1-6.9-.1-8.7-1.3-8.7-.8 0-1.4.7-1.4 1.6 0 .9.5 1.2 1.2.8.7-.5.8-.3.2.7-.4.8-.9 2-1 2.7-.3 1.7-.4 1.8-3.6 2.6-2 .4-2.6.2-2.4-.9.3-1.9 2.6-4.4 2.6-2.8 0 .6-.6 1.4-1.2 1.6-.7.3-.3.6.8.6 1.6.1 2.2-.5 2.2-2.4 0-1.3-.4-2.2-.9-1.9-.5.3-.9-.1-.9-.8 0-.9-.3-.9-1 .2-.5.8-1 1-1.1.5 0-.6-.7.6-1.4 2.5-1.1 2.9-1.4 3.1-1.4 1.2-.1-1.4-.5-2-1.2-1.7-.7.5-.5 1.5.6 3.2 1.5 2.3 1.5 2.6-.2 3.9-1.6 1.3-1.3 1.3 1.9 0 2-.8 3.9-1.2 4.2-.8.3.3.6 0 .6-.6 0-.7.5-1.2 1.2-1.2s.5.6-.4 1.7c-.9 1-1.9 2.8-2.2 4.1-.4 1.2-1.1 2.2-1.6 2.2-.6 0-.6-1 0-2.4.8-2.1.6-2.3-1.2-1.9-1.5.5-1.7.8-.6 1.4 1 .7 1.1.9 0 .9-.7 0-1.1.4-.7.9.3.5.1 1.2-.4 1.5-.5.3-1.2-.1-1.5-1-.8-2.1-2.6-.8-2.7 1.9 0 1.9-.1 2-.8.4-.4-1-1.1-1.8-1.6-1.8-.6.1-1-.3-1-.8s-.4-1.3-.9-1.8-.6-.3-.2.4c.4.7.3 1.3-.3 1.3s-1.6 1.1-2.3 2.4c-.7 1.4-1.7 2.6-2.3 2.8-.5.2-.9.6-.8 1 .2.4-.4.5-1.3.1-.8-.3-1.4-.2-1.3.3.5 2.7-.1 3.6-1.5 2.4-1.2-.9-1.7-.8-2.7.8-.7 1.2-1.9 1.7-3.1 1.4-1-.2-1.8.1-1.8.7 0 .7.4.9 1 .6.6-.3.7.1.4.9-.3.9-1.1 1.6-1.8 1.6-.6 0-.3.5.6 1.1 1 .5 1.5 1.6 1.1 2.5-.5 1.3-.7 1.3-1.7-.1-1-1.4-2.2-1.5-9.1-.6-.5.1-.3.6.5 1.1 1.1.7 1.1 1 .2 1-.7 0-1 .5-.7 1 .3.6.1 1-.4 1-.6 0-1.1-.6-1.1-1.3-.1-.8-.4-.7-1.3.3-1.9 2.3-5.3 4.8-4.3 3.1.6-.9.5-1.2-.5-.9-.8.3-1.3 1.2-1.3 2.1.1.9-.4 1.3-1.2 1-1.1-.4-1.2 0-.5 1.9.5 1.5.6 3 0 3.9-.7 1.1-.9 1.1-.9-.4 0-.9-.5-1.7-1.1-1.7-.7 0-.9 1-.5 2.7.4 1.6.7 3.6.7 4.5 0 1 .5 2.1 1.1 2.4.7.4.8.2.4-.4-.4-.7-.2-1 .7-.6 2.1.8 1.6 3.1-.6 2.9-1.5-.1-2.2-1-2.4-3.1-.3-1.6-1.2-3.8-2.1-4.8-1.3-1.5-1.3-1.7-.2-1.1 1.3.8 1.3.7 0-1-1.4-1.7-1.5-1.7-1.8 1-.2 1.8.2 3.3 1.2 4.1.9.6 1.6 1.7 1.6 2.5-.1 1-.4.9-1.1-.3-.5-1-1.5-1.8-2-1.8-.6 0-.8.4-.5.8.2.4-.4 1.4-1.6 2.1-1.6 1-1.9 1-1.2-.1.5-.7.9-1.8 1-2.4.1-.6.5-2.2.9-3.4.5-1.4.3-2-.3-1.6-.6.3-1.2 0-1.5-.6-.4-1-.7-1.1-1.8 0-1.1 1-1.1 1.2 0 1.2.8 0 .2.9-1.2 2-3.1 2.5-3.3 2.5-3.3 0 0-1.1.4-2 .8-2s.8.5.8 1.1c0 .5.5.7 1 .4 1.8-1.1-1-3.5-3.9-3.4-1.4 0-2 .3-1.3.6.6.2 1.2 1.8 1.2 3.5 0 2.7-.2 2.9-1.7 1.7s-1.6-1.2-1 .5c.6 1.6.5 1.7-.7.7-.8-.7-2-1-2.6-.6-.6.4-1.9.1-2.8-.6-1.4-1.1-1.5-1.1-.4.1 1.7 1.9 1.5 3.5-.2 2.1-1.1-.9-1.5-.9-1.9.1-.4.8-.6.6-.6-.5-.1-1.3-.7-1.6-2.5-1.3-1.8.3-2.3.1-1.9-1 .6-1.6.1-1.7-4.9-.5-2.1.5-3.6.5-3.3.1.3-.5-.8-.8-2.5-.8-1.7.1-3.5.8-4 1.7-.8 1.4-.9 1.4-1-.2 0-2.2-1.9-2.2-3.7 0-1.2 1.4-1.4 1.5-1 .2.4-1.2-.1-1.4-2.7-1.1-1.7.3-2.5.7-1.8.9 1.8.7 1.5 2.1-.8 2.8-1.1.4-1.8 1.1-1.5 1.6 1.1 1.7-.2.9-2.1-1.3-1.9-2.2-1.9-2.3.1-.8 1.9 1.4 1.9 1.4.6-.3-1.2-1.5-1.1-1.7.3-1.7.9 0 1.6-.5 1.6-1 0-1.2-3.5.4-4.5 2.1-.4.6-1.9.3-4.1-1-4.5-2.7-8.5-2.5-8 .4.2 1.1.1 1.4-.1.7-.3-.6-.9-1.2-1.4-1.2-.6 0-.7-.4-.4-1 .3-.6-.1-.7-.9-.4-1 .4-1.9-.1-2.3-1.2-.5-1.1-1.4-2-2.2-2.2-1.2-.3-1.2 0-.2 1.2.9 1.1.9 1.6 0 2.1-.6.4-1.5.2-1.9-.6-.7-1-1.1-1-2.4 0-.9.7-1.3 1.8-1 2.3.4.6 1 .5 1.6-.3.8-1.2.9-1.1.6 0-.2.8-1.9 1.6-3.6 1.7-3.7.3-3.8.1-1.5-2.2 1.5-1.4 1.5-1.8.2-2.8-.8-.6-2.2-2.5-3.1-4.1-1-1.8-2.5-2.9-3.5-2.8-1 .1-2-.3-2.4-.8-.3-.6-1.5-1.2-2.5-1.4-1-.2-2-.4-2.1-.5-.2-.2-.9-.3-1.5-.4-.7-.1-1.2-.7-1.1-1.4.2-.6-.4-.9-1.2-.5-1.2.4-1.3.8-.4 2 .7.7 1.7 1.2 2.3 1 1.3-.4 4.1 2.1 3.2 3-.3.3-.1 1.2.5 2 .9 1 .8 1.3-.1 1.3-.6 0-1.4-.9-1.7-2.1-.4-1.6-.8-1.7-1.4-.7-.5.7-.9.8-.9.2 0-2.2-4.8-6.3-6.8-5.9-1.2.2-2.6-.3-3.3-1.1-.6-.8-1.8-1.4-2.5-1.4-.8 0-1.4-1-1.4-2.4 0-1.6-.8-2.6-2.2-3.1-3.3-1-3.8-1.2-4-1.4-1.1-.8-5.8-.8-5.8 0 0 .6-.5.7-1 .4-.6-.4-.8-1.1-.4-1.6.3-.5 0-1.6-.6-2.4-1.1-1.3-1.6-1.2-4 .5-2.6 1.9-2.8 1.9-3.6.2-.4-.9-.6-2.1-.5-2.6.1-.5-.6-1.7-1.5-2.7-.9-1.1-1.3-1.9-.8-1.9.5-.1-.1-.9-1.4-2-1.3-1.1-3-1.6-3.9-1.3-1 .4-1.4.2-1-.4.4-.6 0-1.3-.8-1.6-1-.4-1.2-.1-.8 1.1.6 1.5.5 1.5-1 .3-.9-.7-1.7-.9-1.7-.3 0 .5-.7 1.3-1.6 1.6-.8.3-1.2.2-.9-.4.3-.6-.5-1-1.9-1-2.7 0-4.3-1.5-2.6-2.5.5-.3 1-.1 1 .4 0 .6 1 1.1 2.3 1.1 1.8 0 1.9-.2.7-1-1.3-.9-.7-1.4 1.3-1.1.4 0 .7-.9.6-2.2 0-1.2-.3-1.6-.6-1-.2.7-.9 1.3-1.4 1.3-.4 0-.6-.7-.3-1.5.4-1.1-.3-1.9-2.4-2.6-2-.7-3.3-2-4-4.2l-1-3.2-.1 4c-.1 2.7-.4 3.5-1 2.6-.5-.7-.6-2.1-.4-3.1.3-1.1-.4-2.4-1.7-3.3-1.5-1.1-1.8-1.6-.8-2 .9-.3-.2-2.1-3.3-5.3-8.9-9.3-10.5-11.2-12.3-13.9-1.3-2-2.1-2.4-2.9-1.6-1.8 1.8-2.4 1.3-1.9-1.8.4-3.2-4.1-11.1-6.4-11.1-1.2 0-1.2.4-.2 2 .7 1.1 1.6 2 2.1 2 .4 0 .5.5.1 1.1-.4.8-.9.7-1.6-.2-.7-1-.8-.8-.5.8.6 2.8-.9 3.1-1.6.3-.3-1.1-.1-2 .4-2s.9-.5.9-1.1c0-.5-.4-.7-1-.4-.9.5-1.2-.5-.9-3.3 0-.4.8-.6 1.7-.5 1 .1 1.1 0 .5-.3-.7-.3-1.3-1.2-1.3-2 0-.9-.4-1.3-.9-1-.5.3-1.2-.2-1.5-1.1-.6-1.5-.8-1.5-1.7-.3-.8 1.1-.9.8-.6-1.3.4-2.4.2-2.8-1.4-2.4-1.1.3-1.7.1-1.4-.3.3-.5-.3-1.4-1.2-2-1.6-1-1.5-1 .5-.5 2.5.7 2.6.6 1.2-3-.7-1.8-1.5-2.5-2.5-2.1-1.6.6-2.1-.9-.6-1.8.5-.4.4-1.6-.2-3-.8-1.6-1.4-2.1-1.9-1.3-.5.7-.8 0-.8-1.6 0-1.7-.9-3.7-2.2-4.9-1.3-1.1-1.7-1.7-1-1.3 1.7.9 1.5 0-1-4.8-1.2-2.3-2.1-4.5-2-5 .1-.4-.3-.7-.9-.7-.5 0-.7-.5-.4-1 .8-1.3-.1-1.3-2.6.1-1.4.7-1.8 1.6-1.4 3 .7 2 .6 2-1.4.3-1.5-1.3-1.8-2.1-1-3.1.6-.7 1.5-1 2-.7.5.3 1.2-.2 1.5-1 .3-.9 1.1-1.3 1.8-.9.6.3.6.1-.1-.8-.7-.7-1.3-1.7-1.3-2.2 0-.4.6-.5 1.3-.1.9.6.9.4-.1-.8-.7-.9-1.5-2.6-1.7-3.8-.8-4.1-1.6-5.5-4-7.2-2.4-1.8-6-1.4-4.8.5.3.6.1.7-.6.3-.6-.4-.9-1.2-.6-1.7.4-.5.2-.9-.3-.9-.6 0-1.3-.7-1.6-1.6-.5-1.3-.4-1.4.7-.6.8.7 1.7.9 2 .5.4-.3.7-.2.7.4 0 .6.9.9 2.1.6 2.1-.6 2.1-.7.3-2-1.5-1.1-1.6-1.6-.6-2.2 1.3-.8 1.4-1.7.9-7.4-.2-2.3-.4-2.5-1.3-1.2-.6.8-1.9 1.5-2.8 1.5-1.7 0-1.8 2-.1 3.2.6.5.6.8-.2.8-.6 0-1.5-.5-1.8-1-.4-.6-1.3-.3-2.3.8-1.3 1.5-2.3 1.7-4.2 1.2-2.3-.7-2.3-.8-.4-.9 2.3-.1 3.7-2.1 2.6-3.8-.9-1.2-4.4-2.7-6-2.4-2 .3-1.4-1.6.8-2.2 1.1-.3 2-1.1 1.9-1.9 0-1-.2-1-.6-.1-.2.7-.9 1.3-1.5 1.3s-.6-.6.2-1.5c1-1.2 1-1.5 0-1.5-.8 0-1-.3-.7-.6.4-.4 1.3-.2 2.1.5 2.2 1.8 6-3.3 4.4-5.9-.7-1-1.7-1.8-2.2-1.7-.6.1-1-.7-1-1.8s.5-1.9 1.2-1.7c1.9.3 1.4-2.6-.5-3.7-1-.6-1.3-1.1-.6-1.1.6 0 1.5.5 1.8 1 .4.6 1 .8 1.5.5 1-.6.8 1.5-.3 3.3-1 1.5.1 5.4 1.3 4.7.4-.3 1.3.2 2 1 1 1.2 1 2.4 0 5.9-.7 2.5-.9 5-.5 5.7.5.8.4 1-.3.5-.7-.4-1.2-.1-1.2.8 0 2 1.4 2 3 .1.7-.8 1.6-1.2 2.1-.9.5.3.9-.1.9-1 0-.8-.6-1.7-1.2-2-.9-.4-.8-.5.2-.5 3.2.2 3.9-.2 3.5-2.2-.6-3.1-1.5-3.6-2.9-1.6-2 2.7-2.9 2-1-.8.9-1.4 1.4-3.2 1-4-.3-.8-.1-1.5.4-1.5.6 0 1-.7 1-1.5s-.5-1.5-1.1-1.5c-.5 0-.8.4-.5.9.3.5-.1 1.4-.9 2.1-1.4 1.2-2 .7-1.6-1.4.1-.5-.5-.6-1.4-.2-1.3.4-1.4.2-.5-1.4.6-1.1 1.6-1.9 2.3-1.7.7.1 1.1-.4.9-1.1-.2-1.4 1.4-1.6 2.1-.2.3.6.4.5.3-.2-.2-.7-1.5-1.3-2.9-1.3-1.4.1-2.5-.2-2.5-.5.1-1.6-.3-3-.9-2.9-1.8.3-3.3-.2-3.3-.9 0-1 5.1-.9 6.7.1 1.7 1 2.8-1.4 1.2-2.4-.9-.6-1-1.2-.4-1.7 2-1.5 1.5-3.2-1.1-3.2-1.4 0-2.3-.4-1.9-1 .4-.6 1.1-.8 1.6-.5.5.3.6 0 .3-.8s.2-1.7 1.1-2c1.3-.6 1.3-1 .3-2.7-1.2-1.8-1.4-1.9-2.4-.5-.7.9-.9 2.6-.6 3.8.5 2 .4 2.1-1.1.8-1.4-1.1-1.5-1.7-.5-2.8.9-1.1.9-1.6 0-2.2-1.6-1-1.1-5 .6-4.4 1 .4 1.1.8.2 1.3-.8.5-.7.9.4 1.3.9.4 1.6.2 1.6-.4 0-.6.4-.8.8-.5.4.2.8-.4.8-1.4 0-1-.4-1.6-.8-1.4-.4.3-.8 0-.8-.5 0-.6-.8-1.1-1.7-1.1-1.5 0-1.6-.2-.3-1 .9-.5 1.9-.5 2.7.2 1.7 1.4 2.3.7 3-3.3.3-2.4 0-3.6-1.3-4.6-1-.7-1.4-1.3-.8-1.3.5 0 1-1.2 1.1-2.6 0-1.5.6-3 1.3-3.4.8-.5.5-.9-.9-1.3-1.4-.3-1.8-1-1.4-2.6.4-1.5.1-2.1-1.1-2.1-1.9 0-2.1 1.6-.3 2.4.9.4-3.2.1-5.3-.4-.3 0 .6-.7 1.9-1.4 1.7-.9 2-1.5 1.1-2.1-.6-.4-1.7-.2-2.3.4-.6.6-1.5 1.1-2.1 1.1-.5 0 .1-.9 1.4-2 1.9-1.7 2.4-1.7 3.6-.5 1.5 1.4 4.4 1 4.4-.6 0-.4-.7-.6-1.5-.3-.8.4-1.5.1-1.5-.5s.8-1.1 1.8-1.1c1.3 0 1.4-.2.3-.9-.9-.6-1-1.1-.2-1.5.6-.4.9-1.1.7-1.5-.3-.4.1-.8.9-.8s1.2.4.9.9c-.3.4 0 .8.6.8.7 0 .8.6.1 1.7-1.5 2.9-1.7 7.6-.4 8 .8.3 1.1-.5 1-2.4-.1-1.8.2-2.7 1-2.5 1.4.2 1.6-1.1.7-5.7-.4-1.9-1.1-2.8-1.8-2.4-.6.4.2-1 1.7-3s2.5-3.7 2.1-3.7c-.4 0 .1-.7 1.2-1.6 1.4-1.1 1.6-1.7.6-2.1-.9-.3-.4-1.2 1.6-2.7 1.6-1.1 2.8-2.9 2.6-3.8-.1-.9.9-2.9 2.3-4.4 1.3-1.4 2.2-2.9 1.9-3.1-.3-.3-.1-1.4.5-2.5.9-1.7.8-1.9-.9-1.4-1 .4-3 .2-4.3-.4-2.1-.9-1.9-.9 1.1-.4 2.8.4 3.2.3 2-.6-1.3-1-1.3-1.1.1-.7.9.3 2.6-.3 3.7-1.3s2.1-1.8 2.3-1.7c.2.1.3 0 .2-.2-.2-.2.2-1 .7-1.6.8-.9.1-1.4-2.7-1.8-2.4-.4-4-.2-4.6.6-.6.9-.7.8-.4-.3.3-1.1 1.6-1.4 5-1.2 4 .3 5.8-.5 4.5-2.1-.1-.1 1.7-2.1 4-4.5s4.2-4.7 4.2-5.2c0-.4.6-1.1 1.3-1.4 1-.5 1-.7 0-1.2-2.2-1-1.4-2.6.8-1.9 1.8.6 2.1.4 1.7-1.3-.4-1.6-.2-1.9 1-1.5.9.4 1.3.2.9-.4-.3-.5.7-2 2.3-3.2 1.7-1.2 2.9-2.5 2.9-2.9-.3-2 .3-3 2.6-4 2.7-1.2 2.5-3.6-.3-6-.9-.6-1.1-1.2-.5-1.2.6 0 1.6.6 2.2 1.4.9 1.1 1.9 1.2 4.1.4 4.1-1.4 5.4-3.2 4-5.7-.8-1.7-.7-2.4 1-4.1 1.1-1.1 2.5-2 3.1-2 .5 0-.3 1.1-1.8 2.4-2.6 2.3-2.7 2.5-.9 3.2 1.4.5 2.4.1 3.7-1.4.9-1.2 2.3-2.2 2.9-2.2.7 0 1-.7.6-1.6-.3-.8-.2-1.3.2-1 .4.2 1.7-.9 2.7-2.5 1.3-1.9 2.6-2.8 3.8-2.5.9.2 1.5 0 1.1-.5-.3-.5 0-.9.5-.9.6 0 1.1-.8 1.1-1.8 0-1.4.2-1.5 1-.2 1.1 1.6 1.2 1.1 1.2-3.5-.1-2 .1-2.4.5-1 .7 3 1.9 3.9 2.7 2 .4-1 .2-1.4-.6-.9-.7.4-.8.3-.4-.5.6-.9 1.1-.9 2.1-.1s1.5.8 2.1-.1c.4-.8.3-.9-.4-.5-1.8 1.1-1.4-1 .4-2.4.8-.8 1.4-.9 1.2-.4-.2.5 0 1 .5 1.1.4.2.7 0 .6-.4 0-.3.6-1 1.5-1.5s1.6-1.6 1.6-2.5c0-1.4.2-1.4 1.5.3 1.4 1.8 1.4 1.8.8-.4-.6-2.6-2.8-2.9-4.1-.6-.8 1.5-1 1.5-1.5 0-.4-1-.1-1.6.9-1.6 1.2 0 1.3-.4.4-2.1-.7-1.1-.9-2.3-.6-2.7.3-.3.6-.1.6.5s.8 1 1.8.8c.9-.1 1.1 0 .5.2-.7.3-1.3.9-1.3 1.4 0 1.3 2.2 1.1 4.3-.5 2.1-1.6 2.2-2.6.1-2.6-.8 0-1.2-.5-.9-1 .4-.7-.2-.9-1.8-.4-1.4.3-3.4.1-4.4-.5-1.5-.9-1.4-1 1-.5 1.5.3 3.3.2 4-.4.7-.5 2.1-.6 3.2-.1 1.1.4 1.4.8.6.8-2.1.1-.7 1.1 2.3 1.7 1.5.2 2.6 0 2.6-.6s-.4-.9-.9-.5c-.5.3-1.2.1-1.6-.5-.4-.6.8-1 2.9-1 2 0 3.5-.3 3.4-.8-.3-1.5 1.5-4.2 2.4-3.6.6.4.5 1-.3 1.4-1.8 1.2-2 4-.2 4 1 0 1.3-.6.9-1.8-.4-1.2-.1-1.1 1.3.6 1.2 1.3 2.2 1.8 2.6 1.2.3-.6 1.1-.7 1.7-.4.7.5.8.2.4-.7-.6-1-.4-1 .6.1 1.3 1.5 7.1 2.1 8.3.8.4-.4-.4-.5-1.8-.2-1.4.2-2.8 0-3.2-.6-.3-.5 0-.7.8-.4.8.3 1.9-.2 2.6-1 1.2-1.4 4.5-1.1 3.6.3-.2.4.6.7 1.7.6 1.2-.1 2.4-.7 2.6-1.5.3-.7 0-1-.5-.7-.5.3-1.5.2-2.3-.4-1.1-.6-.2-.9 2.8-.9 2.5 0 4.2.5 4.2 1.2 0 .6.3.9.6.5.3-.3.2-1.2-.2-1.9-.5-.7-.9-1.7-.9-2.3 0-.5-1.3-1.3-3-1.6l-3-.7 3.3-.1c2.8-.1 3.5.4 4.7 3.1.8 1.8 1.4 2.7 1.5 2 0-1.4 3-1.7 3-.2s1.9 1.2 3.7-.5c1.2-1.2 1.8-1.3 2.9-.4 1.1.9 1.5.8 2-.5.3-.9 1.5-1.6 2.5-1.6 1.1 0 2.3-1 2.8-2.2.5-1.4 1-1.7 1.5-1 .4.7 1.6 1.2 2.7 1.2s1.8-.4 1.4-.9c-.3-.5 0-1.3.6-1.7.8-.5.9-.3.4.5-.5.9-.2 1.2 1.1.9 1.1-.2 1.8-1 1.7-1.6-.2-.7.2-1.2.7-1.2.6 0 1-1.5 1-3.3 0-2.5.3-2.9 1.1-1.7.9 1.3 1.1 1.3 2.2-.2 1.4-2.1 3.7-.5 3.6 2.6zm-38.1.2c3.5 3.4 3.5 3.5.5 1.4-1.7-1.2-3.5-2-4-1.7-.5.3-1-.3-1-1.4-.2-2.6.3-2.4 4.5 1.7zm-7.9-.8c-1.5.2-3.7 1.5-5 2.9l-2.4 2.6 2.3-.6c1.2-.3 2-.1 1.6.4-.3.5-1.3.9-2.3.9-2.6 0-7.6 4.1-6.1 5 .7.5.5 1.4-.9 3.1-1.9 2.3-2 2.3-2.2.4-.2-2.6-.2-2.7.7-5 .7-1.8.6-1.9-1.2-.5-1 .8-.6.1.9-1.6 1.8-2 2.5-3.7 2.1-4.7-.4-1.1-.1-1.7.8-1.7 2.4 0 2.9 1.2 1.1 3.2-2.1 2.3 0 2.4 2.7.1 1.1-1 2-2.6 2-3.6s.4-1.6.8-1.3c.4.2 1.4.1 2.1-.3.7-.5 2.3-.6 3.5-.2 1.9.5 1.9.6-.5.9zm50.3 4.8c-.8 1.4-1 1.4-2.2-.1-1.1-1.3-1-1.5.3-.9 1.2.4 1.4 0 1.1-1.8-.5-2-.4-2.1.6-.6.7 1.1.8 2.4.2 3.4zm46.9-2.7c.7-1.1.9-1.2.9 0 0 .7-1.2 2.7-2.7 4.5-1.5 1.7-2.4 2.3-2 1.3.4-1 .7-2.3.7-2.8 0-.6.5-.7 1-.4.7.4.9-.2.7-1.7-.2-1.2-.2-1.7 0-.9.4 1.2.6 1.2 1.4 0zm-33.5 1.3c2.4 1.2 4.2 2.4 3.9 2.6-.3.3.3 1.5 1.2 2.6 1.7 2-1 0-5.5-4.1-1.3-1.3-3.1-1.8-8.2-2.6-1.9-.3-1.7-.5.9-.6 1.9 0 5.3.9 7.7 2.1zm47.5 1.1c-1 .9-1.1.8-.5-.6.3-1 .9-1.5 1.2-1.2.3.3 0 1.1-.7 1.8zm45.7 0c-.2.1-3.5 3.1-7.3 6.7l-7 6.5 7-7.5c3.9-4.1 7.2-7.1 7.4-6.7.1.5.1.9-.1 1zM197 72.6c0 .8-1.9 1.3-2.4.6-.3-.5.1-.9.9-.9s1.5.2 1.5.3zm66.1 1.2c-.7.2-1.8-.1-2.3-.6-.8-.8-.4-.9 1.3-.5 1.3.4 1.8.8 1 1.1zm-43.1.7c0 .1-1.2 1.1-2.7 2-2.8 1.8-2.8 1.8-1-.2.9-1.1 1.4-2.3 1-2.7-.4-.4 0-.4 1 0 .9.3 1.7.7 1.7.9zm15.1 0c2-.7 4.1.9 3.4 2.7-.4.9-1.5 1.8-2.7 2.1-1.8.5-1.9.4-.4-1.2 1.9-2 2-3.1.5-3.1-.5 0-.7.5-.3 1.1.5.8.1.8-1.4 0-1.2-.6-2.4-1.7-2.8-2.4-.6-.9-.4-.9.8.1.8.7 2.2 1 2.9.7zm-40.3 3c-.3.3-.9-.2-1.2-1.2-.6-1.4-.5-1.5.5-.6.7.7 1 1.5.7 1.8zm15.2 2.9c-.5 1.3-.7 2.7-.4 3 .2.3.1.4-.3.1-.8-.6-1.2-4.7-.6-5.8 1-1.8 2.2.5 1.3 2.7zm-21.3-.2c-.3.8-.6.5-.6-.6-.1-1.1.2-1.7.5-1.3.3.3.4 1.2.1 1.9zM295 80c0 .5-.5 1-1.1 1-.5 0-.7-.5-.4-1 .3-.6.8-1 1.1-1 .2 0 .4.4.4 1zm38.9-.7c-.2.1-1.3.9-2.4 1.7-1.9 1.4-1.9 1.4-.6-.3.7-.9 1.8-1.7 2.4-1.7.6 0 .8.1.6.3zM214.5 81c.3.5.2 1-.4 1-.5 0-1.3-.5-1.6-1-.3-.6-.2-1 .4-1 .5 0 1.3.4 1.6 1zm77.5 2.1c0 .5.5.7 1.2.3.7-.4.8-.3.4.5-.6.9-1.1.9-2.2 0-1.7-1.4-1.8-1.9-.4-1.9.6 0 1 .5 1 1.1zm22.6 2.3c-.9 1.8-1.6 2.3-2.1 1.6-.4-.6.1-1.9 1.1-2.9 2.5-2.4 2.8-2 1 1.3zm7.4.5c0 2.7-.5 4.1-1.6 4.5-1.4.5-1.5.4-.4-.9.7-.8 1-2.8.8-4.5-.3-1.6-.1-3 .4-3 .4 0 .8 1.8.8 3.9zm6-2.5c0 .2-.8 1-1.7 1.7-1.6 1.3-1.7 1.2-.4-.4 1.3-1.6 2.1-2.1 2.1-1.3zm31.7 1.1c0 .8-.7 1.5-1.4 1.5-.8 0-1.1.5-.8 1 .4.6 1.1.7 1.7.4.7-.4.8-.2.4.5-.4.6-1.1.9-1.6.6-.5-.3-1.1-.1-1.5.5-.4.6-1.1.8-1.7.4-.5-.4.2-1.8 1.8-3.5 3.2-3.4 3.1-3.3 3.1-1.4zM332.5 86c.4.6.3.9-.2.8-1.1-.3-5.6 2.2-6.5 3.6-.6.8-.8.8-.8-.1 0-.8 4.2-4.1 6.7-5.2.1-.1.5.4.8.9zm-171 1c.3.5.1 1-.4 1-.6 0-1.1-.5-1.1-1 0-.6.2-1 .4-1 .3 0 .8.4 1.1 1zm187.9 2.6c-.1 1.5.4 3.7 1.2 4.9 1.2 1.9 1.2 2.2 0 2.2-.8 0-1.5-.3-1.4-.6.2-2-.3-3.1-1.2-2.6-.6.3-.7-.1-.4-.9.8-2.1-.5-2-3.6.1-2.5 1.6-2.5 1.6-.8-.3 1.4-1.6 1.5-2.3.6-3.2-.9-.9-.9-1.2 0-1.2.7 0 1.2.4 1.2 1 0 .5.8 1 1.8.9 1 0 1.2-.3.4-.6-1.5-.6-.6-2.3 1.2-2.3.8 0 1.2 1 1 2.6zm-14.3 1.2c-.7.2-1.8-.1-2.3-.6-.8-.8-.4-.9 1.3-.5 1.3.4 1.8.8 1 1.1zm5.6-1.2c-.3.3-1.2.4-1.9.1-.8-.3-.5-.6.6-.6 1.1-.1 1.7.2 1.3.5zm-9.7 2c0 .8-.5 1.2-1 .9-.6-.4-.8-1.1-.5-1.6.9-1.4 1.5-1.1 1.5.7zM161 92c0 .5-.4 1-1 1-.5 0-1-.5-1-1 0-.6.5-1 1-1 .6 0 1 .4 1 1zm15 .6c0 .2-1.6.4-3.6.4-1.9 0-3.3-.4-3-.8.5-.8 6.6-.4 6.6.4zm186.5.4c-1.3 1.4-1.4 2-.5 2 .7 0 1.1.3.7.6-.3.3-1.1.3-1.7-.1-.8-.5-.6-1.3.6-2.6.9-1 1.9-1.9 2.2-1.9.3 0-.3.9-1.3 2zm-100.9.2c.4.6.3.8-.4.4-.6-.3-1.2.1-1.4 1-.3 1.5-.4 1.5-1.8-.1-.9-1.1-1-1.6-.2-1.1.6.4 1.2.2 1.2-.3 0-1.5 1.7-1.4 2.6.1zm21.9-.2c.3.5.1 1-.4 1-.6 0-1.1-.5-1.1-1 0-.6.2-1 .4-1 .3 0 .8.4 1.1 1zm-53.4 2.9c.9 2.6 1.2 2.8 3.4 1.7 1.4-.6 2.5-1.5 2.5-1.9 0-.5-.4-.5-1-.2-.5.3-1 .1-1-.4 0-1.3 1-1.4 2.7-.3.8.5.3 1.7-1.7 3.8l-2.8 3.2-1.2-2.4c-.7-1.3-1.7-2.1-2.1-1.8-.5.3-.6-.2-.2-1.1.3-1 0-2.1-.8-2.6-1.1-.7-1.1-.9-.1-.9.7 0 1.8 1.3 2.3 2.9zm14.1 1.1c-.2 1.6-.6 3-.8 3-.2 0-.4-1.4-.4-3 0-1.7.4-3 .8-3 .5 0 .7 1.3.4 3zm96.3-1.8c-.3.7-1.8 2.2-3.4 3.3-2.7 1.7-2.8 2-1.3 3.3 1.5 1.2 1.5 1.3.1.9-.9-.3-2.3 0-3 .6-1 1-1.1.9-.2-.3.6-.8.9-2.3.8-3.2-.2-.9.2-1.5.9-1.2.7.3 2.3-.7 3.6-2.1 2.6-2.8 3.2-3.1 2.5-1.3zm-72 .8c.3.5-.1 1-.9 1-.9 0-1.6.5-1.6 1.2 0 .6-.2.9-.5.6-.7-.7.5-3.8 1.5-3.8.5 0 1.2.4 1.5 1zm19.5 1c0 .5-.8 1-1.7 1-1.5 0-1.6-.2-.3-1 1.9-1.2 2-1.2 2 0zm70.4.5c-2.2 1.7-3.4 1.9-3.4.6 0-.5.8-1.2 1.8-1.4 3.2-.9 3.6-.7 1.6.8zm-195.7 1.7c-.3.8-.6.5-.6-.6-.1-1.1.2-1.7.5-1.3.3.3.4 1.2.1 1.9zm135.6-1.5c-.7.2-1.9.2-2.5 0-.7-.3-.2-.5 1.2-.5s1.9.2 1.3.5zm-40.5 1.5c-.2.6 1 1.8 2.7 2.7 1.8.8 2.5 1.6 1.7 1.9-.8.2-2.4-.6-3.8-1.9-2.5-2.4-3.1-3.9-1.4-3.9.6 0 .9.5.8 1.2zm94.8.3c-1 .8-2.4 1.2-3 .9-.6-.3 0 .4 1.4 1.5s2 2.1 1.3 2.1c-.6 0-1.8-.7-2.7-1.5-.8-.8-2.1-1.5-2.8-1.6-1.4-.1 4.9-2.7 6.7-2.8.6 0 .1.6-.9 1.4zm-231.1.5c-6.6.3-12.7.2-13.5-.2-.8-.4 4.6-.7 12-.6l13.5.2-12 .6zm132.9 3.2c-.7 2.2-.7 2.2-1.4.3-.4-1.1-.3-2.3.4-2.7 1.5-1 1.9-.3 1 2.4zm45.3 0c-.3.7-.5.2-.5-1.2s.2-1.9.5-1.3c.2.7.2 1.9 0 2.5zm8.1-.8c1.2 1.2 1 1.3-1.2.9-2.1-.4-2.6-.2-2.6 1.5 0 1.2-.4 2.3-.9 2.7-.6.3-.7-.9-.4-3.1.5-2.9.3-3.5-.7-2.9-.8.5-1.1.4-.6-.3.8-1.4 4.5-.7 6.4 1.2zm51.2-2c0 .2-.8 1-1.7 1.7-1.6 1.3-1.7 1.2-.4-.4 1.3-1.6 2.1-2.1 2.1-1.3zm-121.2 2c-.7.8-1.5 1.2-1.7 1.1-.5-.6 1-2.5 2-2.5.5 0 .4.6-.3 1.4zm147.6.1c-.4.8-1.3 1.5-2.2 1.5-1.3 0-1.2-.3.4-1.5 2.4-1.8 2.5-1.8 1.8 0zm-94.3 1c.5-.4.6.1.3.9s.2 2.5 1.1 3.8c1.7 2.3 1.7 2.3 1.2.1-.3-1.5-.1-2 .9-1.6 1.7.6 1.9 3.3.3 3.3-.8 0-.7.6.2 1.7.7 1 0 .6-1.6-.9-2.8-2.5-3.2-2.6-6-1.2-2.7 1.4-2.8 1.4-1.1 0 1.1-.9 2.4-1.6 2.9-1.6s.7-1.5.4-3.3c-.3-1.7-.3-2.6 0-1.9.2.6.9 1 1.4.7zm-87 2.8c-1 .9-1.1.8-.5-.6.3-1 .9-1.5 1.2-1.2.3.3 0 1.1-.7 1.8zm27.9-.8c0 .8-.4 1.5-1 1.5-.5 0-.7-.7-.4-1.5.4-.8.8-1.5 1-1.5.2 0 .4.7.4 1.5zm76.4 3.5c1 1.3.9 1.3-.9 0-1.1-.8-2.1-1.5-2.3-1.6-.1-.1.1-1 .5-2 .7-1.8.8-1.8 1.1.1.2 1.1.9 2.7 1.6 3.5zm-145.7-3.4c-.3.3-1.2.4-1.9.1-.8-.3-.5-.6.6-.6 1.1-.1 1.7.2 1.3.5zm-6.9 1.1c-1 .2-1.8.9-1.8 1.5s-.3.9-.6.5c-1-1 .6-2.7 2.4-2.6 1.5.1 1.5.2 0 .6zm130.9-.1c-.3.3-1.2.4-1.9.1-.8-.3-.5-.6.6-.6 1.1-.1 1.7.2 1.3.5zm14.1 2.4c1.1 1.8 1 1.9-1.3.8-1.3-.6-2.2-1.5-1.9-1.9.8-1.4 1.8-1.1 3.2 1.1zm70.7-1.5c-2.4.8-11.6 1.2-10.3.4.7-.5 3.6-.8 6.3-.8 2.8 0 4.6.2 4 .4zM238 109c0 .5-.2 1-.4 1-.3 0-.8-.5-1.1-1-.3-.6-.1-1 .4-1 .6 0 1.1.4 1.1 1zm-96.2 1.7c-1 .2-2.6.2-3.5 0-1-.3-.2-.5 1.7-.5s2.7.2 1.8.5zm21.2 1.2c0 .4-.6.8-1.3.8-.8 0-1.4-.6-1.4-1.3 0-.7.6-1 1.4-.7.7.3 1.3.8 1.3 1.2zm150-.9c0 .5-.5 1-1.1 1-.5 0-.7-.5-.4-1 .3-.6.8-1 1.1-1 .2 0 .4.4.4 1zm44.5 0c.3.5.1 1-.4 1-.6 0-1.1-.5-1.1-1 0-.6.2-1 .4-1 .3 0 .8.4 1.1 1zm-89 1c-.3.5-1.2.7-2 .3-2.1-.7-1.9-1.3.6-1.3 1.1 0 1.8.4 1.4 1zm-111.8.6c-.3.3-1.2.4-1.9.1-.8-.3-.5-.6.6-.6 1.1-.1 1.7.2 1.3.5zm31.1 1.4c-.7 1-1.4 1.7-1.7 1.5-.4-.4 1.8-3.5 2.5-3.5.2 0-.1.9-.8 2zm35.2.1c0 1.4-1.7 1-2.3-.5-.4-1-.1-1.3.9-.9.7.3 1.4.9 1.4 1.4zm79.7-1c-.9.6-1.4 1.5-1.1 2.1.4.6.3.9-.2.6-.5-.3-1.5 0-2.2.8-.8.9-.9 1.4-.2 1.4.6 0 .8.5.4 1.2-.5.8-.9.9-1.1.1-.2-.6-1.3-.9-2.3-.6-1.2.3-2 0-2-.6 0-.7.5-.9 1.1-.6.6.4 2.2-.3 3.5-1.6 2.3-2.1 2.3-2.4.7-3-1.2-.5-.7-.8 1.7-.8 2.9 0 3.2.1 1.7 1zm-124.9 2.8c2.3.7 3.2.6 3.2-.2 0-.9.2-.9.8-.1.4.7 1.6 1.4 2.7 1.7 1.6.4 1.5.5-.6.6-2.5.1-4.5 2.4-3.4 4 .2.4-.2.8-1 .8-1.1 0-1.2-.5-.4-2 1.2-2.1 1.2-2.2-1.8-3.1-1.3-.4-2.4-.2-2.9.5-.5.9-.2 1 .9.6 1-.3 1.7-.2 1.7.3 0 1.6-3.7 1.1-4.4-.6-.3-.8-.2-1.2.4-.9.6.3 1-.1 1-.9 0-1.9-.3-1.8 3.8-.7zm231.1.5c.9 1.1.7 1.5-.9 1.9-1.5.4-2 0-2-1.4 0-2.2 1.3-2.5 2.9-.5zm-215.9.7c0 1.4-1.6 1.8-4 1.2-2.2-.6-2.2-.7-.5-1.3 2.5-.9 4.5-.8 4.5.1zm114.5-.1c-2.8 1.2-5.7 1.2-5 0 .3-.6 2.1-1 3.8-.9 2.7 0 2.9.2 1.2.9zm45 1.8c-.3.3-1.1 0-1.8-.7-.9-1-.8-1.1.6-.5 1 .3 1.5.9 1.2 1.2zm5.5-1.4c0 .2-.8 1-1.7 1.7-1.6 1.3-1.7 1.2-.4-.4 1.3-1.6 2.1-2.1 2.1-1.3zm-129 2.1c-.7.9-1.5 1.3-1.7 1.1-.7-.7.7-2.6 1.9-2.6.6 0 .6.6-.2 1.5zm-88.5.5c-.3.5-1.1 1-1.6 1-.6 0-.7-.5-.4-1 .3-.6 1.1-1 1.6-1 .6 0 .7.4.4 1zm48.8 2.6c-.3.8-1 1.4-1.5 1.4-.7 0-.6-.5.1-1.3.8-1 .7-1.7-.2-2.7-1-1.2-.9-1.2.5-.1.9.7 1.4 1.9 1.1 2.7zm131.2-2.7c.3.6 1.5.8 2.8.6 2.1-.4 2.1-.3.3 1-1 .8-1.5 1.9-1.1 2.7.3.7 0 .5-.8-.5-1.5-1.8-3.2-2.4-2.2-.7.4.6-.1.7-1.1.3-1.5-.5-1.5-.7.2-1.6 1.7-1 1.7-1.1-.1-1.8-1.6-.6-1.7-.8-.3-.8.9-.1 1.9.3 2.3.8zm-29.5.6c0 .2-.9.9-2 1.5-1.2.6-2 .7-2 .1 0-.5.8-1.2 1.8-1.4.9-.3 1.8-.5 2-.6.1 0 .2.1.2.4zm16 1.1c0 .2-.9.4-2 .4s-2-.4-2-.9.9-.7 2-.4c1.1.3 2 .7 2 .9zm48.9 1.8c-.3.3-1.1-.5-1.8-1.7-1.3-2.1-1.2-2.1.5-.5 1 1 1.6 2 1.3 2.2zm28.4-1.9c.4.8.3 1.6-.1 1.9-.4.3-.9-.4-.9-1.5-.2-2.3.3-2.5 1-.4zm4.4-.9c-.3.3-1.2.4-1.9.1-.8-.3-.5-.6.6-.6 1.1-.1 1.7.2 1.3.5zm-28.4 4.6c-.2.5-.9.8-1.4.8-.6 0-.7-.5-.4-1 .3-.6.1-1-.4-1-.6 0-1.1-.8-1.1-1.7 0-1.5.2-1.4 1.9.3 1 1 1.7 2.2 1.4 2.6zm-235.2-1.5c1.3 1.6 1.2 1.7-.3.4-1-.7-1.8-1.5-1.8-1.7 0-.8.8-.3 2.1 1.3zm23.5.8c.2 1.1-.3 1.2-2.3.4-3.5-1.3-6.3-1.1-6.3.5 0 .8.6 1.7 1.3 1.9.6.3-.3.6-2.1.6-1.9.1-3.1.5-2.7 1.1.3.5.1 1-.4 1-.6 0-1.1-.4-1.1-1s-.9-.6-2.6.1c-1.5.5-2.9.7-3.2.4-.3-.3 0-.5.8-.5 1 0 1-.4-.1-1.7-1.2-1.5-1.2-1.5.4-.7 1 .6 3.1.8 4.8.6 2.6-.4 3.3-1.2 3-3.4 0-.3 2-.5 4.4-.4 2.5.1 4.5-.2 4.5-.7 0-1.5 1.3.1 1.6 1.8zm59.8 1c-1 .7-2.2 1.1-2.6.9-.4-.3-2.1.2-3.7 1.1-1.7.8-3.4 1.5-3.8 1.5-.4-.1.9-1 3-2.1 2.2-1.1 4.1-1.8 4.5-1.5.3.3 1.2-.4 2-1.6 1-1.4 1.7-1.7 2-.9.2.7-.4 1.8-1.4 2.6zm20.6-3.1c0 .3-.4.8-1 1.1-.5.3-1 .1-1-.4 0-.6.5-1.1 1-1.1.6 0 1 .2 1 .4zm166 0c0 .2-.8 1-1.7 1.7-1.6 1.3-1.7 1.2-.4-.4 1.3-1.6 2.1-2.1 2.1-1.3zm-242 1c0 .3-.4.8-1 1.1-.5.3-1 .1-1-.4 0-.6.5-1.1 1-1.1.6 0 1 .2 1 .4zm20.3 2.7c.4 1.6.3 1.9-.5 1.1-.8-.8-1.7-.8-3.2-.1-1.6.8-1.6.6.4-1 1.4-1.1 2.6-2.1 2.6-2.1.1 0 .4 1 .7 2.1zm2.7-1.1c0 .5-.2 1-.4 1-.3 0-.8-.5-1.1-1-.3-.6-.1-1 .4-1 .6 0 1.1.4 1.1 1zm-72.5 1c.3.6-.1.7-.9.4-1.8-.7-2.1-1.4-.7-1.4.6 0 1.3.4 1.6 1zm303.1 2.8c-1.6.2-3.2 0-3.7-.5s.7-.7 2.9-.4c3.4.5 3.5.6.8.9zm-208.7 4.5c-.2.3-1.5-1-2.8-2.7l-2.4-3.1 2.8 2.7c1.6 1.5 2.7 2.9 2.4 3.1zm222.8-4.7c-.3.3-1.2.4-1.9.1-.8-.3-.5-.6.6-.6 1.1-.1 1.7.2 1.3.5zM142.5 130c.3.5.2 1-.4 1-.5 0-1.3-.5-1.6-1-.3-.6-.2-1 .4-1 .5 0 1.3.4 1.6 1zm272.1-.1c-.3.5-1.5.7-2.6.4-2.8-.7-2.5-1.3.6-1.3 1.4 0 2.3.4 2 .9zm-287.6.5c0 .3-.4.8-1 1.1-.5.3-1 .1-1-.4 0-.6.5-1.1 1-1.1.6 0 1 .2 1 .4zm263.7.2c-.3.3-1.2.4-1.9.1-.8-.3-.5-.6.6-.6 1.1-.1 1.7.2 1.3.5zm-250.7.8c0 .9-4 1.3-4.6.5-.3-.5.6-.9 2-.9s2.6.2 2.6.4zm231 .6c0 .5-.2 1-.4 1-.3 0-.8-.5-1.1-1-.3-.6-.1-1 .4-1 .6 0 1.1.4 1.1 1zm-200.3 4.2c-.3.7-.5.2-.5-1.2s.2-1.9.5-1.3c.2.7.2 1.9 0 2.5zM412 134c0 .5-.5 1-1.1 1-.5 0-.7-.5-.4-1 .3-.6.8-1 1.1-1 .2 0 .4.4.4 1zm-213 3.2c0 1-.5 1.8-1.2 1.8-.6 0-.8-.3-.5-.7.4-.3.2-1.1-.3-1.8-.7-.8-.5-1.2.5-1.2.8 0 1.5.9 1.5 1.9zm-60.6.1c-.3.8-1 1.4-1.7 1.4s-1.8.2-2.6.4c-.7.2-1.6-.2-1.8-.9-.3-.7.1-1 1.1-.6.8.3 2.3.1 3.3-.5 2.3-1.3 2.3-1.3 1.7.2zm-17.4.1c0 .3-.4.8-1 1.1-.5.3-1 .1-1-.4 0-.6.5-1.1 1-1.1.6 0 1 .2 1 .4zm177.7.2c-.3.3-1.2.4-1.9.1-.8-.3-.5-.6.6-.6 1.1-.1 1.7.2 1.3.5zm36.2 3.5c-1.6 1-2.3.4-1.4-1 .3-.6 1.1-.8 1.7-.5.6.4.5.9-.3 1.5zm12.6-.2c.3.5.1 1.2-.5 1.6-.5.3-1-.1-1-.9 0-1.8.6-2.1 1.5-.7zm-9.6 2.4c.8 1.1.6 1.8-1.2 3.3l-2.2 1.9 1.8-2.2c1.9-2.2.8-4.1-1.5-2.7-.7.4-.8.3-.4-.4.9-1.6 2.1-1.5 3.5.1zm75.5.2c.3.8.1 1.5-.4 1.5-.6 0-1-.5-1-1.1 0-.6-1-.9-2.2-.7-1.3.2-2.2.9-2 1.6.1.8-.2 1.1-.8.7-.5-.3-1-1.3-1-2.1 0-2 6.6-1.9 7.4.1zm-286 1c-.4.8-.1 1.5.6 1.5.6 0 .8.4.5 1-.3.5-1.4 1-2.3 1-1.5 0-1.5-.2-.2-1 1.1-.7.5-1-2.5-1.1-3.4-.2-3.6-.3-1-.6 1.7-.3 3.4-.9 4-1.4 1.3-1.3 1.5-1.1.9.6zm268.1.5c.3.5-.1 1-1 1s-1.3-.5-1-1c.3-.6.8-1 1-1 .2 0 .7.4 1 1zm2.8.5c-.3.9-.8 1.4-1 1.1-.3-.3-.2-.9.2-1.5.9-1.6 1.5-1.3.8.4zM165 151c0 3.3-.3 6-.7 6-.5 0-.6-2.7-.5-6 .5-7.7 1.2-7.7 1.2 0zm226-3c-.9.6-.9.9.1 1.3.8.3.2.6-1.4.6-2.4.1-2.6-.1-1.5-1.8.6-1 1.8-1.7 2.6-1.4 1 .4 1.1.8.2 1.3zm-284.5 1c1 1.1 1.6 2 1.3 2-.3 0-1.3-.9-2.3-2-1-1.1-1.6-2-1.3-2 .3 0 1.3.9 2.3 2zm52.2-1.4c-.3.3-1.2.4-1.9.1-.8-.3-.5-.6.6-.6 1.1-.1 1.7.2 1.3.5zm-6.4 1.1c-1.3.2-2.3.8-2.3 1.3 0 .4-1 .5-2.2.2-2.3-.6-2.3-.6.2-1.3 1.4-.4 3.4-.7 4.5-.7 1.7.1 1.6.1-.2.5zm177.4-.1c-.3.3-1.2.4-1.9.1-.8-.3-.5-.6.6-.6 1.1-.1 1.7.2 1.3.5zm4.3 1.4c0 .5.8 1.1 1.8 1.3 1 .3.6.5-1 .6-1.6 0-2.8-.1-2.8-.3 0-.2-.3-1.2-.6-2-.5-1.2-.2-1.5 1-1 .9.3 1.6 1 1.6 1.4zm63-1.6c0 .2-.9.6-2 .9-1.1.3-1.8.1-1.4-.4.5-.9 3.4-1.3 3.4-.5zm2.7 2.2c-.3.3-1.2.4-1.9.1-.8-.3-.5-.6.6-.6 1.1-.1 1.7.2 1.3.5zm5.7.3c1.1.4 1.5 1 1 1.3-.5.2-2-.1-3.4-.8-2.6-1.4-.8-1.8 2.4-.5zm17.9-.2c-.7.2-1.9.2-2.5 0-.7-.3-.2-.5 1.2-.5s1.9.2 1.3.5zm-305.6 5.5c-.3.7-.5.2-.5-1.2s.2-1.9.5-1.3c.2.7.2 1.9 0 2.5zM421 154c1.8 1.2.2 1.2-2.5 0-1.3-.6-1.5-.9-.5-.9.8 0 2.2.4 3 .9zm-9.1 3.6c.2.2-.6.2-1.8.1-1.1-.1-2.3-.7-2.6-1.4-.4-1.1 0-1.1 1.8-.2 1.2.6 2.4 1.3 2.6 1.5zm-85.4-.6c-.3.5-1.2.7-2 .3-2.1-.7-1.9-1.3.6-1.3 1.1 0 1.8.4 1.4 1zM121 158c0 .5-.7 1-1.6 1-.8 0-1.2-.5-.9-1 .3-.6 1-1 1.6-1 .5 0 .9.4.9 1zm218 0c-1.1.7-1.1 1-.2 1 .7 0 1 .4.7 1-.3.5.1 1 .9 1 .9 0 1.6.4 1.6.8 0 1.5-2.4 3.2-4.4 3.2-1.8 0-1.9.2-.6 1.1 1.2.9 1.2 1 .1.7-2.3-.6-2.6-6.9-.5-8.5 1-.7 2.3-1.3 2.8-1.3.6 0 .4.5-.4 1zm-201 1.5c0 .8-.4 1.5-1 1.5-.5 0-1-.7-1-1.5s.5-1.5 1-1.5c.6 0 1 .7 1 1.5zm184.4 1c-.4.8-.7 1.5-.9 1.5-.2 0-.5-.7-.9-1.5-.3-.9 0-1.5.9-1.5s1.2.6.9 1.5zm88.6-1.2c0 .2-.9 1.2-1.9 2.1-1.4 1.3-2.1 1.4-2.7.5-.4-.7-.3-1 .3-.6s1.6 0 2.3-.8c1.2-1.4 2-1.9 2-1.2zm-83.3 1.3c-.3.3-1.2.4-1.9.1-.8-.3-.5-.6.6-.6 1.1-.1 1.7.2 1.3.5zm4.3 1.7c-1.4 1.2-3.6 3.3-4.9 4.7-1.3 1.4-2.1 2-1.7 1.3.3-.6 0-1.4-.6-1.7-.9-.3-.8-.5.2-.4.8.2 2.9-1.2 4.7-3 1.7-1.8 3.5-3.2 4-3.2.4 0-.3 1-1.7 2.3zm-22.4 1.5c-1 .2-2.2 0-2.8-.6-.6-.6 0-.7 1.9-.4 2.1.5 2.3.7.9 1zm93.7-.1c-.7.2-1.9.2-2.5 0-.7-.3-.2-.5 1.2-.5s1.9.2 1.3.5zm-86.6.9c-.3.3-1.2.4-1.9.1-.8-.3-.5-.6.6-.6 1.1-.1 1.7.2 1.3.5zm5 1c-.3.3-1.2.4-1.9.1-.8-.3-.5-.6.6-.6 1.1-.1 1.7.2 1.3.5zM152 170.4c0 .2-.7.7-1.6 1-.8.3-1.2.2-.9-.4.6-1 2.5-1.4 2.5-.6zm-17 2.8c0 1.9-.2 2-1 .8-1.3-1.9-1.3-3 0-3 .6 0 1 1 1 2.2zm21.7-1.6c-.3.3-1.2.4-1.9.1-.8-.3-.5-.6.6-.6 1.1-.1 1.7.2 1.3.5zm264.8.4c-.3.5-1.4 1-2.3.9-1.4 0-1.3-.2.3-.9 2.7-1.1 2.7-1.1 2 0zm-293.4 1.7c1.3 1.6 1.2 1.7-.3.4-1-.7-1.8-1.5-1.8-1.7 0-.8.8-.3 2.1 1.3zm14.5.4c1.9 2.1 1.9 2.1-.8.8-1.5-.6-2.5-1.6-2.2-2 .7-1.2.8-1.2 3 1.2zM154 173c.8.5 1.1 1 .5 1-.5 0-1.7-.5-2.5-1s-1-1-.5-1c.6 0 1.7.5 2.5 1zm7-.6c0 .2-.7.7-1.6 1-.8.3-1.2.2-.9-.4.6-1 2.5-1.4 2.5-.6zm-1 4.2c0 .2-.9 0-2-.6s-2-1.3-2-1.6c0-.2.9 0 2 .6s2 1.3 2 1.6zm177.3-1.9c-.7.2-1.9.2-2.5 0-.7-.3-.2-.5 1.2-.5s1.9.2 1.3.5zM113 176c0 .6-1.1 1.5-2.4 2.1-1.7.8-2.2 1.7-1.8 3.2.3 1.4.1 1.8-.7 1.3-.6-.4-.8-1.3-.4-1.9.4-.7-.1-.6-1 .2-1 .8-2 1.1-2.3.8-.3-.3-1.7-.2-3 .3-1.4.6-2.4.6-2.4.1s1.5-1.3 3.2-1.7c4.2-.9 9.8-3.5 9.8-4.6 0-.4.2-.8.5-.8s.5.5.5 1zm231.6.2c-.1.7-.6 1.5-1.1 1.7-.6.3-1.6 1-2.3 1.7-.7.7-2 1-2.8.7-1.2-.4-.9-.9 1.4-1.8 1.6-.7 3.3-1.8 3.6-2.4.9-1.5 1.5-1.4 1.2.1zm-216.9 2c-.3.8-.6.5-.6-.6-.1-1.1.2-1.7.5-1.3.3.3.4 1.2.1 1.9zm210-1.6c-.3.3-1.2.4-1.9.1-.8-.3-.5-.6.6-.6 1.1-.1 1.7.2 1.3.5zm-156.7.8c0 .9-3 1.4-3.5.6-.4-.6.3-1 1.4-1 1.2 0 2.1.2 2.1.4zm-14 3.2c0 .2-.9 0-2-.6s-2-1.3-2-1.6c0-.2.9 0 2 .6s2 1.3 2 1.6zm-30-1.2c0 .3-.4.8-1 1.1-.5.3-1 .1-1-.4 0-.6.5-1.1 1-1.1.6 0 1 .2 1 .4zm7.4 1.5c1.4 1.5 1.5 2.1.4 2.7-.7.4-1 .3-.5-.1.4-.5 0-1.7-1-2.7-.9-1-1.4-1.8-1.1-1.8.3 0 1.3.9 2.2 1.9zm-15.7 1.3c-.3.8-.6.5-.6-.6-.1-1.1.2-1.7.5-1.3.3.3.4 1.2.1 1.9zm49.5 6.5c.6.7 1.7 1.3 2.4 1.3.8 0 1.4.4 1.4.8 0 .5 2 2.3 4.5 4.1 2.4 1.8 4.4 3.7 4.2 4.3-.1.6.4 1.3 1.2 1.6.9.3 1.1 0 .6-.9-.5-.7.5-.3 2.2.9 1.7 1.2 3.6 2.2 4.3 2.2.6 0 .9.4.6.9-.3.5.1 1.4.9 2.1.8.7 1.5.9 1.5.4 0-.4.5-.3 1.2.4s2.6 1.3 4.3 1.3c2.7.2 2.7.2.5.6-1.4.3-2.8 1-3.1 1.5-.4.6-1.6 0-3-1.6-1.3-1.5-3.8-3.8-5.5-5.1l-3.1-2.4-.1 3.1c-.1 3.9-1.2 5-1.2 1.2-.1-3.3-2.3-6.1-9.5-11.9-2.8-2.1-5.3-4.3-5.6-4.8-.3-.5-.9-.9-1.2-.8-.3 0-2.3-1.6-4.4-3.6l-3.8-3.6 4.8 3.3c2.6 1.9 5.3 4 5.9 4.7zm163.8-6.6c3.1-.4 2.4.4-1.1 1.3-1.9.4-2.9.1-3.3-1-.4-1-.2-1.3.7-.7.6.4 2.3.6 3.7.4zm-247.3.5c-.3.3-1.2.4-1.9.1-.8-.3-.5-.6.6-.6 1.1-.1 1.7.2 1.3.5zm10.2.7c-.2.1-1.5 1.1-2.8 2.2-1.4 1.1-2.1 1.4-1.7.7.4-.7.2-1.2-.6-1.2-2.1 0 .7-1.5 3.3-1.7 1.2-.1 2-.1 1.8 0zm77.1 2.3c0 .2-.9 0-2-.6s-2-1.3-2-1.6c0-.2.9 0 2 .6s2 1.3 2 1.6zm140.6-1.2c1.8-.5 1.8-.5 0 .6-1.5 1-2.1.9-3.5-.6-1.4-1.6-1.4-1.7 0-.6.9.7 2.5 1 3.5.6zM95 185c0 .5-.2 1-.4 1-.3 0-.8-.5-1.1-1-.3-.6-.1-1 .4-1 .6 0 1.1.4 1.1 1zm35.3 1c-.6 2.3-1.9 2.6-2.6.6-.6-1.6.1-2.6 1.9-2.6.7 0 1 .8.7 2zm22.9 3.8c-1.5 1.1-1.7 1-2-.8-.2-1.2-1-2.4-1.8-2.7-.8-.3-1.4-.9-1.4-1.4 0-.4 1.5.2 3.4 1.4 3.1 2 3.3 2.3 1.8 3.5zm-84.6-3c-2.7.2-5.2 0-5.7-.5-.4-.4 1.8-.6 4.9-.3l5.7.5-4.9.3zm74.5-.1c1.3 1.6 1.2 1.7-.3.4-1-.7-1.8-1.5-1.8-1.7 0-.8.8-.3 2.1 1.3zm43.9 1.9c0 .8.3 1.3.8 1.1.4-.1.8.2 1 .8.8 2.2-1.6 1.3-3.6-1.4-2-2.8-2-2.9-.2-2.4 1.1.3 2 1.2 2 1.9zm218.8.6c4.1.1 4.3.2 1.2.5-1.9.3-4.3 1.3-5.2 2.3-1.5 1.6-1.5 1.9 0 3.6 1.6 1.7 1.6 1.7-.1.5-2.3-1.8-3.1-.8-1.8 2.1 1.1 2.1 1 2.1-.6-.2-1-1.4-2.8-3.5-4.1-4.7-1.3-1.2-1.9-2.4-1.3-2.7.5-.4 1.2-.2 1.6.4.8 1.3 5.2 1.3 6-.1.4-.6-.3-1.3-1.5-1.6-1.6-.4-1.8-.8-.8-1.4.7-.5 1.4-.4 1.6.1.2.6 2.5 1.1 5 1.2zm-301.8.7c0 .5-.7 1.2-1.6 1.5-1.4.5-1.5.4-.4-.9 1.4-1.7 2-1.9 2-.6zm16.7 2.2c-.9.6-1.3 1.7-1 2.9.4 1.5 0 2-1.3 2-1.5 0-1.6-.2-.5-.9 1.8-1.2.5-3.2-1.6-2.4-1.5.6-1.6.5-.3-.9.8-.9 1.7-1.2 2-.7.3.5 1.2 0 2-1.1.9-1.3 1.6-1.6 1.9-.9.2.7-.3 1.6-1.2 2zM131 191c0 1.1-.4 2-.9 2s-.7-.9-.4-2c.3-1.1.7-2 .9-2 .2 0 .4.9.4 2zm15.9 1.4c-.3.3-1.1-.5-1.8-1.7-1.3-2.1-1.2-2.1.5-.5 1 1 1.6 2 1.3 2.2zm197.1-2c0 .2-.7.7-1.6 1-.8.3-1.2.2-.9-.4.6-1 2.5-1.4 2.5-.6zm-9 1c0 .2-.7.7-1.6 1-.8.3-1.2.2-.9-.4.6-1 2.5-1.4 2.5-.6zm-203.3 4.8c-.3.8-.6.5-.6-.6-.1-1.1.2-1.7.5-1.3.3.3.4 1.2.1 1.9zm196 1c-.3.7-.5.2-.5-1.2s.2-1.9.5-1.3c.2.7.2 1.9 0 2.5zm90.6-1.8c1.7 1.3 1.7 1.4 0 2-1 .4-1.4.4-1 0 .4-.4-.1-1.3-1.1-2-.9-.7-1.2-1.3-.7-1.3.6 0 1.8.6 2.8 1.3zM88.5 197c.3.6-.1.7-.9.4-1.8-.7-2.1-1.4-.7-1.4.6 0 1.3.4 1.6 1zm34.9 3c-.6.5-2.4-2.1-2.4-3.4 0-.6.6-.1 1.4 1 .8 1 1.2 2.1 1 2.4zm-43.7-1.4c-.3.3-1.2.4-1.9.1-.8-.3-.5-.6.6-.6 1.1-.1 1.7.2 1.3.5zm6.4.3c-1.2.8-5.1.4-5.1-.5 0-.2 1.5-.4 3.3-.4 2.2 0 2.8.3 1.8.9zm46.6 1.3c-.3.8-.6.5-.6-.6-.1-1.1.2-1.7.5-1.3.3.3.4 1.2.1 1.9zm276.3-.1c0 .4-.7.6-1.5.3-.8-.4-1.5-1-1.5-1.5 0-.4.7-.6 1.5-.3.8.4 1.5 1 1.5 1.5zm-74-.7c0 .2-.7.7-1.6 1-.8.3-1.2.2-.9-.4.6-1 2.5-1.4 2.5-.6zm-201.3 5.8c-.3.7-.5.2-.5-1.2s.2-1.9.5-1.3c.2.7.2 1.9 0 2.5zM405 207c1 2.4 1.7 2.9 3.4 2.5 1.1-.2 1.5-.2.8.1-.6.3-.9 1.1-.6 1.6.4.7.2.8-.5.4-.6-.4-2.5-.1-4.1.8-2.6 1.2-3 1.2-3 0 0-.8.6-1.4 1.4-1.4 2.4 0 2.8-1.8 1.1-5.1-.9-1.7-1.2-2.9-.7-2.5.5.3 1.5 1.9 2.2 3.6zm-11 0c0 .5-.2 1-.4 1-.3 0-.8-.5-1.1-1-.3-.6-.1-1 .4-1 .6 0 1.1.4 1.1 1zm-257 1.5c0 .2-.7.5-1.5.9-.9.3-1.5 0-1.5-.9s.6-1.2 1.5-.9c.8.4 1.5.7 1.5.9zm218.4.7c-.6 2.1-.5 2.2 1.1.8 1.1-.9 1.6-1 1.1-.3-.4.7-1.6 1.7-2.6 2.3-1.8.9-1.8.8-.9-2 1.3-3.5 2.4-4.1 1.3-.8zm-235.7-.6c-.3.3-1.2.4-1.9.1-.8-.3-.5-.6.6-.6 1.1-.1 1.7.2 1.3.5zm21.8.4c.3.6-.1.7-.9.4-1.8-.7-2.1-1.4-.7-1.4.6 0 1.3.4 1.6 1zm-57 1.8c-.3.3-1.1 0-1.8-.7-.9-1-.8-1.1.6-.5 1 .3 1.5.9 1.2 1.2zm310.9-1c.3.5-.1.9-.9.9s-1.2-.4-.9-.9c.3-.4.7-.8.9-.8.2 0 .6.4.9.8zm-4.6 2c2.2 2.4 2.5 3.9.7 3.9-.8 0-1.2-.4-.9-.9.3-.5-.2-1.8-1.2-2.9-2.2-2.4-1-2.5 1.4-.1zm-29.2 2.3c-1.4 1.7-2.3 3.6-2 4.1.4.7.2.8-.4.4-.7-.4-1.3-.2-1.3.3-.1.6-.3 1.5-.4 2.1-.1.5-.3 1.4-.4 1.9 0 .5-1.5.3-3.1-.6-1.8-.8-2.7-1.9-2.3-2.6.5-.8.8-.7 1.1.1.3 1 .7 1 2 0 1.3-1.1 1.4-1.1.7.1-.5 1-.4 1.2.3.7.7-.4 1.2-1.2 1.2-1.9 0-1 5.9-7.7 6.8-7.7.2 0-.8 1.4-2.2 3.1zm5.4-2.1c0 .5-.4 1-1 1-.5 0-1-.5-1-1 0-.6.5-1 1-1 .6 0 1 .4 1 1zm-45 .4c0 .2-.8 1-1.7 1.7-1.6 1.3-1.7 1.2-.4-.4 1.3-1.6 2.1-2.1 2.1-1.3zm59.6 5c.6 2.6.5 2.7-1.5 1.7-2.5-1.4-2.8-2.3-.5-1.4 1.4.5 1.4.2-.1-2.8-1.4-2.8-1.4-3.1-.2-1.9.9.8 1.9 2.8 2.3 4.4zm-298-2.2c-.9.5-1.4 1.3-1.1 1.9.3.5 1.8.1 3.3-.9 1.4-.9 2.3-1.1 1.9-.5-.5.9-.2 1.3.8 1.3.9 0 1.3.4 1 1-.3.5-.2 1 .3 1 .6 0 1.3.7 1.6 1.6.5 1.4.4 1.5-.8.4-1.3-1-1.8-.9-3 .3-.8.8-1.2 1.8-.8 2.2.4.5.2.5-.5.2-.8-.5-1.1.3-.9 2.8.2 1.9-.1 3.2-.6 2.9-.5-.3-.7-1.2-.4-2 .3-.8 0-1.1-.9-.7-1 .3-1.2 1-.6 2.2.6 1 .6 2.3 0 3.2-.6 1-.9.6-.9-1.6l-.1-3-1.5 3.5c-1.1 2.6-1.7 3.1-2.4 2-.6-1 .7-3.1 4.6-7.5 5.2-6 6.7-8.4 4.2-6.9-.7.4-.8.3-.4-.4s.3-1.2-.3-1.2c-.5 0-1.3.4-1.6 1-.4.6-1.3.5-2.5-.3-1.6-.9-2.4-.9-4 .1-1.2.7-2 .8-2 .2 0-.6 1.4-1.3 3.1-1.7 1.7-.3 3.3-1.2 3.6-1.9.3-.8 1-1.1 1.5-.8.6.4.4 1-.6 1.6zm47.4-.9c0 .2-1 1.2-2.2 2.3l-2.3 1.9 1.9-2.3c1.8-2.1 2.6-2.7 2.6-1.9zm222.8 2.2c-.3.3-.9-.2-1.2-1.2-.6-1.4-.5-1.5.5-.6.7.7 1 1.5.7 1.8zm33.2-.2c1-.3.9 0-.3.7-2.1 1.3-3.7.5-3.7-1.8.1-1.5.2-1.6 1.3-.1.7.9 1.9 1.4 2.7 1.2zm-291 .2c-.1.5-1.1.8-2.3.7-3.5-.6-3.9-1.7-.6-1.7 1.6 0 2.9.4 2.9 1zm222-1.1c0 .2-.8 1-1.7 1.7-1.6 1.3-1.7 1.2-.4-.4 1.3-1.6 2.1-2.1 2.1-1.3zm79.5 3.9c1.9.4 1.9.5-.1.6-1.2 0-2.8-.7-3.5-1.7-1.2-1.5-1.2-1.6.1-.6.8.7 2.4 1.4 3.5 1.7zm-83.5-.9c0 .2-.8 1-1.7 1.7-1.6 1.3-1.7 1.2-.4-.4 1.3-1.6 2.1-2.1 2.1-1.3zm70.9 2.2c.4-.3 1.3 0 2.1.5 1.2.8.9.9-.9.7-1.4-.2-2.6-.9-2.7-1.6-.1-.7 0-.8.3-.2.2.5.8.8 1.2.6zm-76.3 4.1c-1.8 3.3-2.1 2.6-.6-1.3.6-1.5 1.3-2.4 1.6-2.1.3.3-.1 1.8-1 3.4zm92.9 1.1c-.6.7-3.2-1.1-4.4-3-1.2-2-1.1-2 1.7.3 1.6 1.3 2.8 2.5 2.7 2.7zm-271.2 0c-1 1-2 1.7-2.2 1.6-.6-.5 2-3.4 3-3.4.5 0 .1.8-.8 1.8zm221.4.4c-.3.8-.6.5-.6-.6-.1-1.1.2-1.7.5-1.3.3.3.4 1.2.1 1.9zm-242-.6c-.3.3-1.2.4-1.9.1-.8-.3-.5-.6.6-.6 1.1-.1 1.7.2 1.3.5zm263 1.6c-.3.8-.6.5-.6-.6-.1-1.1.2-1.7.5-1.3.3.3.4 1.2.1 1.9zm-26.6 2.5c-1.2 2-1.4 1.4-.5-1.2.4-.9.9-1.4 1.1-1.1.3.2 0 1.3-.6 2.3zm4.6 1.5c-.3.7-.5.2-.5-1.2s.2-1.9.5-1.3c.2.7.2 1.9 0 2.5zm23 0c-.3.8-.6.5-.6-.6-.1-1.1.2-1.7.5-1.3.3.3.4 1.2.1 1.9zm-265.2.6c-.3.3-1.1 0-1.8-.7-.9-1-.8-1.1.6-.5 1 .3 1.5.9 1.2 1.2zm4-.8c-.3.5-1.1 1-1.6 1-.6 0-.7-.5-.4-1 .3-.6 1.1-1 1.6-1 .6 0 .7.4.4 1zm21 2c1 1.1 1.6 2 1.3 2-.3 0-1.3-.9-2.3-2-1-1.1-1.6-2-1.3-2 .3 0 1.3.9 2.3 2zm-10.1.5c-.4.8-1.1 1.2-1.6.9-.6-.4-.5-1 .3-1.5 1.9-1.2 1.9-1.1 1.3.6zm221 .8c-.3.8-1.2 1.8-2 2.1-1.1.4-1 0 .3-1.8 2-2.6 2.7-2.8 1.7-.3zm5.3 1.9c-.3.7-.5.2-.5-1.2s.2-1.9.5-1.3c.2.7.2 1.9 0 2.5zm-268.6.5c-1.2 2-1.4 1.4-.5-1.2.4-.9.9-1.4 1.1-1.1.3.2 0 1.3-.6 2.3zm45.4-.7c1 1.1 1.4 2 .9 2-.5 0-1.5-.9-2.2-2-.7-1.1-1.1-2-.9-2 .2 0 1.2.9 2.2 2zm247.5 2.7c-1.1 1.7-1.1 1.7-.6 0 .3-.9.1-1.7-.5-1.7-.5 0-.4-.6.3-1.4 1.1-1.2 1.4-1.2 1.6 0 .2.7-.2 2.1-.8 3.1zM78 236c0 .5-.2 1-.4 1-.3 0-.8-.5-1.1-1-.3-.6-.1-1 .4-1 .6 0 1.1.4 1.1 1zm58.5.9c.3.5.1 1.2-.5 1.6-.5.3-1-.1-1-.9 0-1.8.6-2.1 1.5-.7zm242.2-.3c-.3.3-1.2.4-1.9.1-.8-.3-.5-.6.6-.6 1.1-.1 1.7.2 1.3.5zM85 239.4c-1.1 2.9-.2 4 1.8 2.3 1.3-1.1 1.4-.9.1 1-.8 1.3-1.7 2.3-2.2 2.3-.4 0-.5-.5-.2-1 .3-.6.1-1-.4-1-1.3 0-1-4.2.4-5.2 1.5-1.1 1.5-1 .5 1.6zm-14 0c0 .2-.8 1-1.7 1.7-1.6 1.3-1.7 1.2-.4-.4 1.3-1.6 2.1-2.1 2.1-1.3zm8.8 1.9c-.5 3.7-9 14.8-10.1 13.1-.3-.5 1.6-3.2 4.1-5.9 2.6-2.8 4.8-5.6 4.8-6.3.2-2.5.4-3.2.9-3.2.3 0 .4 1 .3 2.3zm10.2-1.4c0 .5-.9.7-2 .4-1.1-.3-2-.7-2-.9 0-.2.9-.4 2-.4s2 .4 2 .9zm17.5.1c-.3.5.1 1 .9 1 .9 0 1.6.4 1.6 1 0 .5-.7 1-1.6 1-1 0-1.4.6-1.1 1.4.4 1 .1 1.3-.8.9-1-.3-1.2-1-.6-2.1.4-1 .6-2.3.4-3-.3-.6 0-1.2.7-1.2.6 0 .8.4.5 1zm241.2 2.7c-.3 1-.5.4-.5-1.2 0-1.7.2-2.4.5-1.8.2.7.2 2.1 0 3zm-272-.1c-.3.3-1.2.4-1.9.1-.8-.3-.5-.6.6-.6 1.1-.1 1.7.2 1.3.5zm11.8 3.4c.3.5.1 1-.4 1-.6 0-1.1-.5-1.1-1 0-.6.2-1 .4-1 .3 0 .8.4 1.1 1zm254.9 7.9c-4.5 4.2-4.6 4.3-1 .5 3.5-3.9 3.7-4.3 1.9-5.4-1.6-1-1.6-1.1.5-.7 1.7.4 2.2 0 2.3-1.6.2-2 .2-2 .6.2.4 1.9-.6 3.4-4.3 7zM96 250c0 .5-.2 1-.4 1-.3 0-.8-.5-1.1-1-.3-.6-.1-1 .4-1 .6 0 1.1.4 1.1 1zm.1 3.7c1.3 1.6 1.2 1.7-.3.4-1-.7-1.8-1.5-1.8-1.7 0-.8.8-.3 2.1 1.3zM77 255c0 .5-.7.7-1.5.4-.8-.4-1.5-.8-1.5-1 0-.2.7-.4 1.5-.4s1.5.4 1.5 1zm39.5 1c-.3.5-1.2 1-1.8 1-.7 0-.6-.4.3-1 1.9-1.2 2.3-1.2 1.5 0zm-31.1 1.3c.4-.4.4 0 .1.9-.4 1.1 0 1.8 1.2 2.1 1 .3.5.5-1.3.6-2.1.1-3.4-.5-3.8-1.5-.5-1.4-.4-1.5.9-.4 1.8 1.5 2 0 .3-2-1.1-1.2-1-1.2.3-.2.9.6 1.9.9 2.3.5zm-5.9 1.6c-.3.5.5 1.7 1.7 2.5 1.2.9 1.7 1.6 1.1 1.6-.6 0-1.6-.7-2.3-1.5-.7-.9-2-1.3-2.9-1-1.1.3-1 0 .3-1 2.3-1.7 3-1.9 2.1-.6zm36.9.7c.3.8.2 1.2-.4.9-.6-.3-1-1-1-1.6 0-1.4.7-1.1 1.4.7zm-3.7 2.3c-.1 1.2-.6 1.7-1.5 1.4-1-.5-1.1-.8-.2-1.3.7-.5.9-1.3.5-2-.5-.8-.4-1.1.3-.6.6.3 1 1.5.9 2.5zm-37.7-.5c0 .2-.7.7-1.6 1-.8.3-1.2.2-.9-.4.6-1 2.5-1.4 2.5-.6zm-8.9 5.9c-.6.8-.8 1.7-.4 2 .3.4-.3.7-1.3.7-2.1 0-8.8 6.2-7.9 7.3.3.4 0 .3-.6-.2-.8-.7-.1-1.9 2.3-3.9 7.7-6.8 10.3-8.7 7.9-5.9zm42.5 3.6c-.3.5.1 1.2 1 1.5.9.4 1.4.9 1.1 1.3-.4.3-.2 1.5.4 2.5.9 1.6.8 1.9-.3 1.5-.7-.2-1.2-.9-1.1-1.5.1-.5-.4-1.6-1.2-2.2-1.7-1.4-2-4-.4-4 .5 0 .8.4.5.9zM82 281.4c0 .2-.8 1-1.7 1.7-1.6 1.3-1.7 1.2-.4-.4 1.3-1.6 2.1-2.1 2.1-1.3zm54.5 3.3c-1.6.3-3.7 1-4.5 1.6-1.3 1-1.3 1-.1-.6.8-1 2.5-1.6 4.5-1.6l3.1.2-3 .4zm-59.1 2.8c-.9 1.4-1.8 2.5-2.1 2.5-.5 0 .5-1.8 2-3.8 1.7-2.2 1.8-1.3.1 1.3zm45.8-.6c.3.1.4 1 .1 2.1-.5 1.8-.7 1.9-1.7.5-.6-.8-2.5-2-4.1-2.5-2.8-.8-2.7-.9 1-.5 2.2.2 4.3.4 4.7.4zm-25.2.5c0 .2-.8 1-1.7 1.7-1.6 1.3-1.7 1.2-.4-.4 1.3-1.6 2.1-2.1 2.1-1.3zm15.5.6c.4.6 1 .8 1.5.5.5-.3 1.1-.2 1.4.3.3.5-.9.7-2.7.6-4-.2-4-.2-3.2-1.4.8-1.3 2.2-1.3 3 0zm-23.8 4.2c-.3.8-.6.5-.6-.6-.1-1.1.2-1.7.5-1.3.3.3.4 1.2.1 1.9zm31.6 2.3c-.3.8-1 1.5-1.5 1.5-.7 0-.6-.5.1-1.3.6-.8.7-1.8.3-2.2-.4-.5-.2-.5.5-.1s1 1.3.6 2.1zm-32.4 3.7c-.1 2.4-.3 3.5-.6 2.5-.4-1.4-1.1-1.7-3.1-1.3-2.2.5-2.4.4-.9-.4.9-.6 1.5-1.5 1.2-2.1-.3-.5.1-.6.9-.3 1.1.4 1.6 0 1.6-1 0-.9.2-1.6.5-1.6s.4 1.9.4 4.2zm13 2.2c-1 3.5-1.9 4.5-1.9 2.3 0-1-.6-1.7-1.2-1.7-.7 0-.5-.5.6-1.1 1.4-.9 1.5-1.3.6-1.9-.7-.4-.9-1.3-.6-1.9 1.4-2.2 3.4 1.2 2.5 4.3zm-9.4-3.4c-.3.5-1.2 1-1.8 1-.7 0-.6-.4.3-1 1.9-1.2 2.3-1.2 1.5 0zm353.9 1.8c.8 1.3-.9 3.1-4.7 5.1-4.7 2.4-4.7 1.9.1-1.5 2.7-1.9 3.1-2.5 1.5-2.1-2.7.6-3.1-.9-.5-1.6 2.8-.7 3.1-.7 3.6.1zm-309.9 6.5c.4-.5.5-.3.2.3-.7 1.1 5.8 7.9 8.3 8.6.9.3 1 .7.3 1.1-.6.4-3.4-1.7-6.2-4.5-5.4-5.4-6.7-6-14.1-6.2-4-.1-4.5.1-4.5 2.1 0 1.3-.3 2.2-.6 2-.3-.1-1.2.3-2 1-1.2.9-1.4.5-1.5-2.5-.1-2.1 0-2.9.3-2 .2 1 .9 1.8 1.5 1.8.5 0 .7-.7.4-1.6-.3-.8-.2-1.2.4-.9.6.3 1 .1 1-.4 0-.7 2.3-1.1 5.6-1.1 5.2 0 5.5-.1 4.3-1.8-.7-.9.3-.2 2.2 1.6 1.9 1.8 3.9 2.9 4.4 2.5zm-41.1-2.8c-.7 1.8-2 1.9-3 .3-.4-.6-.3-.8.4-.4.6.3 1.3.2 1.7-.4.9-1.5 1.5-1.2.9.5zm9.6-.5c0 .5-.4 1-1 1-.5 0-1-.5-1-1 0-.6.5-1 1-1 .6 0 1 .4 1 1zm13.8-.5c-1.1 1.1-6 1.6-5.3.5.3-.5 1.8-1 3.2-1 1.5 0 2.4.2 2.1.5zm284.5 1.2c-.3.7-1.3 1.3-2.2 1.2-1 0-1.1-.2-.3-.6.6-.2 1-.8.8-1.2-.3-.4.1-.8.8-.8.8 0 1.2.6.9 1.4zm36.7-1.3c0 .2-.8 1-1.7 1.7-1.6 1.3-1.7 1.2-.4-.4 1.3-1.6 2.1-2.1 2.1-1.3zm-40.5 3.6c.4.6-.6 1-2.2 1-2.2 0-2.5-.2-1.3-1 1.9-1.2 2.7-1.2 3.5 0zm36.5-.6c0 .2-.8 1-1.7 1.7-1.6 1.3-1.7 1.2-.4-.4 1.3-1.6 2.1-2.1 2.1-1.3zm-343.6 2.1c-2.5 1.9-3.8 1.9-2.2 0 .7-.8 1.9-1.4 2.7-1.5 1.1 0 .9.4-.5 1.5zm13.8.2c-1 .4-1 .8-.1 1.9.9 1.1.7 1.4-.9 1.4-1.2 0-2.4-.4-2.7-1-.3-.6.1-.7 1-.4.9.4 1.5.3 1.4-.2-.3-1.7.1-2.4 1.4-2.3.9 0 .9.2-.1.6zm287.8-.3c0 .2-.7.6-1.5 1-.8.3-1.5.1-1.5-.4 0-.6.7-1 1.5-1s1.5.2 1.5.4zm-14 2.1c0 1.1-2.9 1.1-3.3.1-.4-1 .1-1.2 1.4-.9 1 .3 1.9.7 1.9.8zm-284.9 2.2c-1.2 2-1.4 1.4-.5-1.2.4-.9.9-1.4 1.1-1.1.3.2 0 1.3-.6 2.3zm295.9-1.1c0 .2-.7.4-1.5.4s-1.5-.4-1.5-1c0-.5.7-.7 1.5-.4.8.4 1.5.8 1.5 1zm-301-.2c0 .2-.8 1-1.7 1.7-1.6 1.3-1.7 1.2-.4-.4 1.3-1.6 2.1-2.1 2.1-1.3zm302.6 2.5c-.3.5-1.5.7-2.6.4-2.8-.7-2.5-1.3.6-1.3 1.4 0 2.3.4 2 .9zm37.4-.5c0 .2-.8 1-1.7 1.7-1.6 1.3-1.7 1.2-.4-.4 1.3-1.6 2.1-2.1 2.1-1.3zm-343 2c0 .2-.8 1-1.7 1.7-1.6 1.3-1.7 1.2-.4-.4 1.3-1.6 2.1-2.1 2.1-1.3zm6.1 2.3c-1.2 2-1.4 1.4-.5-1.2.4-.9.9-1.4 1.1-1.1.3.2 0 1.3-.6 2.3zm315.8 1c-1.2 2.1-2.6 4.5-3.2 5.3-.9 1.1-.7 1.1.8-.1 2-1.6 6-1.2 5.3.5-.2.5.5 1 1.5 1.2 1.3.2 1.5-.1.8-1-1.4-1.7-.2-5.8 1.5-5.2.8.3 1.3 0 1.1-.5-.1-.6 1-1.3 2.6-1.4 1.5-.2 2.7.1 2.7.6 0 .6.4.8.9.5.5-.3 1.2.1 1.5.9.4 1.3.2 1.4-1.4.5-2-1.1-2.5-.4-2.1 2.9.2 1.1 0 1.1-1.2 0-1.3-1.2-1.3-1.6.1-3.4 1.7-2 1.7-2-.5-.1-1.2 1-2.1 2.1-2 2.5 0 .3-.4 1.6-1.1 2.8-.8 1.5-1.9 2.1-3.4 1.8-1.2-.3-3.5.2-5 1-1.6.7-2.6.9-2.3.4.4-.5-.1-.9-.9-.9-1.3 0-1.4-.5-.5-2.7.6-1.5 1.3-3 1.7-3.3.4-.3 1.5-1.7 2.5-3.3 2.6-4 3-3.3.6 1zM122 316c0 .5-.2 1-.4 1-.3 0-.8-.5-1.1-1-.3-.6-.1-1 .4-1 .6 0 1.1.4 1.1 1zm260.7-.4c-.3.3-1.2.4-1.9.1-.8-.3-.5-.6.6-.6 1.1-.1 1.7.2 1.3.5zm-272.3 2.8c-.8 2-3.1 2.7-3.1 1 0-.7.4-1.1.9-.8.4.3.8 0 .8-.5 0-.6.4-1.1 1-1.1.5 0 .7.6.4 1.4zm18 1.7c-1 1.6-2.3.9-2.1-1 .1-1.5.4-1.7 1.4-.9.7.5 1 1.4.7 1.9zm-38 2c-1.4 1.4-2.3 1.6-3.4.8-1.3-.9-1.2-1 .3-.5 1.1.3 1.7 0 1.7-1 0-.8.5-1.2 1-.9.6.3 1-.2 1.1-1.2 0-1.2.2-1.4.6-.4.3.7-.3 2.1-1.3 3.2zm43.4-1.3c-.3 2 .9 4.2 2.3 4.2.6 0 .7-.4.4-1-.3-.5 0-.7.9-.4 1.2.5 1.3.9.3 1.9-.6.7-1.8 1-2.5.7-.7-.2-2.7.6-4.4 1.8-1.7 1.2-2.7 1.7-2.3 1 .4-.7.2-1.6-.6-2.2-1.1-.8-1-.9.4-.4 2.6.8 5.9-1.4 4.5-3.1-.9-1.1-1.4-1.1-2.7-.1-1.4 1.1-1.4 1.1-.4-.3.7-.9 1-1.9.6-2.3-.4-.4.1-.4 1.2 0 1.5.6 1.7.4 1.2-1-.4-1-.3-1.5.4-1.1.5.4.9 1.4.7 2.3zm-21.8 1c0 .5-.7.9-1.5.9s-1.2-.4-.9-.9c.3-.4.9-.8 1.5-.8.5 0 .9.4.9.8zm266.6 2.8c-.3.9-.6 2-.6 2.5s-.4.9-1 .9c-.5 0-.6-.7-.3-1.7.5-1.2.3-1.4-.8-.8-1.2.8-1.2.6 0-.8 1.7-2.1 3.5-2.2 2.7-.1zm54.5.7c-1 .9-1.1.8-.5-.6.3-1 .9-1.5 1.2-1.2.3.3 0 1.1-.7 1.8zm-332.6-.3c.3.5-.1 1-1 1s-1.3-.5-1-1c.3-.6.8-1 1-1 .2 0 .7.4 1 1zm46.2-.4c-.3.3-1.2.4-1.9.1-.8-.3-.5-.6.6-.6 1.1-.1 1.7.2 1.3.5zm-33.7 3.5c0 1.5.5 1.9 1.5 1.5.8-.3 1.5-.1 1.5.4 0 .6-.6 1-1.2 1-1.7-.1-5.5-3-3.9-3 .7 0 .9-.5.6-1-.3-.6-.1-1 .4-1 .6 0 1.1.9 1.1 2.1zm-24.7-.4c-.7.2-1.9.2-2.5 0-.7-.3-.2-.5 1.2-.5s1.9.2 1.3.5zm86 .8c-.3.9-.8 1.4-1 1.1-.3-.3-.2-.9.2-1.5.9-1.6 1.5-1.3.8.4zm265.4-.9c-.3.3-1.2.4-1.9.1-.8-.3-.5-.6.6-.6 1.1-.1 1.7.2 1.3.5zm-343.2 2.1c.9-.4 1.4-.3 1 .3-.3.6 0 1 .7 1.1.7 0 .4.4-.7.9-2.8 1.2-4.3 1.2-2.5-.1 1.2-.8.9-1-1.2-.6-2.3.3-2.5.2-1.5-1.4.7-1.2 1.4-1.4 1.8-.7.4.6 1.4.8 2.4.5zm41.2.5c-.3.8-.6.5-.6-.6-.1-1.1.2-1.7.5-1.3.3.3.4 1.2.1 1.9zm10-1.6c-.3.3-1.2.4-1.9.1-.8-.3-.5-.6.6-.6 1.1-.1 1.7.2 1.3.5zm223.2 3.5c-2.4 2.4-3.7 2.5-1.6.1 1.3-1.5 1.4-2.1.4-3.1-1-1.1-.8-1.1.9-.1 2 1.3 2.1 1.3.3 3.1zm59.9-1.5c1.2.8 2.7 1.2 3.2.9.6-.4.9-.2.8.3-.3.8 2.4 5.9 7.9 14.9.8 1.4 2.4 2.4 4.1 2.4l2.7.2-2.7.4c-1.6.2-2.8.7-2.8 1 0 1.7 4.3 14.3 4.9 14.3.4 0 1.6.7 2.7 1.6 1.8 1.4 1.8 1.5-.4.4-1.2-.6-2.7-.8-3.2-.5-.6.3-1 .3-1.1-.2-.2-2.7-1.2-6.6-3-12.2-1.9-5.7-2.5-6.5-6.3-8.2-2.2-1-3.5-1.9-2.8-1.9.7 0 2.2.5 3.3 1 2.8 1.6 2.5-.7-1-6.2-3.8-6-4.6-6.4-7.4-3.6-2.6 2.5-5.2 3.4-6.1 1.9-.8-1.3 2.1-3.4 3.9-2.7.9.3 1.9-.3 2.5-1.4.8-1.5.6-2-1-2.5-1.1-.3-2.5-.3-3.1.1-.8.4-.9.3-.5-.4 1-1.6 2.7-1.5 5.4.4zm-314.4 3c.3.8.2 1.2-.4.9-.6-.3-1-1-1-1.6 0-1.4.7-1.1 1.4.7zm23 0c.3.8.2 1.2-.4.9-.6-.3-1-1-1-1.6 0-1.4.7-1.1 1.4.7zm276.3-1c-.3.3-1.2.4-1.9.1-.8-.3-.5-.6.6-.6 1.1-.1 1.7.2 1.3.5zm-41.7 3.9c0 .5-.5.3-1-.5s-1-2-1-2.5c0-.6.5-.3 1 .5s1 1.9 1 2.5zm78.7-2.1c.4.3-1.2.6-3.5.6-2.4 0-4.2-.5-4.2-1.1 0-1.1 6.6-.7 7.7.5zm-88.4.3c-.7.2-1.9.2-2.5 0-.7-.3-.2-.5 1.2-.5s1.9.2 1.3.5zm76.7-.2c0 .7-3 1.3-3.4.7-.3-.4.4-.9 1.5-.9 1-.1 1.9 0 1.9.2zm20.3 2.2c-.7.2-2.1.2-3 0-1-.3-.4-.5 1.2-.5 1.7 0 2.4.2 1.8.5zm-12 1c-.7.2-1.9.2-2.5 0-.7-.3-.2-.5 1.2-.5s1.9.2 1.3.5zm-313.1 2.1c-1.6.5-1.5 2.2.3 4.2 1.3 1.5 1.3 1.7 0 1.7-.8 0-1.3-.2-1-.5.2-.3-.2-1.4-1-2.5-1-1.5-1.1-2.2-.2-3.2.7-.7 1.6-1 2.2-.7.5.3.4.7-.3 1zm2.3 2.2c.3.6-.1.7-.9.4-1.8-.7-2.1-1.4-.7-1.4.6 0 1.3.4 1.6 1zm221.6 1.7c1.3 1.5 1.2 1.5-1.1.3-3.4-1.7-3.6-2-1.8-2 .9 0 2.2.7 2.9 1.7zM164 348.5c-.7.8-1.7 1.3-2.3 1.2-.7-.1-1.2.6-1.2 1.5s-.4 2-.9 2.5c-.5.4-.6.3-.2-.5.4-.7.1-1.5-.8-1.8-.9-.3-1.6-1-1.6-1.6 0-.5.5-.6 1.2-.2.6.4 1.7-.1 2.5-1.1 1-1.4 1.3-1.5 1.4-.4 0 .8.5.3 1.1-1.1.6-1.5 1.2-2 1.5-1.2.3.7 0 1.9-.7 2.7zm193-3.1c0 .9-3 1.4-3.5.6-.4-.6.3-1 1.4-1 1.2 0 2.1.2 2.1.4zm5.5.6c-.3.5-1.2 1-1.8 1-.7 0-.6-.4.3-1 1.9-1.2 2.3-1.2 1.5 0zm21 1c-.3.5-1.2 1-1.8 1-.7 0-.6-.4.3-1 1.9-1.2 2.3-1.2 1.5 0zm48 1c1 1.1 1.4 2 .9 2-.5 0-1.5-.9-2.2-2-.7-1.1-1.1-2-.9-2 .2 0 1.2.9 2.2 2zm-310 1c-.3.5-1.2 1-1.8 1-.7 0-.6-.4.3-1 1.9-1.2 2.3-1.2 1.5 0zm223.2.6c-.3.3-1.2.4-1.9.1-.8-.3-.5-.6.6-.6 1.1-.1 1.7.2 1.3.5zm26 2.5c.2 1.7-.1 1.8-1.3.8-1.3-1.1-1-2 1.1-2.9.1 0 .1.9.2 2.1zm85.6-1.4c-.7.2-1.9.2-2.5 0-.7-.3-.2-.5 1.2-.5s1.9.2 1.3.5zm-339.3.7c0 .2-.8 1-1.7 1.7-1.6 1.3-1.7 1.2-.4-.4 1.3-1.6 2.1-2.1 2.1-1.3zm245-.1c0 .2-.9 1.2-2.1 2.3-1.5 1.4-2 1.5-1.7.4.2-.8 1-1.8 1.8-2.2 1.9-.8 2-.9 2-.5zm105.6.6c-.3.5-1.5.7-2.6.4-2.8-.7-2.5-1.3.6-1.3 1.4 0 2.3.4 2 .9zm-358.6.5c0 .3-.4.8-1 1.1-.5.3-1 .1-1-.4 0-.6.5-1.1 1-1.1.6 0 1 .2 1 .4zm365 .6c0 .5-.7.7-1.5.4-.8-.4-1.5-.8-1.5-1 0-.2.7-.4 1.5-.4s1.5.4 1.5 1zm-326.3 3.2c-.3.7-.5.2-.5-1.2s.2-1.9.5-1.3c.2.7.2 1.9 0 2.5zm10.3.3c-.7.8-2.6 1.4-4.4 1.4l-3.1-.2 3-.4c1.7-.3 3.4-.9 4-1.4 1.5-1.5 1.9-1 .5.6zm301.4.8c-.4 1.3-.9 1.4-1.9.4-1.1-1-1-1.3.4-1.8 2-.8 2.3-.6 1.5 1.4zm-297.4-.9c0 .2-.8 1-1.7 1.7-1.6 1.3-1.7 1.2-.4-.4 1.3-1.6 2.1-2.1 2.1-1.3zm-37.3 6.8c-.2 1.3-.4.3-.4-2.2s.2-3.5.4-2.3c.2 1.3.2 3.3 0 4.5zm26.8-3.2c.8 1.3-.5 1.3-2.5 0-1.3-.8-1.3-1 .2-1 .9 0 2 .4 2.3 1zm217.8.7c-.7.2-1.9.2-2.5 0-.7-.3-.2-.5 1.2-.5s1.9.2 1.3.5zm69.7.3c.8.5 1.1 1 .5 1-.5 0-1.7-.5-2.5-1s-1-1-.5-1c.6 0 1.7.5 2.5 1zm-284.5.9c.3.5.2 1.2-.3 1.5-.5.3-.9-.1-.9-.9 0-1.7.3-1.9 1.2-.6zm277.8.7c-.2.7-1.3 1-2.4.7-2.7-.7-2.4-1.8.5-1.8 1.3 0 2.2.5 1.9 1.1zm-238.8.4c-.3.5-2 1.9-3.8 3-3.2 2.2-3.2 2.2.3-.9 3.7-3.2 4.5-3.7 3.5-2.1zm174.9 1.7c-.6 2.1-.4 2.5.9 2 1.1-.4 1.4-.2 1 .9-.9 2.5-3.7-.8-2.8-3.5.9-3 1.7-2.6.9.6zm70.1-.7c.6.1 2.1.8 3.5 1.6l2.5 1.4-3-.6c-1.6-.3-3.9-.6-5-.6s-1.4-.2-.7-.5c1-.4.9-.9-.5-2-1.7-1.3-1.7-1.4.2-.5 1.1.6 2.5 1.1 3 1.2zm-12.1.5c.4 1.3.2 1.4-1.4.5-2.3-1.3-2.6-2-.6-2 .8 0 1.6.7 2 1.5zm-268 2c-.4.8-.1 1.5.5 1.5s1.1.4 1.1.8c0 .5-1 .8-2.2.6-1.3-.1-2.7-.3-3.1-.3-.5-.1-.5-.6-.2-1.1.4-.6 1-.8 1.5-.5.4.3 1-.2 1.4-1 .3-.8.8-1.5 1-1.5.3 0 .3.7 0 1.5zm17 0c-.7 1.6-2.4 2.1-2.4.6 0-.8.7-1.3 2.7-2 .1-.1 0 .6-.3 1.4zm-49.9.5c.3.5.1 1-.4 1-.6 0-1.1-.5-1.1-1 0-.6.2-1 .4-1 .3 0 .8.4 1.1 1zm40.5 0c0 .5-.2 1-.4 1-.3 0-.8-.5-1.1-1-.3-.6-.1-1 .4-1 .6 0 1.1.4 1.1 1zm282.7 3.2c-.3.8-.6.5-.6-.6-.1-1.1.2-1.7.5-1.3.3.3.4 1.2.1 1.9zm-264-.5c-.4.3-.1 1.3.6 2.2 1.1 1.4 1 1.4-.5.2-1.6-1.2-1.6-3.1-.1-3.1.4 0 .3.3 0 .7zm229.2.7c.6.8 1 1.9.9 2.4-.4 1.6 12.5 13 14 12.5 1-.4 1-.8 0-2.1-.9-1.1-.4-.9 1.3.3 1.5 1.1 2.5 2.3 2.3 2.6-.4.7 2.1 3.3 5.1 5.4 2.9 2-.3 1.2-4.4-1.1-1.8-1-4.6-3-6.2-4.2-2.9-2.4-4.1-1.5-1.6 1 .8.7 1.9 2.3 2.5 3.4 1 1.8.8 2-1.1 1.8-1.2-.1-2.4-.3-2.7-.4-.3-.1-.9-.2-1.3-.1s-.7-.4-.6-1.1c.3-2.5-.1-3.5-3.1-6.8-2.2-2.4-2.7-3.7-1.9-4.6.7-.9.5-1.4-1-1.9-1.2-.3-2.1-1.3-2.1-2.1s-.4-1.2-1-.9c-.6.3-.7-.1-.4-.9.4-1 .1-1.6-.8-1.6-.8 0-1.5-.7-1.5-1.5 0-1.9 2.1-1.9 3.6-.1zm54.5 8.5c3.7 3.8 3.7 3.9 2.2 7.2-.8 1.9-1.5 2.8-1.5 2.1-.1-.7.4-2.2.9-3.3.9-1.6.7-1.9-1.2-1.9s-2-.2-.8-1c1.6-1.1-.4-3.4-9-10.3-3-2.4-2.9-2.4 1.1.3 2.6 1.7 6.3 4.9 8.3 6.9zM132 371c0 .5-.5 1-1.1 1-.5 0-.7-.5-.4-1 .3-.6.8-1 1.1-1 .2 0 .4.4.4 1zm224 0c-.8.5-1.9 1-2.5 1-.5 0-.3-.5.5-1s2-1 2.5-1c.6 0 .3.5-.5 1zm-177.7 1.7c-.7.2-1.9.2-2.5 0-.7-.3-.2-.5 1.2-.5s1.9.2 1.3.5zm271.4 4c-.3 1-.5.4-.5-1.2 0-1.7.2-2.4.5-1.8.2.7.2 2.1 0 3zm-272-2.1c-.3.3-1.2.4-1.9.1-.8-.3-.5-.6.6-.6 1.1-.1 1.7.2 1.3.5zm249.3 4.7c0 .4-.9.3-2-.3s-2-1.5-2-2c0-.6.9-.5 2 .2s2 1.6 2 2.1zm-22 1.2c0 .8-.4 1.5-1 1.5-.5 0-1-.7-1-1.5s.5-1.5 1-1.5c.6 0 1 .7 1 1.5zm-214 .5c0 .5-.5 1-1.1 1-.5 0-.7-.5-.4-1 .3-.6.8-1 1.1-1 .2 0 .4.4.4 1zm12.5 0c-.3.5-1.2 1-1.8 1-.7 0-.6-.4.3-1 1.9-1.2 2.3-1.2 1.5 0zm247.2 3.7c-.3 1-.5.4-.5-1.2 0-1.7.2-2.4.5-1.8.2.7.2 2.1 0 3zm-308.9.4c-.3.8-.7.3-1.1-1-.4-1.7-.3-2.1.5-1.3.5.5.8 1.6.6 2.3zm43.8-.6c-.3 1 .1 1.5 1.2 1.6 1 0 1.2.3.5.6-1.5.6-1.7 4.3-.3 4.3.6 0 .9.5.8 1.2-.3 1.2.3 1.4 4.5 1.7 1.6.1 1.8.4.9 1-1.5.9-6.2.3-6.2-.9 0-.4-.9-1-2.1-1.3-1.8-.5-1.9-.8-.7-2.6 1-1.7 1-2.5 0-4.2-.8-1.2-.9-1.8-.3-1.4.6.3 1.1.1 1.1-.4 0-.6.3-1.1.6-1.1s.4.7 0 1.5zm225.9-.5c-.3.5-1.2 1-1.8 1-.7 0-.6-.4.3-1 1.9-1.2 2.3-1.2 1.5 0zm-229.7 2.5c-.3.3-.9-.2-1.2-1.2-.6-1.4-.5-1.5.5-.6.7.7 1 1.5.7 1.8zm185.9-1.9c-.3.3-1.2.4-1.9.1-.8-.3-.5-.6.6-.6 1.1-.1 1.7.2 1.3.5zm53.3 4.5c0 1.2-3.8-1.2-4.5-2.8-.3-.9.4-.8 2 .3 1.4.9 2.5 2 2.5 2.5zm-8.5-2.1c.3.5.1 1-.4 1-.6 0-1.1-.5-1.1-1 0-.6.2-1 .4-1 .3 0 .8.4 1.1 1zm-230.7 3.4c.3 1.5.1 1.6-1.7.6-1.2-.6-1.9-1.6-1.5-2.1.9-1.5 2.8-.5 3.2 1.5zm229.2 3.5c0 .7-.8.3-1.9-1-1.1-1.3-1.7-2.8-1.4-3.2.6-1 3.2 2.3 3.3 4.2zm4.5-3.9c.3.5.1 1-.4 1-.6 0-1.1-.5-1.1-1 0-.6.2-1 .4-1 .3 0 .8.4 1.1 1zm-189.5.9c0 1.5-3.2 2.3-4.4 1.1-.8-.8-.6-.9.5-.5 1 .4 2 .2 2.4-.4.8-1.3 1.5-1.4 1.5-.2zm192.5.1c.3.5.1 1-.4 1-.6 0-1.1-.5-1.1-1 0-.6.2-1 .4-1 .3 0 .8.4 1.1 1zm33.2 2.7c-.3 1-.5.4-.5-1.2 0-1.7.2-2.4.5-1.8.2.7.2 2.1 0 3zM155.5 392c-.3.5-1 1-1.6 1-.5 0-.9-.5-.9-1 0-.6.7-1 1.6-1 .8 0 1.2.4.9 1zm39.2-.4c-.3.3-1.2.4-1.9.1-.8-.3-.5-.6.6-.6 1.1-.1 1.7.2 1.3.5zm-34.9 2.9c-.3.3-.9-.2-1.2-1.2-.6-1.4-.5-1.5.5-.6.7.7 1 1.5.7 1.8zm50.5-1.8c-.7.2-1.9.2-2.5 0-.7-.3-.2-.5 1.2-.5s1.9.2 1.3.5zm135.2.3c.3.6-.1.7-.9.4-1.8-.7-2.1-1.4-.7-1.4.6 0 1.3.4 1.6 1zm-125.2.7c-.7.2-1.9.2-2.5 0-.7-.3-.2-.5 1.2-.5s1.9.2 1.3.5zm186.2 3.2c-.3 1.2-1 2.1-1.5 2.1-.4 0-.3-1.1.3-2.4 1.4-2.9 2.2-2.7 1.2.3zm24.6-1.2c1.3 1.6 1.2 1.7-.3.4-1.7-1.3-2.2-2.1-1.4-2.1.2 0 1 .8 1.7 1.7zm7.1 0c.1.4 1.4 1.8 3 3 1.6 1.1 2.5 2.4 2 2.7-1.2.7-5.5-3.5-5.8-5.9-.1-.9 0-1.5.3-1.2.2.3.5.9.5 1.4zM158.5 397c-.3.5-1.2 1-1.8 1-.7 0-.6-.4.3-1 1.9-1.2 2.3-1.2 1.5 0zm37 .8c-.3.3-1.1 0-1.8-.7-.9-1-.8-1.1.6-.5 1 .3 1.5.9 1.2 1.2zm144.4 5.6-5.3 5.1 4.7-5.2c2.6-2.9 4.7-5.8 4.8-6.5 0-1 .2-1 .6.1.3.8-1.7 3.5-4.8 6.5zm74.7-.9c.1 2.9.1 2.9-1.7-1-2.3-5.2-2.3-5.9-.1-3.8.9 1 1.7 3.1 1.8 4.8zm15.5-2.3c1.2 2.4 2.7 5 3.5 5.8.7.9 1 2 .6 2.6-.4.6-2.1-2-3.9-5.8-3.5-7.4-3.6-9.4-.2-2.6zm-113.4 3c-.2 1.3-.4.5-.4-1.7-.1-2.2.1-3.2.4-2.3.2 1 .2 2.8 0 4zm118.4-3.5c1.2 1.6 1.2 1.7-.2.6-.9-.7-1.9-1-2.2-.6-.4.3-.7.1-.7-.5 0-1.7 1.6-1.5 3.1.5zM166 401c0 1.3-.5 1.8-1.5 1.4-1.1-.5-1.5.1-1.5 2.5 0 1.7-.3 3.1-.7 3.1-.5 0-.8-1.7-.7-3.7.1-2.1.6-3.8 1.2-3.8s1.4-.3 1.8-.8c1.1-1.1 1.4-.9 1.4 1.3zm159.9-.2c1.4 2.7-.2 4.6-1.8 2.1-.9-1.6-1-1.9 0-1.3.9.5 1 .2.6-.9-.9-2.3 0-2.2 1.2.1zm70.1.7c0 .8-.4 1.5-1 1.5-.5 0-1-.7-1-1.5s.5-1.5 1-1.5c.6 0 1 .7 1 1.5zm56.7 4.7c-.2 1.3-.4.5-.4-1.7-.1-2.2.1-3.2.4-2.3.2 1 .2 2.8 0 4zm-256.1-2.1c.1.5.2 1.4.3 2 0 .5.6.7 1.3.3.7-.4.8-.3.4.4s-1 1.2-1.4 1.2c-1 0-3.1-4.8-2.4-5.5.6-.6 1.6.3 1.8 1.6zm135.5 1.4c.3-.2.5.4.5 1.4 0 1-.6 1.8-1.3 1.8-.7 0-1-.4-.7-.9.3-.5-.2-1.9-1.3-3.1-1.8-2.2-1.8-2.2.3-.4 1.1.9 2.3 1.5 2.5 1.2zm60.9-2.1c0 .2-.7.7-1.6 1-.8.3-1.2.2-.9-.4.6-1 2.5-1.4 2.5-.6zm52.1 1.3c1.3 1.6 1.2 1.7-.3.4-1.7-1.3-2.2-2.1-1.4-2.1.2 0 1 .8 1.7 1.7zm-242.8 0c-.7.2-1.9.2-2.5 0-.7-.3-.2-.5 1.2-.5s1.9.2 1.3.5zm-44.9 2.9c.3.8.2 1.2-.4.9-.6-.3-1-1-1-1.6 0-1.4.7-1.1 1.4.7zm44.6 0c0 .8-.5 1.2-1 .9-.6-.4-.8-1.1-.5-1.6.9-1.4 1.5-1.1 1.5.7zm13-.6c0 .5-.5 1-1.1 1-.5 0-.7-.5-.4-1 .3-.6.8-1 1.1-1 .2 0 .4.4.4 1zm16.5 0c.3.5.1 1-.4 1-.6 0-1.1-.5-1.1-1 0-.6.2-1 .4-1 .3 0 .8.4 1.1 1zm218 3c1 1.1 1.6 2 1.3 2-.3 0-1.3-.9-2.3-2-1-1.1-1.6-2-1.3-2 .3 0 1.3.9 2.3 2zm-281.8 1.2c-.3.8-.6.5-.6-.6-.1-1.1.2-1.7.5-1.3.3.3.4 1.2.1 1.9zm63 0c-.3.8-.6.5-.6-.6-.1-1.1.2-1.7.5-1.3.3.3.4 1.2.1 1.9zm110-.2c-.1 1.1-.5 2-.9 2-1 0-1-.4-.2-2.4.8-2.2 1.3-2 1.1.4zm-158.2 0c.4.6.2.9-.3.8-.6-.2-1 .1-1.1.7-.1.5.4 1 .9 1 .6 0 1 .4 1 1 0 .9-.4 1-3.1.6-.5 0-.7-.6-.3-1.3.5-.8.1-.9-1.2-.5-1.8.7-1.8.6-.2-.6 1-.8 1.5-1.7 1.1-2-.3-.4.1-.7 1-.7s1.9.5 2.2 1zm98.5-.6c0 .2-.9.6-2 .9-1.1.3-2 .1-2-.4s.9-.9 2-.9 2 .2 2 .4zm50 1.1c1 1.3.9 1.5-.8 1.5-1.5 0-2-.5-1.6-1.5.4-.8.7-1.5.9-1.5.1 0 .8.7 1.5 1.5zm-70 1.8c-1.4.8-2.7 1.2-3 1-.7-.6 2.3-2.3 4-2.3.8 0 .4.6-1 1.3zm57 .2c0 1-4 1-4.3 0-.4-.8.3-1 1.9-.7 1.3.2 2.4.6 2.4.7zm74.7 1.7c-.3.7-.5.2-.5-1.2s.2-1.9.5-1.3c.2.7.2 1.9 0 2.5zM326 414c0 .5-.7.7-1.5.4-.8-.4-1.5-.8-1.5-1 0-.2.7-.4 1.5-.4s1.5.4 1.5 1zm128 0c.4 0 1 .7 1.4 1.5.6 1.6-.9 1.1-4.4-1.6-1.3-.9-1.2-1 .3-.5 1 .3 2.2.6 2.7.6zm-285.3 2.2c-.3.8-.6.5-.6-.6-.1-1.1.2-1.7.5-1.3.3.3.4 1.2.1 1.9zm129.1 0c-.7 1.3-1.1 2.7-.9 3.3.1.5-.1.7-.5.2-.4-.4-2.6 1-4.8 3-2.9 2.8-2.5 2.1 1.5-2.4 6-6.9 6.5-7.3 4.7-4.1zm-73.8-.4c0 .5-.7.9-1.5.9s-1.2-.4-.9-.9c.3-.4.9-.8 1.5-.8.5 0 .9.4.9.8zm5.2 2.4c-.8.8-.9.4-.5-1.3.4-1.3.8-1.8 1.1-1 .2.7-.1 1.8-.6 2.3zm103.7-.8c-.2.2-1.7.2-3.4-.2-3-.6-3-.6-.5-1.2 2.3-.6 5 .4 3.9 1.4zm-172.9.1c-.7.8-1.7 1.5-2.3 1.5-.6 0-.2-.7.9-1.5 2.5-1.9 3-1.9 1.4 0zm20.2-.1c.7-.4.8-.2.4.5-.9 1.3-2.6.5-2.5-1.2 0-.9.2-.8.6.1.2.6 1 .9 1.5.6zm200.8 1.1c-.7.8-2.7 1.5-4.4 1.4-3.1-.1-3.1-.1.9-1.4 2.2-.7 4.2-1.3 4.4-1.4.2-.1-.2.6-.9 1.4zm72.7 3.2c-.3 1-.5.2-.5-1.7s.2-2.7.5-1.8c.2 1 .2 2.6 0 3.5zm-90.2-1.7c1 1.1 1.6 2 1.3 2-.3 0-1.3-.9-2.3-2-1-1.1-1.6-2-1.3-2 .3 0 1.3.9 2.3 2zm-193.8 1.2c-.3.8-.6.5-.6-.6-.1-1.1.2-1.7.5-1.3.3.3.4 1.2.1 1.9zm23.3-.7c-.7.9-1 2.8-.7 4.8.5 2.8.4 2.9-.5 1-1.2-2.5-.3-7.3 1.3-7.3.8 0 .7.5-.1 1.5zm24 0c-.7.9-1.5 1.3-1.9 1-.3-.3.1-1 .9-1.5 2.1-1.4 2.4-1.2 1 .5zm9.5-.6c.3.5 0 1.3-.6 1.7-.7.4-.9.3-.5-.4.3-.5 0-1.3-.6-1.5-.9-.4-1-.6-.1-.6.6-.1 1.4.3 1.8.8zm44 .1c-.3.5-1.5 1.5-2.5 2-1.6.8-1.8.8-1.4-.5.3-.8 1-1.3 1.4-1 .5.3 1.1.1 1.5-.5.3-.5.8-1 1.1-1 .3 0 .2.4-.1 1zm2.6 1.3c-1 .9-1.1.8-.5-.6.3-1 .9-1.5 1.2-1.2.3.3 0 1.1-.7 1.8zm46.3-.6c-.5.5-1.2 1.2-1.6 1.8-.4.6-.8.2-.8-.8 0-.9.7-1.7 1.7-1.7.9 0 1.2.3.7.7zm53.3-.1c-.3.3-1.2.4-1.9.1-.8-.3-.5-.6.6-.6 1.1-.1 1.7.2 1.3.5zm12 3.6c-.3.8-.6.5-.6-.6-.1-1.1.2-1.7.5-1.3.3.3.4 1.2.1 1.9zm-112.7.3c0 .8-.4 1.5-1 1.5-.5 0-.7-.7-.4-1.5.4-.8.8-1.5 1-1.5.2 0 .4.7.4 1.5zm14.4 1.7c-.4.6-1 .5-1.5-.3-1.1-1.9-5 1.7-4.2 3.9.4 1.5.3 1.5-.6.2-1.4-2.1 3.6-7.5 5.6-5.9.7.6 1 1.6.7 2.1zm74.3-2.6c-.3.3-1.2.4-1.9.1-.8-.3-.5-.6.6-.6 1.1-.1 1.7.2 1.3.5zm-159.3 1.3c.3.5-.1 1.1-.9 1.5-.9.3-1.5 0-1.5-.9 0-1.6 1.6-2 2.4-.6zm94.8 1.6c-.2 1.5 0 2.5.7 2.5.8 0 .8.4-.1 1.4-.7.8-1.6 1.2-1.9 1.1-.8-.5.2-7.5 1.1-7.5.4 0 .5 1.1.2 2.5zm-125.5.7c-.3.8-.6.5-.6-.6-.1-1.1.2-1.7.5-1.3.3.3.4 1.2.1 1.9zm36.3 1c0 1.9-1.6.5-1.7-1.4-.2-1.8 0-2 .7-.8.5.8 1 1.8 1 2.2zm49-2.2c0 .5-.4 1-1 1-.5 0-1-.5-1-1 0-.6.5-1 1-1 .6 0 1 .4 1 1zm20.9 2.6c.2.2-.3.4-1.3.4-.9 0-1.5.4-1.2.8.2.4-1 .8-2.9.8-2.9 0-3.2-.2-2.4-1.8.7-1.4 1.7-1.7 4.2-1.3 1.7.4 3.3.8 3.6 1.1zm13.1.9c1.4 1.9 1.4 1.9-.2.6-1-.7-1.8-1.8-1.8-2.4 0-.6.1-.8.3-.6.1.2.9 1.3 1.7 2.4zm19.4-1.6c.4.5-.3.7-1.4.4-2.3-.6-2.6-1.3-.6-1.3.8 0 1.7.4 2 .9zm6.6.6c0 .8-.7 1.5-1.6 1.5-1.4 0-1.4-.3-.4-1.5.7-.8 1.4-1.5 1.6-1.5.2 0 .4.7.4 1.5zm-12.7.2c-.7.2-1.9.2-2.5 0-.7-.3-.2-.5 1.2-.5s1.9.2 1.3.5zm61.5 1.8c-.3.3-.9-.2-1.2-1.2-.6-1.4-.5-1.5.5-.6.7.7 1 1.5.7 1.8zm-193.1 1.7c-.3.7-.5.2-.5-1.2s.2-1.9.5-1.3c.2.7.2 1.9 0 2.5zm132.7-.2c-2.2.9-2.9.6-2-.9.4-.6 1.4-.7 2.3-.4 1.5.6 1.4.7-.3 1.3zm50.6 2.4c0 .4-.6.3-1.4-.3-1.1-1-1.5-.8-1.9.6-.3 1-.4.7-.4-.8.1-2.3.4-2.5 1.9-1.5 1 .6 1.8 1.5 1.8 2zm-84.7-1.7c-.7.2-1.9.2-2.5 0-.7-.3-.2-.5 1.2-.5s1.9.2 1.3.5zm-97.3 4.7c0 1.3-.6 2.6-1.4 2.9-1.1.5-1.2 0-.3-2.4 1.4-3.5 1.7-3.6 1.7-.5zm56.5-.6c.6.4 1.1 2.3 1.2 4.2.1 1.9-.1 2.7-.4 1.8-.8-3.1-3.1-.8-3.1 3.2 0 2.1-.6 4.9-1.3 6.2-.7 1.3-1.3 2.5-1.3 2.8-.2.9-2.1-.1-4.4-2.4-1.7-1.7-1.9-2.3-.8-2.3.8 0 1.4.5 1.3 1.1-.1.6.8 1.2 1.9 1.4 2.9.4 4.1-4 1.9-7.1-.8-1.2-1.5-2.6-1.5-3.2.1-.5.7.1 1.5 1.5l1.4 2.5.1-2.3c0-1.3.7-3 1.5-3.8 1.7-1.7 2.1-3.9.5-2.9-.5.3-1 .1-1-.4 0-1.3 1-1.4 2.5-.3zm112.2-.2c-.3.3-1.2.4-1.9.1-.8-.3-.5-.6.6-.6 1.1-.1 1.7.2 1.3.5zm-107.1 3.1c-1 1.1-1.9.7-2.2-1-.2-1.5 0-1.6 1.2-.6.8.6 1.2 1.4 1 1.6zm-14.8-.2c.2.1-.3.5-1 .8-.8.2-2.7-.1-4.3-.8-3-1.3-3-1.3 1-.8 2.2.3 4.1.7 4.3.8zm117.6 0c-.3.6-1.1 1.2-1.9 1.2-.8 0-1.2-.4-.9-.8.2-.4-.2-.9-.8-1.2-.7-.2-.1-.4 1.4-.4 1.7 0 2.5.4 2.2 1.2zm117.3 2.2c-.3 1-.5.4-.5-1.2 0-1.7.2-2.4.5-1.8.2.7.2 2.1 0 3zm-244.6-1c1.3 1.6 1.2 1.7-.3.4-1.7-1.3-2.2-2.1-1.4-2.1.2 0 1 .8 1.7 1.7zm-38.9 9.7c-.6 4.6-.5 6.6.2 6.6.6 0 .5.4-.2.8-.7.5-1 1.6-.7 2.5.4.9.2 2.4-.4 3.4-.9 1.5-1 1.2-1.1-2 0-3.3-.3-3.7-2.7-3.8-2.8-.2-2.8-.2-.3-.6 3.3-.6 3.7-1.4 4.5-9.2.4-3.6 1-6.1 1.2-5.4.2.6 0 4.1-.5 7.7zm180.8-4.9c0 .8-.2 1.5-.4 1.5s-.6-.7-1-1.5c-.3-.8-.1-1.5.4-1.5.6 0 1 .7 1 1.5zm-90.7 1.7c1-.3.9 1.6-.2 2.2-.5.3-1.2-.1-1.5-1-.4-1-1.3-1.3-2.6-.9-1.1.3-2 .2-2-.3 0-1.7 1.3-2.1 3.4-1 1.1.7 2.4 1.1 2.9 1zm74.7-.1c0 .6-.4.7-1 .4-.5-.3-1-1.1-1-1.6 0-.6.5-.7 1-.4.6.3 1 1.1 1 1.6zm-16.7 1.4c-.5 1.3-2.3 2.2-2.3 1.1 0-1.5 1.4-3.5 2.1-3.1.4.3.6 1.2.2 2zm-68.6.7c-.3.8-.6.5-.6-.6-.1-1.1.2-1.7.5-1.3.3.3.4 1.2.1 1.9zm-4.3 4.2c-.3.9-1 1.6-1.5 1.6-.4 0-.6-.6-.3-1.4.3-.8 0-2.5-.6-3.8l-1.2-2.3 2.1 2.2c1.2 1.2 1.8 2.9 1.5 3.7zm-3.8-1.7c.3 1.6.8 3.4 1 4.1.2.8-.2 1.2-.8.9-.7-.2-1.2-1.3-1-2.5.2-1.1-.2-2.3-.8-2.7-1.3-.8-1.3-2.5 0-2.5.5 0 1.2 1.2 1.6 2.7zm83.6-.8c-.5.3-1.2 1.3-1.5 2.1-.3.8-.5.3-.4-1.1.1-1.8.6-2.5 1.5-2.1.7.2.9.8.4 1.1zm-62.4 1.6c-.3.3-.9-.2-1.2-1.2-.6-1.4-.5-1.5.5-.6.7.7 1 1.5.7 1.8zm-11.5 1.5c.8 3-.5 3.2-2 .4-1.6-3.3-1.6-3.5.1-2.8.8.3 1.6 1.4 1.9 2.4zm21.1 1c1 1.3.9 1.3-.6.1-1-.7-1.8-1-1.8-.6 0 .5-.2.6-.5.3s-.2-1.3.2-2.4c.5-1.4.8-1.5 1.1-.3.3.7 1 2.1 1.6 2.9zm45.1 4.7c-.7.8-1.2.4-1.8-1.3-.5-1.3-1.4-2.4-1.9-2.4-.6 0-.8-.3-.5-.7.4-.3.2-1.3-.5-2.2-.6-.9.4 0 2.3 1.9 2.4 2.4 3.1 3.8 2.4 4.7zm16.8-6.3c.4 1 .1 1.3-.9.9-.7-.3-1.4-.9-1.4-1.4 0-1.4 1.7-1 2.3.5zm-116.7 2.2c-.4.9-.9 1.5-1.1 1.2-.3-.3-.3-1.3.1-2.2.4-.9.9-1.5 1.1-1.2.3.3.3 1.3-.1 2.2zm73.7.9c.4-.3.5-.2.2.2-.3.3.3 1.2 1.3 2 1 .9.5.8-1.4-.2-1.7-1-4.1-2.6-5.5-3.7-2.2-1.9-2.2-1.9 1.2.1 2 1.1 3.9 1.9 4.2 1.6zm-43.8-1.6c.3.5.2 1.2-.3 1.5-.5.3-.9-.1-.9-.9 0-1.7.3-1.9 1.2-.6zm110.8 3.1c.3 1.1.1 1.8-.4 1.4-.5-.3-.9-1.2-.9-2 0-2 .7-1.7 1.3.6zm-107.8 1.9c-.6.5-2.5-1-2.5-2 0-.5.6-.4 1.4.3.8.7 1.2 1.5 1.1 1.7zm72.2-.7c-.3.8-.6.5-.6-.6-.1-1.1.2-1.7.5-1.3.3.3.4 1.2.1 1.9zM216 463c-.5 2.2-.8 2.7-.9 1.3-.1-2.1.9-5.6 1.4-5.1.2.2 0 1.9-.5 3.8zm40.7-1.8c-.3.8-.6.5-.6-.6-.1-1.1.2-1.7.5-1.3.3.3.4 1.2.1 1.9zm-11 .1c0 .7-.6 1.8-1.3 2.4-.9.9-1.1.6-1-1.3.1-2.4 2.3-3.5 2.3-1.1zm110.6 3.7c.3 1.1.1 1.8-.4 1.4-.5-.3-.9-1.2-.9-2 0-2 .7-1.7 1.3.6zm-98.6 1.2c-.3.8-.6.5-.6-.6-.1-1.1.2-1.7.5-1.3.3.3.4 1.2.1 1.9zM374 465c.8.5 1.1 1 .5 1-.5 0-1.7-.5-2.5-1s-1-1-.5-1c.6 0 1.7.5 2.5 1zm-57.3 3.2c-.3.7-.5.2-.5-1.2s.2-1.9.5-1.3c.2.7.2 1.9 0 2.5zm-74.8 2.2c-.9.8-1 .7-.5-.7.3-1 .7-2.4.7-3 .1-.7.3-.4.6.7.3 1-.1 2.3-.8 3zm-73.3 3.8c-1.4.9-1.4.8-.8-3.2l.6-3.5.6 3c.3 1.6.1 3.3-.4 3.7zm90.1-2c-.3.8-.6.5-.6-.6-.1-1.1.2-1.7.5-1.3.3.3.4 1.2.1 1.9z"/>
  <path d="M253 77.5c0 .8.4 1.5.8 1.5.5 0 .9-.7.9-1.5s-.4-1.5-.9-1.5c-.4 0-.8.7-.8 1.5zM263.8 79.2c-.9.5-.6.8.9.8 1.2 0 2.4-.4 2.7-.8.7-1.1-1.9-1.1-3.6 0zM309 82.7c0 1.5-.2 1.6-1 .3-.8-1.2-1-1.2-1.5.2-.7 1.8.1 3.8 1.4 3.8.4 0 1.3-1.1 1.9-2.5 1.5-3.2 1.5-3.5.2-3.5-.5 0-1 .8-1 1.7zM228 89.5c-1 1.2-1 1.5.4 1.5.9 0 1.6-.5 1.6-1.1 0-.6.6-.9 1.3-.6.8.3 2 .1 2.8-.4 1-.6.5-.9-1.7-.9-1.7 0-3.7.7-4.4 1.5zM273.7 89.7c-1 .9-.9 2.3.1 2.3.5 0 .9-.7.9-1.5 0-1.7-.1-1.8-1-.8zM276.9 89.7c-.1.5-.1 1.1 0 1.6.1.4-1 1.2-2.5 1.7-1.4.6-2.2 1.5-1.9 2.1.9 1.3 5.2-2.5 5.2-4.6 0-1.5-.6-2.1-.8-.8zM277.9 96.7c.6 1.3.7 2.4.2 2.7-.5.4-1.2 0-1.4-.6-.4-.9-.6-1-.6-.1-.2 2 1.6 2.4 3 .7 1-1.2.9-1.8-.6-3.2-1.6-1.6-1.7-1.6-.6.5zM212.2 97.6c1 1 2 1.6 2.2 1.3.3-.3-.5-1.1-1.7-1.8-2.1-1.3-2.1-1.2-.5.5zM220 97.1c0 .5.5.7 1 .4.6-.3 1-.8 1-1.1 0-.2-.4-.4-1-.4-.5 0-1 .5-1 1.1zM321.8 96.7c.7.3 1.6.2 1.9-.1.4-.3-.2-.6-1.3-.5-1.1 0-1.4.3-.6.6zM217.2 99.5c-1.8 3.8-1.5 6.5.6 6.4 1 0 1.2-.3.5-.6-.7-.2-1.3-1.1-1.3-1.9 0-.9.5-1.2 1-.9.6.4 1-.7 1-2.4 0-3.8-.3-3.9-1.8-.6zM220.2 101c0 1.4.2 1.9.5 1.2.2-.6.2-1.8 0-2.5-.3-.6-.5-.1-.5 1.3zM211.5 102.1c-.4.6-.5 1.2-.2 1.5.2.3.7-.2 1-1.1.7-1.7.1-2-.8-.4zM213.1 104.3c-.8 1-.7 1.4.2 1.4.8 0 1.4-.6 1.4-1.4 0-.7-.1-1.3-.2-1.3-.2 0-.8.6-1.4 1.3zM315 106c0 1.1 3.2 3 5.1 3 .6 0 0-.9-1.4-2-2.8-2.2-3.7-2.5-3.7-1zM320.4 110.7c.7 1.2-.4 1.7-3.1 1.4-.6-.1-1.4.3-1.8.9-.4.6 1 1 3.7 1.1 2.4 0 5.7.2 7.3.4 1.7.1 2.4.1 1.7-.2-.6-.3-1-.9-.7-1.4.4-.5-.2-.6-1.1-.2-1.2.4-1.5.3-1-.5s.2-1-.9-.6c-.8.4-2.3 0-3.2-.7-1.2-1-1.5-1-.9-.2zM338.5 111.9c-.3.5-.1 1.2.5 1.6.5.3 1-.1 1-.9 0-1.8-.6-2.1-1.5-.7zM329.8 123.2c.5.5 1.6.8 2.3.6.8-.3.3-.7-1-1.1-1.7-.4-2.1-.3-1.3.5zM343.5 132c-.3.5-1.3.6-2.2.3-1.2-.5-1 0 .5 1.5 1.2 1.2 2.5 2.1 3 2.1.4-.1.9 0 1.2.1 1.6.6 4.1.7 3.5.2-.4-.4-1.2-.7-1.8-.7-.7 0-1.1-.9-.9-2 .4-2 .3-2-1.2 0s-1.5 2-1.1-.3c.4-2.3 0-2.8-1-1.2zM374.6 132.7c-.3.3-.3 1 0 1.4.7 1.2 3.4 1.1 3.4 0s-2.6-2.2-3.4-1.4zM373.5 135.9c-.2.5.1 1.4.9 2 1 .9 1.5.8 1.9-.3.6-1.5-1.9-3.1-2.8-1.7zM366.5 138.1c-.4 1.2-1.3 1.8-2 1.5-1-.3-1.2 0-.8 1.1.5 1.2.3 1.4-.7.8-.9-.6-1.1-.4-.5.4.5.9 1.3.7 2.9-.8 1.2-1.2 2.4-2 2.7-1.9.2.2.3.1.2-.1-.2-.2.2-1 .8-1.8.9-1 .8-1.3-.4-1.3-.9 0-1.9.9-2.2 2.1zM388.5 138.1c-1.6 1.1-2.9 2.4-2.8 2.9.2.5-.4.7-1.2.4-.8-.4-1.5-.1-1.5.6 0 .6-.4.8-1 .5-.5-.3-1-.1-1 .4 0 .6.4 1.1.9 1.1s.7 1 .3 2.2c-.5 2-.3 2.1 1 1.1.8-.7 1.8-1 2.1-.6.4.3.7.1.7-.5 0-.7-.4-1.2-1-1.2-.5 0-1-.4-1-.9s.9-.7 2-.4c1.4.4 2 0 2-1.1 0-.9.4-1.6.8-1.6.5 0 1.4-1.1 2-2.5.6-1.4 1.1-2.5.9-2.4-.1 0-1.5.9-3.2 2zM337 138c0 .5.5 1 1 1 .6 0 1-.5 1-1 0-.6-.4-1-1-1-.5 0-1 .4-1 1zM343.8 137.7c.7.3 1.6.2 1.9-.1.4-.3-.2-.6-1.3-.5-1.1 0-1.4.3-.6.6zM377.9 137.2c0 .2-.2 1.1-.4 2.1-.3 1.5-.1 1.6 1.1.6 1.6-1.3 1.9-2.9.4-2.9-.5 0-1 .1-1.1.2zM350.6 141.7c-.6 1.4-.5 1.5.5.6.7-.7 1-1.5.7-1.8-.3-.3-.9.2-1.2 1.2zM370 145c-1.2.8-1 1 .8 1 1.3 0 2-.4 1.7-1-.7-1.2-.6-1.2-2.5 0zM347.9 145c0 .3-.2 1.5-.5 2.7-.2 1.3.1 2.3.6 2.3 1.6 0 2.4-3 1.1-4.3-.6-.6-1.1-.9-1.2-.7zM378.6 145.8c-.3.5.1.9.9.9s1.2-.4.9-.9c-.3-.4-.7-.8-.9-.8-.2 0-.6.4-.9.8zM355.9 147.7c-.1.5-.1 1.2 0 1.7s-.5.6-1.4.3c-.8-.4-1.5-.1-1.5.6s.8 1.3 1.8 1.4c1.3.1 1.8-.6 1.8-2.3 0-2.3-.5-3.3-.7-1.7zM372 150c-.8.5-1 1-.5 1 .6 0 1.7-.5 2.5-1s1.1-1 .5-1c-.5 0-1.7.5-2.5 1zM380.5 153c.3.6-.1 1.3-1.1 1.7-1.5.6-1.4.7.5 1.5 1.4.5 2 1.2 1.5 2s.1.7 1.6-.3c1.4-.9 3.5-1.5 4.7-1.4l2.2.2-2.4-2.5c-2.4-2.4-5.1-2.2-4.1.4.3.8 0 1.1-.9.8-.8-.3-1.1-1.2-.8-2 .3-.8 0-1.4-.7-1.4-.6 0-.8.5-.5 1zM356.6 160.9c-.3.5.1 1.1.9 1.5.9.3 1.5 0 1.5-.9 0-1.6-1.6-2-2.4-.6zM387.5 163.1c-.4.5-1.2.6-1.8.2-.7-.4-.5.2.3 1.3.8 1 1.5 2.1 1.7 2.3.2.4 3.3-2.5 3.3-3.2 0-1-3-1.6-3.5-.6zM381.9 165.2c.6.7 1.6 1.3 2.2 1.3.5 0 .9.3.9.7v1.9c0 .6-.8.8-1.7.5-1-.3-2.5-.1-3.3.5-1.2.8-1.1.9.6.4 1.3-.3 2.8 0 3.7 1 2.1 2 3.3 1.9 1.6-.2-1.3-1.5-1.2-1.5.9-.4 2.9 1.5 3.8.9 2.3-1.6-.6-1-1.1-1.4-1.1-.9 0 .5-.9-.3-2.1-1.8-1.1-1.4-2.8-2.6-3.7-2.6-1.3 0-1.3.2-.3 1.2z"/>
  <path d="M380.5 167c-.3.5-.1 1 .4 1 .6 0 1.1-.5 1.1-1 0-.6-.2-1-.4-1-.3 0-.8.4-1.1 1zM344.5 170c.4.6 1.1.8 1.6.5 1.4-.9 1.1-1.5-.7-1.5-.8 0-1.2.5-.9 1zM351.4 171.7c.3.4-.1 1.4-1 2.4-1.6 1.7-1.5 1.8 1.5.6 3.6-1.3 3.9-2.3 1-3-1.2-.3-1.8-.3-1.5 0zM393.7 175.4c-.9.7-1.7 1.9-1.7 2.7 0 .9.3 1 .8.3.4-.6 1.5-1.5 2.6-2.1 1-.6 1.5-1.3 1-1.6-.5-.3-1.7 0-2.7.7zM385.5 183.1c-1 1.5 0 2.1 2.7 1.7l2.3-.3-2.2-1.3c-1.5-.8-2.4-.9-2.8-.1zM381 187c0 .5.5 1 1.1 1 .5 0 .7-.5.4-1-.3-.6-.8-1-1.1-1-.2 0-.4.4-.4 1zM376.1 190.3c-.8 1-.7 1.4.2 1.4.8 0 1.4-.6 1.4-1.4 0-.7-.1-1.3-.2-1.3-.2 0-.8.6-1.4 1.3zM384 194.4c0 .8.4 1.7.9 2 .5.4.7-.3.4-1.4-.6-2.3-1.3-2.6-1.3-.6zM103.1 196.9c-1.1 1.9-.6 3.1 1.2 3.1.6 0 .7-.3.4-.6-.3-.4-.2-1.5.4-2.5.6-1.3.6-1.9 0-1.9s-1.5.8-2 1.9zM111 207.5c-1 1.3-1.1 2.1-.3 3.4.9 1.4.8 2.2-.2 3.2-.7.8-1.5 2.7-1.8 4.4-.4 1.6-.4 2.4-.1 1.7.3-.6.9-1 1.4-.7.5.3.7-.6.5-2-.2-2.1.1-2.5 1.9-2 1.1.2 1.6.2.9-.1-.7-.3-1-1.1-.7-1.9.3-.7 0-1.6-.6-2-.8-.5-.8-1 0-2.1.7-.7 1-1.8.8-2.5-.2-.7-.9-.5-1.8.6zM98.1 236.2c0 .9-.4 2.5-.7 3.5-.5 1.7-.5 1.7.6 0 .6-1 .9-2.5.7-3.5-.4-1.5-.5-1.5-.6 0zM97 246c0 .5.5 1 1.1 1 .5 0 .7-.5.4-1-.3-.6-.8-1-1.1-1-.2 0-.4.4-.4 1zM92 271.3c0 .9-.4 1.7-1 1.7-.5 0-1 .7-1 1.6 0 .8-.4 1.2-1 .9-.5-.3-1-.2-1 .4 0 .5-.3 1.6-.6 2.4-.3.9.2 1.6 1.5 2 1.6.4 2.3-.3 3.5-4.1 1.1-3.1 1.3-4.9.6-5.6-.7-.7-1-.4-1 .7zM396.7 317.1c.7.7 1.5 1 1.8.7.3-.3-.2-.9-1.2-1.2-1.4-.6-1.5-.5-.6.5zM388 319.9c0 .6.4 1.3 1 1.6.6.3.7-.1.4-.9-.7-1.8-1.4-2.1-1.4-.7zM399.6 320.7c-.6 1.4-.5 1.5.5.6.7-.7 1-1.5.7-1.8-.3-.3-.9.2-1.2 1.2zM394 321.1c0 .5.5.7 1 .4.6-.3 1-.8 1-1.1 0-.2-.4-.4-1-.4-.5 0-1 .5-1 1.1zM384.5 332c.3.5.8 1 1.1 1 .2 0 .4-.5.4-1 0-.6-.5-1-1.1-1-.5 0-.7.4-.4 1zM386.2 335.5c-1.6 3.5-1.6 5.3 0 3.7 1.3-1.3 3.2-1.6 2.4-.4-.2.4.4.8 1.5.8 1 0 1.9-.4 1.9-.9s.8-.3 1.8.4c1.5 1.3 1.6 1.2.3-.4-.7-.9-2.2-1.7-3.3-1.7-1 0-2.2-.9-2.6-2.1-.8-2-.8-2-2 .6zM382.3 336.5c-1.7 1.8-1.6 2.2.4 2.9 1 .4 1.4.4 1.1 0-.4-.4-.3-1.5.3-2.5 1.1-2.2 0-2.5-1.8-.4zM415.5 336.9c.3.6.1 1.1-.4 1.1-.6 0-1.1.8-1.1 1.7 0 1.4-.2 1.5-.9.5-.7-1.1-.9-1.1-1.4.1-.4 1.1.5 1.4 4.1 1.5 3.3 0 4.1-.2 3.1-1-1.2-.8-1.1-.9.2-.5.9.3 2.2.1 3-.4 1-.6 1-.9.2-.9-.7 0-1.2-.6-1-1.3.1-.7-1.1-1.3-3.2-1.5-2.1-.2-3.1 0-2.6.7zM419.1 343.7c-1.4.9-2.2 1.2-1.9.7.4-.5-.5-.9-1.8-.9-2.1 0-2.2.2-.8 1.2 1.8 1.3 10.1 1.5 11 .2.3-.5-.2-.9-1.1-.9-.9 0-1.3-.5-1-1 1-1.6-1.8-1.2-4.4.7zM411.6 349.4c-1.6 1.6-1.6 1.8-.3 1.3 2.3-.9 3.2 1.2 1.1 2.7-1.3 1-1.4 1.5-.4 2.1.9.6 1.1.4.5-.5-.6-1-.2-1.1 1.8-.6 1.4.3 2.8.2 3.2-.4.7-1.2 3.5-.1 3.2 1.3-.1.6 1 1.2 2.6 1.3 2.3.2 2.5.1 1.4-1.1-.8-.7-3.1-2.1-5.2-2.9-3.2-1.4-3.6-1.4-3.1-.1.3.8.1 1.5-.4 1.5-.6 0-1-.9-1-1.9 0-1.1-.6-2.2-1.2-2.4-.7-.3-.3-.6.9-.6 1.2-.1 2.4.3 2.7.8.3.5 3 1.5 5.8 2.1 2.9.7 6.4 2.2 7.7 3.4l2.4 2.1-1.2-2.2c-.6-1.3-2.3-2.6-3.6-2.9-1.4-.3-2.5-1-2.5-1.4 0-.4-1.1-1.1-2.5-1.4-1.4-.4-2.3-1.1-2-1.6 1.1-1.8-8-.5-9.9 1.4z"/>
  <path d="M416.5 355.7c-3.1.8-4.2 2.2-2.5 3.3 2.2 1.4 2.6 1.3 3.8-1.5.6-1.4 1.1-2.4.9-2.4-.1.1-1.1.3-2.2.6zM418.5 358c-.3.5.1 1 1 1s1.3-.5 1-1c-.3-.6-.8-1-1-1-.2 0-.7.4-1 1zM381 362.1c0 .5.5.7 1 .4.6-.3 1-.8 1-1.1 0-.2-.4-.4-1-.4-.5 0-1 .5-1 1.1zM379.4 363.7c.3.4 0 1.3-.7 2.1-1 1.3-.9 1.5.6.9 1-.4 2.3-.7 2.8-.7 1.8 0 .9-1.8-1.2-2.3-1.2-.3-1.8-.3-1.5 0zM405 363.5c0 .2.7.8 1.5 1.5 1.2 1 1.5 1 1.5-.2 0-.8-.7-1.5-1.5-1.5s-1.5.1-1.5.2zM142 366.9c0 .6.4 1.3 1 1.6.6.3.7-.1.4-.9-.7-1.8-1.4-2.1-1.4-.7zM151.6 371.8c.6.4 1.3 1.5 1.7 2.4.3 1 1.1 1.8 1.7 1.8.6 0 .3-1.1-.6-2.5-.9-1.4-2.1-2.5-2.8-2.5-.8 0-.8.3 0 .8zM406 373c-.8.5-1.8.6-2.2.4-.4-.3-.8-.1-.8.5 0 1 4.5.9 5.6-.1 1-1.1-1.2-1.7-2.6-.8zM399.5 376.1c-.4.6-.5 1.2-.2 1.5.2.3.7-.2 1-1.1.7-1.7.1-2-.8-.4zM157.8 379.5c2.6 3.5 4.9 4.7 5.6 3 .3-.9-.1-1.5-.9-1.5s-1.8-.8-2.3-1.7c-.6-.9-1.7-1.8-2.6-1.9-1.4-.2-1.4.1.2 2.1zM395.7 382c-.3 1.2 0 2 .8 2s1.1-.8.8-2c-.3-1.1-.7-2-.8-2-.1 0-.5.9-.8 2zM375.4 381.9c.3.5-.4 1.2-1.7 1.6-1.4.4-1.7.8-.9 1.2 1.4.5 4.2-1.4 4.2-2.8 0-.5-.5-.9-1.1-.9-.5 0-.8.4-.5.9zM389.6 384.5c-.3.8-.1 1.5.4 1.5.6 0 1-.7 1-1.5s-.2-1.5-.4-1.5-.6.7-1 1.5zM392.6 385.5c.4.8 1.3 1.5 2.1 1.5 1.3 0 1.3-.3.3-1.5-.7-.8-1.6-1.5-2.1-1.5s-.6.7-.3 1.5zM370.3 390c-1.3.5-2.3 1.4-2.3 2 0 .6 1.1.3 2.5-.6 1.4-.9 2.5-1.8 2.5-2 0-.5 0-.5-2.7.6zM385 391.1c0 .5.5.7 1 .4.6-.3 1-.8 1-1.1 0-.2-.4-.4-1-.4-.5 0-1 .5-1 1.1zM398 393.4c0 .2.7.7 1.6 1 .8.3 1.2.2.9-.4-.6-1-2.5-1.4-2.5-.6zM364.4 395.6c-1.8 1.4-1.8 1.5.4.4 1.2-.6 2.2-1.3 2.2-1.5 0-.8-.5-.6-2.6 1.1zM176.1 395.9c-.8.5-.9 1.1-.3 1.5.5.3 1.2-.1 1.6-.9.6-1.7.6-1.8-1.3-.6zM180.5 398c-.4.6-1.2.7-1.8.4-.7-.4-.2.3 1 1.5 2.7 2.6 3.7 2.7 2.4.2-.6-1-.7-2.1-.4-2.5.3-.3.4-.6 0-.6-.3 0-.9.5-1.2 1zM186.1 403.6c0 1.1.3 1.4.6.6.3-.7.2-1.6-.1-1.9-.3-.4-.6.2-.5 1.3zM370 404.8c0 .4 1 .9 2.2.9 1.8.2 2 0 .8-.7-1.8-1.2-3-1.3-3-.2zM192.5 408c-.3.5-.1 1 .4 1 .6 0 1.1-.5 1.1-1 0-.6-.2-1-.4-1-.3 0-.8.4-1.1 1zM354.5 408c-.3.6.1.7.9.4 1.8-.7 2.1-1.4.7-1.4-.6 0-1.3.4-1.6 1zM350 409c-.9.6-1 1-.3 1 .6 0 1.5-.5 1.8-1 .8-1.2.4-1.2-1.5 0zM186.7 416.4c-.3.8.1 1.7.9 2 .8.3 1.4-.1 1.4-.9 0-2-1.7-2.8-2.3-1.1zM347.5 424c-.3.5-.1 1 .4 1 .6 0 1.1-.5 1.1-1 0-.6-.2-1-.4-1-.3 0-.8.4-1.1 1zM209 425.6c0 1.1 4 4.7 4.6 4.2.9-1-1.2-4.1-3-4.4-.9-.1-1.6 0-1.6.2zM253 430.5c0 .9.9 1.5 2.3 1.4 1.7-.1 1.8-.2.4-.6-.9-.2-1.5-.9-1.2-1.4.4-.5.1-.9-.4-.9-.6 0-1.1.7-1.1 1.5zM262.6 431.5c.4.8 1 1.2 1.5.9 1.4-.8 1-2.4-.6-2.4-.9 0-1.2.6-.9 1.5zM296.5 435c-.4.6-.9.8-1.3.6-.4-.2-1.3.2-1.9.9-1 1.1-.9 1.3.7 1.2 1.1-.1 2-.5 2-1 0-.4.5-.5 1-.2.6.3 1-.1 1-.9 0-1.8-.6-2.1-1.5-.6zM237.1 438.6c1.3 1.6 2.9 1.9 2.9.5 0-.5-.9-1.1-2.1-1.4-1.6-.4-1.8-.3-.8.9zM240 442c0 .5.5 1 1 1 .6 0 1-.5 1-1 0-.6-.4-1-1-1-.5 0-1 .4-1 1zM250 442c-1.3.8-1.2 1 .3 1 .9 0 1.7-.5 1.7-1 0-1.2-.1-1.2-2 0zM307.7 443.4c-.4 1 0 1.2 1.4.9 1-.3 1.6-.9 1.3-1.4-.8-1.3-2.1-1.1-2.7.5zM336 163c0 .5.9 1 2.1 1 1.1 0 1.7-.5 1.4-1-.3-.6-1.3-1-2.1-1s-1.4.4-1.4 1zM397.5 194c.3.5.8 1 1.1 1 .2 0 .4-.5.4-1 0-.6-.5-1-1.1-1-.5 0-.7.4-.4 1zM407 323.5c-1.1 1.3-1 1.4.4.9.9-.3 1.6-1 1.6-1.5 0-1.3-.6-1.1-2 .6zM417.5 379.9c-.3.6.1 1.3.8 1.8.7.4 2.1 1.9 3.1 3.3 1.2 1.6 1.6 1.8 1.2.7-.3-1-.6-2.5-.6-3.2 0-1.8-3.7-3.9-4.5-2.6zM429 386.5c0 .2 1 1 2.3 1.6 2 1.1 2.1 1.1.8-.4-1.3-1.6-3.1-2.3-3.1-1.2zM424.2 389.4c1 .7 1.4 1.7 1 2.1-.4.5-.1.5.6.1 1-.6 1-1.1.1-2.2-.6-.8-1.7-1.4-2.3-1.4-.6 0-.3.7.6 1.4z"/>
</svg>
